<svg xmlns='http://www.w3.org/2000/svg' viewBox='0 0 72 72'><path d="M35.5 7.1L34.7 7.1L34.0 7.2L33.3 7.5L32.6 7.8L32.0 8.2L31.4 8.7L30.8 9.2L30.4 9.8L29.9 10.4L29.6 11.1L29.3 11.9L29.1 12.7L29.0 13.5L28.9 14.3L28.9 33.5L25.9 33.5L25.2 33.5L24.5 33.5L23.9 33.4L23.5 33.2L23.1 33.1L22.8 32.8L22.6 32.6L22.4 32.2L22.3 31.8L22.2 31.3L22.2 30.8L22.2 30.2L22.1 29.5L22.1 28.8L20.5 25.5L20.5 24.9L20.5 24.4L20.5 24.0L20.4 23.6L20.3 23.2L20.1 22.9L20.0 22.7L19.7 22.5L19.5 22.3L19.1 22.2L18.7 22.1L18.3 22.1L17.7 22.1L17.1 22.1L16.6 22.2L16.0 22.3L15.5 22.4L15.0 22.6L14.5 22.8L14.0 23.0L13.6 23.3L13.2 23.6L12.8 23.9L12.5 24.3L12.3 24.7L12.1 25.2L12.0 25.6L12.0 26.2L11.8 37.4L11.8 38.0L12.0 38.7L12.3 39.4L12.7 40.1L13.2 40.8L13.7 41.5L14.3 42.2L14.9 42.9L15.6 43.5L16.3 44.0L17.0 44.4L17.7 44.7L18.3 44.9L18.9 45.0L25.9 45.1L25.9 45.1L28.9 45.1L28.9 64.2L42.1 64.2L42.1 14.3L42.0 13.5L41.9 12.7L41.7 11.9L41.4 11.1L41.0 10.4L40.6 9.8L40.1 9.2L39.6 8.7L39.0 8.2L38.4 7.8L37.7 7.5L37.0 7.2L36.3 7.1L35.5 7.1Z" fill="#b1cc33"/><path d="M54.5 26.0L53.5 26.0L52.6 26.2L51.7 26.6L50.8 27.2L50.2 27.9L49.7 28.8L49.4 29.7L49.3 30.7L49.3 37.1L49.3 37.9L49.3 38.5L49.3 39.1L49.2 39.7L49.2 40.1L49.0 40.5L48.9 40.9L48.7 41.2L48.4 41.4L48.0 41.6L47.6 41.7L47.1 41.8L46.4 41.9L45.7 41.9L42.3 41.9L42.4 53.4L45.7 53.4L45.7 53.4L54.1 53.4L55.1 53.3L56.1 52.9L57.0 52.4L57.8 51.6L58.4 50.7L58.7 49.7L58.8 48.6L58.8 30.9L58.7 29.9L58.4 28.9L57.9 28.0L57.3 27.3L56.5 26.7L55.5 26.2L54.5 26.0Z" fill="#b1cc33"/><path d="M42.1 63.1L42.1 14.2L42.0 13.4L41.9 12.6L41.7 11.8L41.4 11.0L41.0 10.4L40.6 9.7L40.1 9.1L39.6 8.6L39.0 8.1L38.4 7.8L37.7 7.5L37.0 7.2L36.3 7.1L35.5 7.0L34.7 7.1L34.0 7.2L33.3 7.5L32.6 7.8L32.0 8.1L31.4 8.6L30.8 9.1L30.4 9.7L29.9 10.4L29.6 11.0L29.3 11.8L29.1 12.6L29.0 13.4L28.9 14.2L28.9 63.1"/><path d="M25.1 44.0L18.7 44.0L17.4 43.9L16.1 43.5L14.9 42.9L13.9 42.1L13.1 41.0L12.4 39.9L12.1 38.6L11.9 37.3L11.9 26.1L12.0 25.1L12.3 24.2L12.8 23.3L13.5 22.6L14.3 22.0L15.2 21.6L16.2 21.4L17.2 21.4L18.2 21.6L19.1 22.1L19.9 22.7L20.6 23.4L21.1 24.3L21.4 25.3L21.5 26.3L21.5 31.1L21.6 31.9L21.8 32.6L22.2 33.2L22.8 33.8L23.4 34.2L24.1 34.4L24.9 34.5L25.1 34.5"/><path d="M45.8 52.4L54.2 52.4L55.2 52.3L56.3 51.9L57.2 51.4L57.9 50.6L58.5 49.7L58.8 48.7L59.0 47.6L59.0 29.9L58.9 28.9L58.6 27.9L58.1 27.0L57.4 26.3L56.6 25.6L55.7 25.2L54.7 25.0L53.7 25.0L52.7 25.2L51.8 25.6L51.0 26.2L50.3 26.9L49.8 27.8L49.5 28.7L49.4 29.7L49.4 36.1L49.4 36.9L49.4 37.6L49.4 38.4L49.4 39.1L49.3 39.7L49.2 40.3L49.0 40.9L48.8 41.4L48.5 41.8L48.2 42.2L47.7 42.5L47.2 42.7L46.6 42.8L45.8 42.9"/><path d="M40.1 18.3L44.2 14.3"/><path d="M51.1 48.1L55.2 44.0"/><path d="M20.2 30.4L24.2 26.3"/><path d="M33.1 11.7L29.7 7.0"/><path d="M31.2 55.2L26.6 51.6"/><path d="M55.9 28.0L60.0 23.9"/><path d="M51.0 35.6L46.6 31.7"/><path d="M36.2 25.6L33.2 21.4"/><path d="M14.7 26.0L11.8 20.7"/></svg>