<svg xmlns='http://www.w3.org/2000/svg' viewBox='0 0 72 72'><path d="M55.8 48.1L41.9 48.1L40.3 41.8L39.4 38.5L39.4 21.8L42.2 20.7L43.4 18.1L46.3 18.1L47.6 16.7L51.6 17.3L51.7 18.6L54.7 19.3L54.7 34.5L56.5 29.1L60.6 27.9L61.0 30.4L55.8 48.1Z" fill="#92d3f5"/><path d="M17.5 47.9L29.4 48.1L31.7 41.5L32.5 38.3L32.4 22.0L30.9 20.7L29.7 20.7L28.4 17.8L25.7 17.8L23.1 16.0L20.6 18.2L17.7 18.3L17.5 20.7L17.5 28.8L13.7 36.7L13.7 39.8L16.1 47.9L17.5 47.9Z" fill="#92d3f5"/><path d="M18.5 37.7L19.2 38.7L19.9 39.6L20.8 40.4L21.7 41.1L21.7 41.1L21.6 41.0L21.5 40.7L21.4 40.4L21.2 40.1L21.1 39.7L20.9 39.2L20.8 38.7L20.6 38.2L20.5 37.7L20.4 37.2L20.4 36.7L20.4 36.2L20.4 35.7L20.5 35.3L20.5 34.7L20.4 34.1L20.3 33.5L20.2 32.9L20.1 32.3L20.0 31.7L19.8 31.1L19.6 30.6L19.5 30.1L19.3 29.7L19.2 29.4L19.0 29.2L18.9 29.1L18.8 29.3L18.8 29.6L18.7 30.2L18.7 30.9L18.6 31.7L18.6 32.5L18.6 33.4L18.5 34.4L18.5 35.2L18.5 36.0L18.5 36.7L18.5 37.3L18.5 37.6L18.5 37.7Z" fill="#61b2e4"/><path d="M55.4 33.8L55.1 34.3L54.8 34.9L54.5 35.4L54.1 36.0L53.8 36.5L53.5 37.1L53.2 37.6L52.9 38.0L52.7 38.5L52.4 38.9L52.3 39.2L52.1 39.5L52.0 39.7L52.0 39.9L52.1 38.1L52.6 36.4L53.3 34.9L54.3 33.4L54.6 33.1L54.9 32.8L55.1 32.6L55.3 32.4L55.5 32.2L55.6 32.0L55.7 31.9L55.8 31.7L55.9 31.6L56.0 31.6L56.0 31.5L56.1 31.5L56.1 31.5L56.1 31.5L56.0 32.1L55.9 32.6L55.7 33.2L55.4 33.8Z" fill="#61b2e4"/><path d="M21.2 26.3L21.2 19.8"/><path d="M17.2 24.3L17.2 19.4L17.3 19.0L17.4 18.6L17.7 18.3L18.0 18.0L18.4 17.8L18.8 17.7L19.2 17.7L19.6 17.8L20.0 17.9L20.4 18.1L20.7 18.4L21.0 18.8L21.2 19.2L21.2 19.8L21.2 18.0L21.3 17.5L21.4 17.1L21.7 16.7L22.0 16.4L22.4 16.2L22.8 16.0L23.2 16.0L23.6 16.1L24.0 16.2L24.4 16.5L24.7 17.0L24.9 17.5L25.1 18.2L25.1 19.0"/><path d="M25.2 29.9L25.1 18.6L25.1 19.0L25.2 18.6L25.3 18.2L25.6 17.9L25.9 17.6L26.3 17.4L26.7 17.3L27.1 17.3L27.5 17.3L27.9 17.4L28.3 17.7L28.6 18.0L28.9 18.4L29.0 18.9L29.1 19.5L29.1 23.5L29.2 30.9L29.1 22.3L29.1 22.0L29.3 21.6L29.5 21.4L29.8 21.2L30.1 21.0L30.5 20.9L30.8 20.9L31.2 21.0L31.5 21.1L31.9 21.3L32.1 21.6L32.3 21.9L32.5 22.3L32.5 22.8L32.5 37.7L32.5 38.5L32.4 39.4L32.2 40.2L31.9 41.1L31.5 41.9L31.5 42.1L31.4 42.5L31.2 43.1L31.0 43.9L30.8 44.9L30.5 46.0L30.2 47.2L29.9 48.4L29.6 49.7L29.3 50.9L29.0 52.1L28.7 53.1L28.5 54.1L28.3 54.9L17.5 54.9L17.3 54.2L17.1 53.3L16.8 52.2L16.5 51.0L16.2 49.8L15.9 48.6L15.6 47.3L15.3 46.1L15.0 45.0L14.8 44.0L14.5 43.1L14.4 42.5L14.3 42.1L14.2 41.9L13.9 40.6L13.7 39.1L13.7 37.7L13.9 36.2L14.3 34.8L14.4 34.5L14.6 34.1L14.7 33.7L14.9 33.4L15.0 33.0L15.2 32.6L15.4 32.1L15.5 31.7L15.7 31.3L15.9 30.8L16.1 30.4L16.3 29.9L16.5 29.4L16.7 28.9L16.9 28.8L17.1 28.8L17.3 28.8L17.5 28.8L17.7 28.9L17.9 28.9L18.1 29.0L18.2 29.1L18.4 29.3L18.5 29.4L18.7 29.6L18.8 29.8L19.0 30.0L19.1 30.2L19.3 30.9L19.5 31.6L19.5 32.4L19.4 33.1L19.1 33.8L19.0 34.2L18.8 34.7L18.6 35.3L18.5 35.9L18.5 36.6L18.5 37.7"/><path d="M50.7 19.9L50.7 31.1"/><path d="M55.0 35.4L56.3 30.5L56.5 30.2L56.6 29.9L56.8 29.6L57.0 29.4L57.2 29.1L57.5 28.9L57.8 28.7L58.0 28.5L58.3 28.4L58.6 28.2L58.9 28.1L59.2 28.0L59.5 28.0L59.8 28.0L60.0 28.0L60.3 28.1L60.5 28.2L60.7 28.3L60.8 28.4L60.9 28.6L61.0 28.7L61.0 28.8L61.0 29.0L61.0 29.1L60.8 30.0L60.6 30.8L60.4 31.5L60.2 32.3L60.0 33.0L59.8 33.6L59.6 34.3L59.5 34.9L59.3 35.4L59.2 36.0L59.0 36.5L58.9 36.9L58.8 37.4L58.7 37.8L57.7 42.1L57.7 42.3L57.6 42.6L57.4 43.2L57.2 43.9L57.0 44.8L56.8 45.7L56.5 46.8L56.2 48.0L55.9 49.1L55.6 50.3L55.3 51.5L55.0 52.6L54.8 53.6L54.6 54.5L54.5 54.6L54.5 54.8L54.4 54.9L54.2 55.0L54.1 55.0L54.0 55.1L53.8 55.1L44.2 55.1L44.1 55.1L44.0 55.0L43.8 55.0L43.7 54.9L43.6 54.8L43.5 54.7L43.5 54.5L43.3 53.7L43.0 52.7L42.8 51.6L42.5 50.5L42.2 49.3L41.9 48.1L41.6 46.9L41.3 45.9L41.1 44.8L40.8 43.9L40.7 43.2L40.5 42.6L40.4 42.3L40.4 42.1L40.0 41.3L39.7 40.4L39.5 39.6L39.4 38.7L39.4 37.8L39.4 23.0L39.4 22.5L39.6 22.1L39.8 21.8L40.1 21.5L40.4 21.3L40.7 21.2L41.1 21.1L41.5 21.1L41.8 21.2L42.1 21.4L42.4 21.6L42.6 21.8L42.8 22.1L42.8 22.5L42.8 31.1L42.8 23.6L42.9 19.7L42.9 19.1L43.1 18.6L43.3 18.2L43.6 17.9L44.0 17.6L44.4 17.5L44.8 17.5L45.3 17.5L45.7 17.6L46.0 17.8L46.3 18.1L46.6 18.4L46.7 18.8L46.8 19.2L46.8 18.8L46.7 30.1"/><path d="M46.8 19.2L46.9 18.4L47.0 17.7L47.3 17.1L47.6 16.7L47.9 16.4L48.3 16.3L48.8 16.2L49.2 16.2L49.6 16.4L49.9 16.6L50.2 16.9L50.5 17.2L50.6 17.7L50.7 18.2L50.7 19.9L50.8 19.4L50.9 18.9L51.2 18.6L51.5 18.3L51.9 18.1L52.3 18.0L52.7 17.9L53.2 17.9L53.6 18.0L53.9 18.2L54.3 18.5L54.5 18.8L54.7 19.2L54.7 19.6L54.7 25.3"/><path d="M29.7 47.9L16.1 47.9"/><path d="M55.8 48.1L42.2 48.1"/></svg>