# Exported from MakeClothes (TM)
# author Elvaerwyn
# license CC-by
# homepage http://www.makehuman.org/
v -2.1205 -7.8081 2.0991
v -2.1403 -7.7735 1.9361
v -2.3678 -7.9023 1.9359
v -2.3100 -7.9255 2.0983
v -2.4315 -8.0640 2.0940
v -2.5081 -8.0753 1.9346
v -2.3626 -8.1524 1.9359
v -2.3074 -8.1371 2.0983
v -1.9220 -8.1437 2.0983
v -1.9053 -8.1680 1.9361
v -1.7809 -8.0875 1.9352
v -1.8286 -8.0757 2.0941
v -1.9432 -7.9477 2.0983
v -1.9212 -7.9111 1.9360
v -2.4411 -7.9811 2.0940
v -2.5223 -7.9818 1.9346
v -2.1071 -8.1592 2.0991
v -2.1336 -8.1829 1.9361
v -1.8323 -8.0112 2.0941
v -1.7858 -7.9987 1.9352
v -2.6299 -8.0881 1.6802
v -2.4497 -8.1727 1.6815
v -1.8863 -8.1855 1.6820
v -1.7287 -8.0868 1.6820
v -1.8995 -7.8535 1.6818
v -2.1682 -7.7218 1.6818
v -2.6399 -7.9823 1.6802
v -2.1699 -8.2073 1.6820
v -1.7381 -7.9681 1.6820
v -2.4497 -7.8693 1.6815
v -1.8885 -8.1843 1.4876
v -1.7077 -8.0794 1.4876
v -1.8900 -7.7933 1.4865
v -2.1817 -7.6765 1.4863
v -2.6856 -7.9716 1.4869
v -2.7074 -8.0913 1.4869
v -2.2112 -8.2119 1.4876
v -1.7226 -7.9355 1.4873
v -2.4816 -7.8407 1.4872
v -2.5226 -8.1850 1.4875
v -1.8965 -7.7086 1.2897
v -2.2007 -7.6178 1.2888
v -2.6830 -7.9345 1.2917
v -2.7374 -8.0787 1.2918
v -2.2243 -8.2074 1.2919
v -1.8820 -8.1763 1.2919
v -1.7184 -7.8738 1.2913
v -2.4877 -7.7917 1.2908
v -2.5543 -8.1893 1.2919
v -1.6928 -8.0535 1.2919
v -2.6692 -7.8778 1.0738
v -2.7517 -8.0710 1.0728
v -2.2519 -8.1806 1.0722
v -1.9144 -8.1434 1.0723
v -1.7550 -7.7949 1.0737
v -1.9258 -7.6185 1.0738
v -2.4761 -7.7136 1.0742
v -2.5837 -8.1962 1.0722
v -1.7301 -8.0017 1.0730
v -2.2159 -7.5469 1.0735
v -2.5794 -8.1601 0.8166
v -2.2654 -8.1558 0.8142
v -1.7869 -7.9427 0.8283
v -1.8036 -7.7114 0.8412
v -2.2249 -7.4623 0.8546
v -2.4501 -7.6293 0.8501
v -2.7270 -8.0180 0.8265
v -1.9575 -8.1082 0.8168
v -1.9588 -7.5212 0.8513
v -2.6311 -7.8159 0.8400
v -2.2437 -7.3568 0.6704
v -2.4504 -7.5309 0.6398
v -2.7082 -7.9785 0.5124
v -2.5823 -8.1495 0.4559
v -1.9883 -8.1104 0.4414
v -1.8318 -7.9015 0.5207
v -1.9912 -7.4144 0.6544
v -2.6144 -7.7497 0.5825
v -2.2774 -8.1698 0.4245
v -1.8457 -7.6352 0.5964
v -2.6655 -7.9363 0.0994
v -2.5588 -8.1407 -0.0675
v -1.9843 -8.1717 -0.1278
v -1.8542 -7.8634 0.1134
v -2.0043 -7.2944 0.4864
v -2.2579 -7.2482 0.5235
v -2.6119 -7.6694 0.2769
v -2.2643 -8.2056 -0.1730
v -1.8560 -7.5427 0.3307
v -2.4705 -7.4215 0.4301
v -2.0027 -7.1629 0.3915
v -2.2702 -7.1248 0.4495
v -2.6380 -7.5317 0.0347
v -2.6360 -7.7914 -0.2346
v -2.2563 -8.0209 -0.5773
v -1.9648 -7.9965 -0.4228
v -1.8426 -7.4044 0.1299
v -2.5066 -7.2879 0.2695
v -2.5282 -7.9395 -0.4728
v -1.8861 -7.7187 -0.1586
v -2.5986 -7.3006 -0.0557
v -2.5709 -7.5463 -0.3171
v -2.2504 -7.7535 -0.5597
v -2.0332 -7.7172 -0.4483
v -1.8404 -7.2074 0.0598
v -2.0028 -7.0108 0.3627
v -2.4933 -7.1021 0.2081
v -2.4749 -7.6907 -0.5025
v -1.9092 -7.4973 -0.2325
v -2.2631 -6.9863 0.4236
v -2.5046 -7.2043 -0.3221
v -2.4247 -7.3789 -0.4838
v -2.0613 -7.3906 -0.4639
v -1.9115 -7.1906 -0.2372
v -2.0078 -6.8036 0.3532
v -2.2484 -6.7806 0.4173
v -2.5313 -7.0087 -0.0820
v -2.2443 -7.4221 -0.5404
v -1.8515 -6.9632 0.0203
v -2.4531 -6.8463 0.1900
v -2.0393 -6.9618 -0.5153
v -1.8267 -6.8202 -0.2088
v -1.9971 -6.5985 0.3398
v -2.2514 -6.5746 0.3960
v -2.5339 -6.6872 -0.0663
v -2.5277 -6.7892 -0.3261
v -2.2402 -6.9617 -0.5925
v -1.8003 -6.7057 0.0453
v -2.4708 -6.5845 0.2353
v -2.4316 -6.9394 -0.5246
v 2.1205 -7.8081 2.0991
v 2.3100 -7.9255 2.0983
v 2.3678 -7.9023 1.9359
v 2.1403 -7.7735 1.9361
v 2.4315 -8.0640 2.0940
v 2.3074 -8.1371 2.0983
v 2.3626 -8.1524 1.9359
v 2.5081 -8.0753 1.9346
v 1.9220 -8.1437 2.0983
v 1.8286 -8.0757 2.0941
v 1.7809 -8.0875 1.9352
v 1.9053 -8.1680 1.9361
v 1.9432 -7.9477 2.0983
v 1.9212 -7.9111 1.9360
v 2.4411 -7.9811 2.0940
v 2.5223 -7.9818 1.9346
v 2.1071 -8.1592 2.0991
v 2.1336 -8.1829 1.9361
v 1.8323 -8.0112 2.0941
v 1.7858 -7.9987 1.9352
v 2.4497 -8.1727 1.6815
v 2.6299 -8.0881 1.6802
v 1.7287 -8.0868 1.6820
v 1.8863 -8.1855 1.6820
v 2.1682 -7.7218 1.6818
v 1.8995 -7.8535 1.6818
v 2.6399 -7.9823 1.6802
v 2.1699 -8.2073 1.6820
v 1.7381 -7.9681 1.6820
v 2.4497 -7.8693 1.6815
v 1.7077 -8.0794 1.4876
v 1.8885 -8.1843 1.4876
v 2.1817 -7.6765 1.4863
v 1.8900 -7.7933 1.4865
v 2.7074 -8.0913 1.4869
v 2.6856 -7.9716 1.4869
v 2.2112 -8.2119 1.4876
v 1.7226 -7.9355 1.4873
v 2.4816 -7.8407 1.4872
v 2.5226 -8.1850 1.4875
v 2.2007 -7.6178 1.2888
v 1.8965 -7.7086 1.2897
v 2.7374 -8.0787 1.2918
v 2.6830 -7.9345 1.2917
v 1.8820 -8.1763 1.2919
v 2.2243 -8.2074 1.2919
v 1.7184 -7.8738 1.2913
v 2.4877 -7.7917 1.2908
v 2.5543 -8.1893 1.2919
v 1.6928 -8.0535 1.2919
v 2.7517 -8.0710 1.0728
v 2.6692 -7.8778 1.0738
v 1.9144 -8.1434 1.0723
v 2.2519 -8.1806 1.0722
v 1.9258 -7.6185 1.0738
v 1.7550 -7.7949 1.0737
v 2.4761 -7.7136 1.0742
v 2.5837 -8.1962 1.0722
v 1.7301 -8.0017 1.0730
v 2.2159 -7.5469 1.0735
v 2.2654 -8.1558 0.8142
v 2.5810 -8.1760 0.8166
v 1.8036 -7.7114 0.8412
v 1.7869 -7.9427 0.8283
v 2.4501 -7.6293 0.8501
v 2.2249 -7.4623 0.8546
v 2.7286 -8.0339 0.8265
v 1.9575 -8.1082 0.8168
v 1.9588 -7.5212 0.8513
v 2.6311 -7.8159 0.8400
v 2.4504 -7.5309 0.6398
v 2.2437 -7.3568 0.6704
v 2.5920 -8.1569 0.4559
v 2.7179 -7.9882 0.5124
v 1.8318 -7.9015 0.5207
v 1.9883 -8.1104 0.4414
v 1.9912 -7.4144 0.6544
v 2.6160 -7.7513 0.5825
v 2.2790 -8.1714 0.4245
v 1.8457 -7.6352 0.5964
v 2.5685 -8.1638 -0.0926
v 2.6752 -7.9436 0.0994
v 1.8542 -7.8634 0.1134
v 1.9843 -8.1717 -0.1278
v 2.2579 -7.2482 0.5235
v 2.0043 -7.2944 0.4864
v 2.6135 -7.6711 0.2769
v 2.2660 -8.2276 -0.1981
v 1.8560 -7.5427 0.3307
v 2.4705 -7.4215 0.4301
v 2.2702 -7.1248 0.4495
v 2.0027 -7.1629 0.3915
v 2.6376 -7.7930 -0.2346
v 2.6380 -7.5317 0.0347
v 1.9648 -7.9965 -0.4228
v 2.2563 -8.0209 -0.5773
v 1.8426 -7.4044 0.1299
v 2.5066 -7.2879 0.2695
v 2.5298 -7.9721 -0.4936
v 1.8861 -7.7187 -0.1586
v 2.5709 -7.5463 -0.3171
v 2.5986 -7.3006 -0.0557
v 2.0332 -7.7172 -0.4483
v 2.2504 -7.7535 -0.5597
v 2.0028 -7.0108 0.3627
v 1.8404 -7.2074 0.0598
v 2.4933 -7.1021 0.2081
v 2.4749 -7.6907 -0.5025
v 1.9092 -7.4973 -0.2325
v 2.2631 -6.9863 0.4236
v 2.4247 -7.3789 -0.4838
v 2.5046 -7.2043 -0.3221
v 1.9066 -7.1827 -0.2372
v 2.0613 -7.3906 -0.4639
v 2.2484 -6.7806 0.4173
v 2.0078 -6.8036 0.3532
v 2.5313 -7.0087 -0.0820
v 2.2443 -7.4221 -0.5404
v 1.8515 -6.9632 0.0203
v 2.4531 -6.8463 0.1900
v 1.7993 -6.7753 -0.1990
v 2.0341 -6.9441 -0.5159
v 2.2062 -6.5649 0.4003
v 1.9591 -6.5962 0.3441
v 2.5218 -6.7699 -0.3261
v 2.5200 -6.6578 -0.0663
v 2.2419 -6.9520 -0.5926
v 1.7838 -6.6929 0.0453
v 2.4256 -6.5748 0.2105
v 2.4248 -6.9297 -0.5210
v -2.1063 -7.7991 2.2230
v -2.2642 -7.9022 2.2624
v -2.3636 -8.0116 2.3000
v -2.2581 -8.0684 2.3273
v -1.9537 -8.0723 2.3289
v -1.8816 -8.0219 2.3040
v -1.9704 -7.9136 2.2668
v -2.3727 -7.9441 2.2736
v -2.0999 -8.0876 2.3358
v -1.8848 -7.9688 2.2833
v 2.1063 -7.7991 2.2230
v 2.2642 -7.9022 2.2624
v 2.3636 -8.0116 2.3000
v 2.2581 -8.0684 2.3273
v 1.9537 -8.0723 2.3289
v 1.8816 -8.0219 2.3040
v 1.9704 -7.9136 2.2668
v 2.3727 -7.9441 2.2736
v 2.0999 -8.0876 2.3358
v 1.8848 -7.9688 2.2833
v -2.1029 -7.7378 2.4067
v -2.2285 -7.8341 2.4438
v -2.2997 -7.9322 2.4783
v -2.2141 -7.9647 2.4948
v -1.9885 -7.9676 2.4959
v -1.9262 -7.9395 2.4811
v -1.9933 -7.8401 2.4461
v -2.3094 -7.8809 2.4582
v -2.0995 -7.9819 2.5022
v -1.9265 -7.8993 2.4654
v 2.1029 -7.7378 2.4067
v 2.2285 -7.8341 2.4438
v 2.2997 -7.9322 2.4783
v 2.2141 -7.9647 2.4948
v 1.9885 -7.9676 2.4959
v 1.9262 -7.9395 2.4811
v 1.9933 -7.8401 2.4461
v 2.3094 -7.8809 2.4582
v 2.0995 -7.9819 2.5022
v 1.9265 -7.8993 2.4654
v -2.1005 -7.6764 2.5580
v -2.1958 -7.7584 2.5926
v -2.2530 -7.8443 2.6325
v -2.1903 -7.8636 2.6448
v -2.0091 -7.8658 2.6459
v -1.9554 -7.8500 2.6352
v -2.0107 -7.7632 2.5946
v -2.2584 -7.8062 2.6133
v -2.0999 -7.8732 2.6498
v -1.9556 -7.8195 2.6202
v 2.1005 -7.6764 2.5580
v 2.1958 -7.7584 2.5926
v 2.2530 -7.8443 2.6325
v 2.1903 -7.8636 2.6448
v 2.0091 -7.8658 2.6459
v 1.9554 -7.8500 2.6352
v 2.0107 -7.7632 2.5946
v 2.2584 -7.8062 2.6133
v 2.0999 -7.8732 2.6498
v 1.9556 -7.8195 2.6202
v -2.1009 -7.5613 2.6444
v -2.1683 -7.5979 2.6769
v -2.2099 -7.6259 2.7454
v -2.1664 -7.6273 2.7611
v -2.0342 -7.6276 2.7626
v -1.9951 -7.6266 2.7497
v -2.0354 -7.5990 2.6800
v -2.2140 -7.6188 2.7135
v -2.1005 -7.6281 2.7663
v -1.9953 -7.6214 2.7232
v 2.1009 -7.5613 2.6444
v 2.1683 -7.5979 2.6769
v 2.2099 -7.6259 2.7454
v 2.1664 -7.6273 2.7611
v 2.0342 -7.6276 2.7626
v 1.9951 -7.6266 2.7497
v 2.0354 -7.5990 2.6800
v 2.2140 -7.6188 2.7135
v 2.1005 -7.6281 2.7663
v 1.9953 -7.6214 2.7232
v -2.1018 -7.4160 2.6734
v -2.1456 -7.4195 2.6982
v -2.1731 -7.4141 2.7540
v -2.1443 -7.4068 2.7641
v -2.0574 -7.4061 2.7651
v -2.0310 -7.4120 2.7567
v -2.0582 -7.4180 2.6998
v -2.1759 -7.4267 2.7267
v -2.1010 -7.4048 2.7650
v -2.0311 -7.4233 2.7330
v 2.1018 -7.4160 2.6734
v 2.1456 -7.4195 2.6982
v 2.1731 -7.4141 2.7540
v 2.1443 -7.4068 2.7641
v 2.0574 -7.4061 2.7651
v 2.0310 -7.4120 2.7567
v 2.0582 -7.4180 2.6998
v 2.1759 -7.4267 2.7267
v 2.1010 -7.4048 2.7650
v 2.0311 -7.4233 2.7330
v -2.1037 -7.2917 2.6155
v -2.1275 -7.2827 2.6318
v -2.1445 -7.2678 2.6630
v -2.1260 -7.2587 2.6583
v -2.0755 -7.2576 2.6593
v -2.0572 -7.2649 2.6656
v -2.0765 -7.2818 2.6331
v -2.1463 -7.2861 2.6459
v -2.1017 -7.2608 2.6502
v -2.0573 -7.2834 2.6500
v 2.1037 -7.2917 2.6155
v 2.1275 -7.2827 2.6318
v 2.1445 -7.2678 2.6630
v 2.1260 -7.2587 2.6583
v 2.0755 -7.2576 2.6593
v 2.0572 -7.2649 2.6656
v 2.0765 -7.2818 2.6331
v 2.1463 -7.2861 2.6459
v 2.1017 -7.2608 2.6502
v 2.0573 -7.2834 2.6500
v -1.9315 -6.6227 -0.5546
v -1.6622 -6.4924 -0.2118
v -1.9737 -6.4106 0.3473
v -2.2605 -6.4211 0.3920
v -2.5914 -6.4159 -0.0037
v -2.5912 -6.4790 -0.2618
v -2.2046 -6.6176 -0.6115
v -1.7651 -6.4476 0.0615
v -2.4911 -6.3836 0.2593
v -2.4542 -6.6157 -0.5126
v 1.6178 -6.4172 -0.1635
v 1.9148 -6.5609 -0.5480
v 2.1721 -6.3701 0.4088
v 1.9194 -6.3867 0.3564
v 2.5430 -6.3629 -0.2582
v 2.5039 -6.2579 -0.0037
v 2.2051 -6.5593 -0.6105
v 1.7035 -6.4102 0.0713
v 2.3955 -6.3056 0.2593
v 2.4152 -6.5478 -0.4947
v -1.8742 -6.1942 -0.5990
v -1.5615 -6.2166 -0.2508
v -1.9311 -6.2422 0.3671
v -2.2428 -6.2622 0.3871
v -2.5765 -6.1208 -0.0152
v -2.5776 -6.1366 -0.2673
v -2.1831 -6.1735 -0.6220
v -1.6970 -6.2266 0.0512
v -2.4762 -6.1582 0.2489
v -2.4399 -6.1831 -0.5290
v 1.5545 -6.2436 -0.1549
v 1.8117 -6.1845 -0.5746
v 2.1681 -6.2525 0.4230
v 1.9110 -6.2374 0.3485
v 2.5296 -6.1381 -0.2637
v 2.4918 -6.0455 -0.0152
v 2.1784 -6.1638 -0.6327
v 1.6931 -6.2122 0.0870
v 2.3915 -6.1370 0.2905
v 2.3979 -6.1734 -0.5091
v -1.8315 -5.8847 -0.7133
v -1.5081 -6.0026 -0.3560
v -1.8812 -6.0069 0.3872
v -2.2096 -6.0305 0.4123
v -2.6153 -5.8087 -0.0373
v -2.6086 -5.7957 -0.2895
v -2.1569 -5.7807 -0.6421
v -1.5995 -5.9706 0.0209
v -2.5176 -5.9255 0.2335
v -2.4182 -5.7957 -0.5460
v 1.4301 -5.9634 -0.0594
v 1.6650 -5.7836 -0.5757
v 2.2193 -6.0305 0.4593
v 1.9205 -6.0069 0.4277
v 2.5395 -5.8672 -0.2859
v 2.5411 -5.8293 -0.0373
v 2.1585 -5.7807 -0.6548
v 1.5634 -5.9584 0.2329
v 2.4814 -5.9255 0.2771
v 2.5002 -5.7939 -0.5312
v -1.6555 -5.2664 -0.9825
v -1.3386 -5.3767 -0.4744
v -1.7395 -5.7131 0.6918
v -2.2174 -5.7612 0.7529
v -2.7735 -5.4147 -0.0533
v -2.7298 -5.2053 -0.3803
v -2.1622 -5.1900 -0.8982
v -1.2402 -5.5537 0.1346
v -2.5827 -5.6004 0.4190
v -2.5418 -5.2272 -0.7388
v 1.1621 -5.5145 -0.1057
v 1.3639 -5.4050 -0.7505
v 2.2578 -5.8113 0.7340
v 1.8090 -5.7623 0.7811
v 2.6552 -5.3106 -0.4159
v 2.6759 -5.4507 -0.0387
v 2.1215 -5.2309 -0.9722
v 1.3868 -5.6004 0.4482
v 2.5863 -5.6479 0.3826
v 2.5174 -5.2688 -0.7722
v -2.1212 -7.8210 2.0976
v -2.1406 -7.7861 1.9328
v -2.3618 -7.9134 1.9327
v -2.3040 -7.9369 2.0967
v -2.4216 -8.0571 2.0890
v -2.4984 -8.0682 1.9297
v -2.3588 -8.1402 1.9334
v -2.3035 -8.1252 2.0948
v -1.9264 -8.1319 2.0951
v -1.9095 -8.1558 1.9343
v -1.7922 -8.0817 1.9323
v -1.8398 -8.0702 2.0902
v -1.9504 -7.9585 2.0974
v -1.9281 -7.9219 1.9334
v -2.4306 -7.9873 2.0897
v -2.5119 -7.9875 1.9294
v -2.1070 -8.1466 2.0962
v -2.1333 -8.1700 1.9345
v -1.8434 -8.0176 2.0913
v -1.7967 -8.0049 1.9319
v -2.6197 -8.0814 1.6759
v -2.4461 -8.1604 1.6794
v -1.8904 -8.1732 1.6814
v -1.7402 -8.0810 1.6805
v -1.9061 -7.8643 1.6790
v -2.1679 -7.7344 1.6786
v -2.6291 -7.9882 1.6759
v -2.1697 -8.1943 1.6811
v -1.7493 -7.9742 1.6794
v -2.4435 -7.8803 1.6786
v -1.8925 -8.1719 1.4878
v -1.7193 -8.0735 1.4871
v -1.8965 -7.8041 1.4831
v -2.1808 -7.6889 1.4826
v -2.6748 -7.9783 1.4842
v -2.6960 -8.0857 1.4844
v -2.2111 -8.1989 1.4874
v -1.7340 -7.9413 1.4850
v -2.4750 -7.8515 1.4844
v -2.5189 -8.1726 1.4863
v -1.9029 -7.7193 1.2863
v -2.1992 -7.6300 1.2847
v -2.6726 -7.9421 1.2899
v -2.7252 -8.0744 1.2907
v -2.2247 -8.1945 1.2926
v -1.8864 -8.1642 1.2935
v -1.7300 -7.8796 1.2902
v -2.4806 -7.8022 1.2878
v -2.5506 -8.1769 1.2917
v -1.7046 -8.0482 1.2931
v -2.6588 -7.8854 1.0726
v -2.7393 -8.0674 1.0732
v -2.2527 -8.1677 1.0736
v -1.9192 -8.1316 1.0750
v -1.7668 -7.8005 1.0738
v -1.9323 -7.6293 1.0706
v -2.4684 -7.7237 1.0713
v -2.5795 -8.1839 1.0731
v -1.7418 -7.9970 1.0760
v -2.2138 -7.5590 1.0692
v -2.5745 -8.1481 0.8178
v -2.2665 -8.1429 0.8149
v -1.7990 -7.9386 0.8309
v -1.8156 -7.7163 0.8415
v -2.2224 -7.4739 0.8492
v -2.4417 -7.6386 0.8468
v -2.7142 -8.0158 0.8275
v -1.9634 -8.0967 0.8186
v -1.9658 -7.5316 0.8478
v -2.6203 -7.8231 0.8390
v -2.2407 -7.3675 0.6637
v -2.4409 -7.5389 0.6357
v -2.6953 -7.9768 0.5129
v -2.5757 -8.1383 0.4564
v -1.9954 -8.0995 0.4415
v -1.8443 -7.8980 0.5217
v -1.9988 -7.4239 0.6498
v -2.6028 -7.7556 0.5812
v -2.2779 -8.1568 0.4241
v -1.8580 -7.6392 0.5961
v -2.6527 -7.9341 0.1004
v -2.5508 -8.1307 -0.0651
v -1.9922 -8.1616 -0.1258
v -1.8669 -7.8606 0.1142
v -2.0126 -7.3019 0.4797
v -2.2545 -7.2569 0.5144
v -2.5995 -7.6730 0.2752
v -2.2638 -8.1929 -0.1700
v -1.8687 -7.5451 0.3295
v -2.4601 -7.4274 0.4249
v -2.0113 -7.1668 0.3826
v -2.2663 -7.1298 0.4381
v -2.6252 -7.5338 0.0338
v -2.6234 -7.7908 -0.2314
v -2.2564 -8.0144 -0.5660
v -1.9740 -7.9914 -0.4152
v -1.8555 -7.4055 0.1289
v -2.4955 -7.2915 0.2638
v -2.5195 -7.9349 -0.4643
v -1.8987 -7.7181 -0.1555
v -2.5859 -7.3031 -0.0554
v -2.5591 -7.5482 -0.3120
v -2.2515 -7.7540 -0.5467
v -2.0421 -7.7177 -0.4388
v -1.8533 -7.2080 0.0586
v -2.0112 -7.0122 0.3529
v -2.4819 -7.1048 0.2023
v -2.4672 -7.6918 -0.4921
v -1.9212 -7.4975 -0.2276
v -2.2593 -6.9883 0.4113
v -2.4924 -7.2051 -0.3177
v -2.4168 -7.3795 -0.4735
v -2.0698 -7.3901 -0.4540
v -1.9236 -7.1897 -0.2325
v -2.0157 -6.8037 0.3428
v -2.2452 -6.7811 0.4047
v -2.5183 -7.0097 -0.0826
v -2.2451 -7.4218 -0.5274
v -1.8643 -6.9621 0.0180
v -2.4417 -6.8468 0.1837
v -2.0471 -6.9594 -0.5052
v -1.8389 -6.8165 -0.2061
v -2.0043 -6.5978 0.3290
v -2.2486 -6.5742 0.3833
v -2.5212 -6.6855 -0.0682
v -2.5151 -6.7881 -0.3231
v -2.2400 -6.9605 -0.5796
v -1.8121 -6.7029 0.0406
v -2.4603 -6.5829 0.2278
v -2.4229 -6.9387 -0.5149
v 2.1212 -7.8210 2.0976
v 2.3040 -7.9369 2.0967
v 2.3618 -7.9134 1.9327
v 2.1406 -7.7861 1.9328
v 2.4216 -8.0571 2.0890
v 2.3035 -8.1252 2.0948
v 2.3588 -8.1402 1.9334
v 2.4984 -8.0682 1.9297
v 1.9264 -8.1319 2.0951
v 1.8398 -8.0702 2.0902
v 1.7922 -8.0817 1.9323
v 1.9095 -8.1558 1.9343
v 1.9504 -7.9585 2.0974
v 1.9281 -7.9219 1.9334
v 2.4306 -7.9873 2.0897
v 2.5119 -7.9875 1.9294
v 2.1070 -8.1466 2.0962
v 2.1333 -8.1700 1.9345
v 1.8434 -8.0176 2.0913
v 1.7967 -8.0049 1.9319
v 2.4461 -8.1604 1.6794
v 2.6197 -8.0814 1.6759
v 1.7402 -8.0810 1.6805
v 1.8904 -8.1732 1.6814
v 2.1679 -7.7344 1.6786
v 1.9061 -7.8643 1.6790
v 2.6291 -7.9882 1.6759
v 2.1697 -8.1943 1.6811
v 1.7493 -7.9742 1.6794
v 2.4435 -7.8803 1.6786
v 1.7193 -8.0735 1.4871
v 1.8925 -8.1719 1.4878
v 2.1808 -7.6889 1.4826
v 1.8965 -7.8041 1.4831
v 2.6960 -8.0857 1.4844
v 2.6748 -7.9783 1.4842
v 2.2111 -8.1989 1.4874
v 1.7340 -7.9413 1.4850
v 2.4750 -7.8515 1.4844
v 2.5189 -8.1726 1.4863
v 2.1992 -7.6300 1.2847
v 1.9029 -7.7193 1.2863
v 2.7252 -8.0744 1.2907
v 2.6726 -7.9421 1.2899
v 1.8864 -8.1642 1.2935
v 2.2247 -8.1945 1.2926
v 1.7300 -7.8796 1.2902
v 2.4806 -7.8022 1.2878
v 2.5506 -8.1769 1.2917
v 1.7046 -8.0482 1.2931
v 2.7392 -8.0675 1.0730
v 2.6587 -7.8854 1.0727
v 1.9192 -8.1316 1.0750
v 2.2528 -8.1677 1.0735
v 1.9323 -7.6293 1.0706
v 1.7668 -7.8005 1.0738
v 2.4684 -7.7237 1.0713
v 2.5796 -8.1839 1.0729
v 1.7418 -7.9970 1.0760
v 2.2138 -7.5590 1.0692
v 2.2667 -8.1429 0.8149
v 2.5764 -8.1639 0.8176
v 1.8156 -7.7163 0.8415
v 1.7990 -7.9386 0.8309
v 2.4417 -7.6386 0.8468
v 2.2224 -7.4739 0.8492
v 2.7159 -8.0315 0.8273
v 1.9634 -8.0967 0.8186
v 1.9658 -7.5316 0.8478
v 2.6203 -7.8231 0.8389
v 2.4409 -7.5389 0.6357
v 2.2407 -7.3675 0.6637
v 2.5855 -8.1456 0.4563
v 2.7050 -7.9866 0.5128
v 1.8443 -7.8980 0.5217
v 1.9955 -8.0996 0.4414
v 1.9988 -7.4239 0.6498
v 2.6045 -7.7573 0.5811
v 2.2798 -8.1584 0.4240
v 1.8580 -7.6392 0.5961
v 2.5605 -8.1539 -0.0901
v 2.6624 -7.9418 0.1003
v 1.8669 -7.8606 0.1142
v 1.9924 -8.1618 -0.1258
v 2.2545 -7.2569 0.5144
v 2.0126 -7.3019 0.4797
v 2.6012 -7.6748 0.2752
v 2.2661 -8.2150 -0.1949
v 1.8687 -7.5451 0.3295
v 2.4601 -7.4274 0.4249
v 2.2663 -7.1298 0.4381
v 2.0113 -7.1668 0.3826
v 2.6250 -7.7928 -0.2314
v 2.6252 -7.5340 0.0339
v 1.9742 -7.9916 -0.4152
v 2.2569 -8.0148 -0.5658
v 1.8555 -7.4055 0.1289
v 2.4955 -7.2915 0.2638
v 2.5215 -7.9675 -0.4848
v 1.8987 -7.7181 -0.1555
v 2.5591 -7.5483 -0.3120
v 2.5859 -7.3031 -0.0554
v 2.0421 -7.7177 -0.4388
v 2.2517 -7.7542 -0.5468
v 2.0112 -7.0122 0.3529
v 1.8533 -7.2080 0.0586
v 2.4819 -7.1048 0.2023
v 2.4673 -7.6920 -0.4921
v 1.9212 -7.4975 -0.2277
v 2.2593 -6.9883 0.4113
v 2.4167 -7.3795 -0.4735
v 2.4925 -7.2052 -0.3177
v 1.9187 -7.1816 -0.2325
v 2.0697 -7.3900 -0.4540
v 2.2446 -6.7815 0.4049
v 2.0155 -6.8031 0.3427
v 2.5184 -7.0100 -0.0826
v 2.2451 -7.4218 -0.5274
v 1.8642 -6.9617 0.0178
v 2.4417 -6.8477 0.1838
v 1.8114 -6.7714 -0.1962
v 2.0419 -6.9419 -0.5058
v 2.2030 -6.5649 0.3877
v 1.9664 -6.5943 0.3335
v 2.5092 -6.7700 -0.3228
v 2.5072 -6.6579 -0.0685
v 2.2413 -6.9510 -0.5796
v 1.7954 -6.6891 0.0408
v 2.4147 -6.5752 0.2034
v 2.4159 -6.9295 -0.5115
v -2.1073 -7.8119 2.2250
v -2.2578 -7.9134 2.2638
v -2.3535 -8.0057 2.2945
v -2.2542 -8.0574 2.3217
v -1.9582 -8.0615 2.3233
v -1.8928 -8.0171 2.2995
v -1.9784 -7.9236 2.2687
v -2.3618 -7.9509 2.2716
v -2.0998 -8.0759 2.3302
v -1.8961 -7.9753 2.2826
v 2.1073 -7.8119 2.2250
v 2.2578 -7.9134 2.2638
v 2.3535 -8.0057 2.2945
v 2.2542 -8.0574 2.3217
v 1.9582 -8.0615 2.3233
v 1.8928 -8.0171 2.2995
v 1.9784 -7.9236 2.2687
v 2.3618 -7.9509 2.2716
v 2.0998 -8.0759 2.3302
v 1.8961 -7.9753 2.2826
v -2.1035 -7.7501 2.4108
v -2.2210 -7.8444 2.4467
v -2.2899 -7.9265 2.4719
v -2.2106 -7.9545 2.4876
v -1.9924 -7.9574 2.4888
v -1.9371 -7.9347 2.4759
v -2.0023 -7.8491 2.4491
v -2.2981 -7.8872 2.4572
v -2.0993 -7.9712 2.4948
v -1.9382 -7.9050 2.4657
v 2.1035 -7.7501 2.4108
v 2.2210 -7.8444 2.4467
v 2.2899 -7.9265 2.4719
v 2.2106 -7.9545 2.4876
v 1.9924 -7.9574 2.4888
v 1.9371 -7.9347 2.4759
v 2.0023 -7.8491 2.4491
v 2.2981 -7.8872 2.4572
v 2.0993 -7.9712 2.4948
v 1.9382 -7.9050 2.4657
v -2.1010 -7.6863 2.5664
v -2.1875 -7.7665 2.5984
v -2.2439 -7.8394 2.6247
v -2.1874 -7.8555 2.6351
v -2.0120 -7.8577 2.6362
v -1.9653 -7.8455 2.6281
v -2.0201 -7.7703 2.6001
v -2.2463 -7.8109 2.6133
v -2.0998 -7.8648 2.6399
v -1.9679 -7.8237 2.6212
v 2.1010 -7.6863 2.5664
v 2.1875 -7.7665 2.5984
v 2.2439 -7.8394 2.6247
v 2.1874 -7.8555 2.6351
v 2.0120 -7.8577 2.6362
v 1.9653 -7.8455 2.6281
v 2.0201 -7.7703 2.6001
v 2.2463 -7.8109 2.6133
v 2.0998 -7.8648 2.6399
v 1.9679 -7.8237 2.6212
v -2.1012 -7.5659 2.6566
v -2.1602 -7.6022 2.6861
v -2.2004 -7.6249 2.7366
v -2.1638 -7.6246 2.7486
v -2.0366 -7.6250 2.7501
v -2.0050 -7.6259 2.7413
v -2.0444 -7.6030 2.6885
v -2.2018 -7.6221 2.7165
v -2.1003 -7.6252 2.7536
v -2.0075 -7.6245 2.7264
v 2.1012 -7.5659 2.6566
v 2.1602 -7.6022 2.6861
v 2.2004 -7.6249 2.7366
v 2.1638 -7.6246 2.7486
v 2.0366 -7.6250 2.7501
v 2.0050 -7.6259 2.7413
v 2.0444 -7.6030 2.6885
v 2.2018 -7.6221 2.7165
v 2.1003 -7.6252 2.7536
v 2.0075 -7.6245 2.7264
v -2.1021 -7.4144 2.6863
v -2.1379 -7.4184 2.7086
v -2.1636 -7.4176 2.7459
v -2.1423 -7.4109 2.7519
v -2.0588 -7.4103 2.7529
v -2.0407 -7.4154 2.7487
v -2.0667 -7.4171 2.7096
v -2.1637 -7.4283 2.7308
v -2.1008 -7.4090 2.7527
v -2.0434 -7.4246 2.7372
v 2.1021 -7.4144 2.6863
v 2.1379 -7.4184 2.7086
v 2.1636 -7.4176 2.7459
v 2.1423 -7.4109 2.7519
v 2.0588 -7.4103 2.7529
v 2.0407 -7.4154 2.7487
v 2.0667 -7.4171 2.7096
v 2.1637 -7.4283 2.7308
v 2.1008 -7.4090 2.7527
v 2.0434 -7.4246 2.7372
v -2.1037 -7.2926 2.6284
v -2.1213 -7.2866 2.6425
v -2.1351 -7.2766 2.6608
v -2.1223 -7.2710 2.6566
v -2.0791 -7.2700 2.6578
v -2.0666 -7.2736 2.6633
v -2.0830 -7.2854 2.6437
v -2.1357 -7.2884 2.6531
v -2.1016 -7.2738 2.6507
v -2.0681 -7.2855 2.6570
v 2.1037 -7.2926 2.6284
v 2.1213 -7.2866 2.6425
v 2.1351 -7.2766 2.6608
v 2.1223 -7.2710 2.6566
v 2.0791 -7.2700 2.6578
v 2.0666 -7.2736 2.6633
v 2.0830 -7.2854 2.6437
v 2.1357 -7.2884 2.6531
v 2.1016 -7.2738 2.6507
v 2.0681 -7.2855 2.6570
v -1.9387 -6.6197 -0.5442
v -1.6744 -6.4882 -0.2103
v -1.9801 -6.4090 0.3361
v -2.2577 -6.4207 0.3793
v -2.5787 -6.4150 -0.0062
v -2.5785 -6.4781 -0.2592
v -2.2036 -6.6168 -0.5986
v -1.7762 -6.4445 0.0555
v -2.4811 -6.3832 0.2510
v -2.4453 -6.6153 -0.5031
v 1.6300 -6.4131 -0.1623
v 1.9222 -6.5581 -0.5377
v 2.1697 -6.3692 0.3961
v 1.9264 -6.3852 0.3456
v 2.5302 -6.3632 -0.2558
v 2.4913 -6.2582 -0.0068
v 2.2035 -6.5586 -0.5976
v 1.7146 -6.4072 0.0653
v 2.3852 -6.3052 0.2514
v 2.4061 -6.5482 -0.4854
v -1.8794 -6.1910 -0.5875
v -1.5738 -6.2126 -0.2493
v -1.9373 -6.2399 0.3559
v -2.2400 -6.2619 0.3744
v -2.5637 -6.1204 -0.0174
v -2.5651 -6.1364 -0.2639
v -2.1808 -6.1725 -0.6093
v -1.7081 -6.2235 0.0450
v -2.4664 -6.1582 0.2404
v -2.4315 -6.1829 -0.5191
v 1.5666 -6.2390 -0.1537
v 1.8186 -6.1822 -0.5638
v 2.1659 -6.2505 0.4104
v 1.9175 -6.2347 0.3376
v 2.5167 -6.1375 -0.2618
v 2.4790 -6.0441 -0.0174
v 2.1765 -6.1629 -0.6198
v 1.7031 -6.2078 0.0799
v 2.3813 -6.1348 0.2828
v 2.3888 -6.1725 -0.4998
v -1.8349 -5.8800 -0.7017
v -1.5191 -5.9973 -0.3517
v -1.8874 -5.9999 0.3781
v -2.2060 -6.0252 0.4010
v -2.6027 -5.8057 -0.0383
v -2.5965 -5.7932 -0.2853
v -2.1535 -5.7774 -0.6300
v -1.6106 -5.9649 0.0170
v -2.5067 -5.9218 0.2273
v -2.4102 -5.7931 -0.5361
v 1.4412 -5.9565 -0.0593
v 1.6714 -5.7779 -0.5659
v 2.2150 -6.0237 0.4491
v 1.9251 -5.9991 0.4184
v 2.5269 -5.8646 -0.2839
v 2.5286 -5.8259 -0.0379
v 2.1569 -5.7768 -0.6425
v 1.5723 -5.9510 0.2269
v 2.4703 -5.9203 0.2728
v 2.4905 -5.7906 -0.5231
v -1.6584 -5.2609 -0.9711
v -1.3491 -5.3711 -0.4691
v -1.7448 -5.7034 0.6849
v -2.2144 -5.7518 0.7445
v -2.7612 -5.4106 -0.0526
v -2.7184 -5.2015 -0.3752
v -2.1585 -5.1852 -0.8867
v -1.2508 -5.5463 0.1329
v -2.5724 -5.5944 0.4139
v -2.5342 -5.2226 -0.7294
v 1.1725 -5.5067 -0.1041
v 1.3698 -5.3974 -0.7417
v 2.2540 -5.8014 0.7264
v 1.8132 -5.7523 0.7740
v 2.6429 -5.3075 -0.4129
v 2.6635 -5.4468 -0.0383
v 2.1202 -5.2247 -0.9608
v 1.3956 -5.5924 0.4431
v 2.5751 -5.6419 0.3795
v 2.5095 -5.2638 -0.7631
vt 0.3314 0.0645
vt 0.3335 0.0806
vt 0.3169 0.0807
vt 0.3166 0.0647
vt 0.3014 0.0648
vt 0.2981 0.0805
vt 0.2941 0.0795
vt 0.2973 0.0637
vt 0.7787 0.2523
vt 0.7828 0.2484
vt 0.7942 0.2417
vt 0.7879 0.2476
vt 0.9588 0.9174
vt 0.9573 0.9027
vt 0.9809 0.9029
vt 0.9787 0.9181
vt 0.3088 0.0652
vt 0.3064 0.0809
vt 0.7896 0.3609
vt 0.7902 0.3642
vt 0.7692 0.3677
vt 0.7726 0.3641
vt 0.9470 0.9170
vt 0.9426 0.9025
vt 0.2642 0.5984
vt 0.2652 0.5819
vt 0.2756 0.5759
vt 0.2733 0.5932
vt 0.8084 0.3611
vt 0.8118 0.3649
vt 0.8010 0.2463
vt 0.7928 0.2510
vt 0.2934 0.1055
vt 0.2895 0.1044
vt 0.7692 0.3677
vt 0.7648 0.3751
vt 0.7515 0.3855
vt 0.7587 0.3761
vt 0.9560 0.8796
vt 0.9838 0.8792
vt 0.3029 0.1060
vt 0.7908 0.3706
vt 0.9382 0.8793
vt 0.3169 0.0807
vt 0.3173 0.1058
vt 0.8172 0.3711
vt 0.8048 0.2352
vt 0.8137 0.2416
vt 0.3367 0.1056
vt 0.7632 0.3820
vt 0.7478 0.3931
vt 0.9561 0.8621
vt 0.9856 0.8612
vt 0.3022 0.1249
vt 0.2908 0.1244
vt 0.7928 0.3765
vt 0.9370 0.8614
vt 0.3185 0.1249
vt 0.8220 0.3761
vt 0.8126 0.2322
vt 0.8233 0.2402
vt 0.3399 0.1248
vt 0.2861 0.1234
vt 0.9584 0.8446
vt 0.9882 0.8432
vt 0.3049 0.1441
vt 0.2906 0.1435
vt 0.7922 0.3836
vt 0.7609 0.3896
vt 0.9377 0.8437
vt 0.3221 0.1442
vt 0.8230 0.3822
vt 0.9316 0.8592
vt 0.9302 0.8411
vt 0.3441 0.1443
vt 0.8404 0.3829
vt 0.8415 0.3906
vt 0.7449 0.4024
vt 0.3096 0.1654
vt 0.2901 0.1649
vt 0.7930 0.3935
vt 0.7622 0.3999
vt 0.9424 0.8239
vt 0.9628 0.8252
vt 0.3287 0.1656
vt 0.8236 0.3890
vt 0.9342 0.8207
vt 0.3495 0.1656
vt 0.2822 0.1638
vt 0.2843 0.1425
vt 0.7470 0.4144
vt 0.9908 0.8236
vt 0.7700 0.2673
vt 0.7787 0.2523
vt 0.7754 0.2603
vt 0.7680 0.2720
vt 0.7216 0.2637
vt 0.7287 0.2663
vt 0.7234 0.2757
vt 0.7168 0.2740
vt 0.2196 0.6550
vt 0.2277 0.6544
vt 0.2224 0.6728
vt 0.2155 0.6714
vt 0.7112 0.2715
vt 0.7076 0.2811
vt 0.8212 0.4012
vt 0.7922 0.4046
vt 0.9400 0.7978
vt 0.9482 0.8027
vt 0.3562 0.1873
vt 0.3362 0.1876
vt 0.8408 0.3987
vt 0.8369 0.4123
vt 0.7643 0.4116
vt 0.7507 0.4277
vt 0.9676 0.8053
vt 0.9932 0.8041
vt 0.3152 0.1883
vt 0.2946 0.1890
vt 0.3648 0.2057
vt 0.3444 0.2085
vt 0.2846 0.1888
vt 0.2946 0.1890
vt 0.2974 0.2196
vt 0.2842 0.2239
vt 0.7635 0.4242
vt 0.7525 0.4418
vt 0.9728 0.7880
vt 0.9972 0.7881
vt 0.3207 0.2136
vt 0.7894 0.4168
vt 0.9532 0.7802
vt 0.8182 0.4147
vt 0.9440 0.7687
vt 0.3007 0.2597
vt 0.2836 0.2747
vt 0.2696 0.6551
vt 0.2709 0.6760
vt 0.2642 0.6608
vt 0.2709 0.6391
vt 0.4179 0.6933
vt 0.4411 0.6862
vt 0.4443 0.7017
vt 0.4204 0.7073
vt 0.3269 0.2436
vt 0.7821 0.4345
vt 0.7570 0.4386
vt 0.9558 0.7563
vt 0.9768 0.7738
vt 0.3532 0.2294
vt 0.8112 0.4340
vt 0.9456 0.7303
vt 0.3739 0.2205
vt 0.4470 0.7163
vt 0.4213 0.7208
vt 0.3381 0.2678
vt 0.3133 0.2928
vt 0.7799 0.4653
vt 0.7547 0.4648
vt 0.4610 0.6810
vt 0.4674 0.6988
vt 0.3641 0.2458
vt 0.8072 0.4665
vt 0.9515 0.7064
vt 0.9578 0.7395
vt 0.3847 0.2283
vt 0.3011 0.3149
vt 0.9474 0.7010
vt 0.9496 0.6759
vt 0.3598 0.2776
vt 0.3369 0.3017
vt 0.7830 0.4889
vt 0.7644 0.4903
vt 0.4697 0.7190
vt 0.4480 0.7313
vt 0.3812 0.2526
vt 0.8052 0.4905
vt 0.9597 0.7028
vt 0.9630 0.7361
vt 0.3975 0.2315
vt 0.3249 0.3187
vt 0.9636 0.6774
vt 0.4229 0.7343
vt 0.3696 0.3036
vt 0.3547 0.3182
vt 0.7578 0.5038
vt 0.7644 0.4903
vt 0.7712 0.5201
vt 0.7620 0.5316
vt 0.4482 0.7510
vt 0.4248 0.7536
vt 0.3879 0.2813
vt 0.7870 0.5182
vt 0.4701 0.7429
vt 0.4054 0.2554
vt 0.8048 0.5185
vt 0.9687 0.7074
vt 0.9708 0.7362
vt 0.4166 0.2330
vt 0.7742 0.5608
vt 0.7593 0.5649
vt 0.4499 0.7704
vt 0.4254 0.7734
vt 0.4173 0.2813
vt 0.4071 0.3060
vt 0.7922 0.5617
vt 0.4747 0.7660
vt 0.4292 0.2523
vt 0.8108 0.5596
vt 0.4704 0.7286
vt 0.4782 0.7618
vt 0.4353 0.2360
vt 0.3946 0.3243
vt 0.9107 0.6076
vt 0.8904 0.6064
vt 0.8860 0.5916
vt 0.9100 0.5927
vt 0.7172 0.2643
vt 0.7286 0.2549
vt 0.2380 0.6555
vt 0.2337 0.6545
vt 0.2361 0.6390
vt 0.2409 0.6397
vt 0.2196 0.6550
vt 0.2030 0.6553
vt 0.1997 0.6394
vt 0.2170 0.6391
vt 0.7367 0.2576
vt 0.6920 0.3601
vt 0.7089 0.3641
vt 0.7079 0.3672
vt 0.6869 0.3627
vt 0.2278 0.6387
vt 0.8771 0.6056
vt 0.8698 0.5908
vt 0.6734 0.3593
vt 0.6656 0.3622
vt 0.7269 0.2532
vt 0.7401 0.2411
vt 0.2376 0.6142
vt 0.2433 0.6150
vt 0.1949 0.6147
vt 0.2126 0.6141
vt 0.7490 0.2446
vt 0.7054 0.3739
vt 0.6794 0.3679
vt 0.2265 0.6139
vt 0.8594 0.5671
vt 0.8796 0.5683
vt 0.6533 0.3672
vt 0.9091 0.5695
vt 0.7054 0.3739
vt 0.7191 0.3851
vt 0.7176 0.3922
vt 0.7018 0.3801
vt 0.9295 0.5658
vt 0.9091 0.5695
vt 0.9092 0.5517
vt 0.9322 0.5482
vt 0.7488 0.2322
vt 0.7578 0.2391
vt 0.6723 0.3731
vt 0.2076 0.5949
vt 0.2242 0.5948
vt 0.8557 0.5491
vt 0.8777 0.5504
vt 0.6434 0.3711
vt 0.2377 0.5952
vt 0.7348 0.2443
vt 0.9092 0.5340
vt 0.9340 0.5309
vt 0.8557 0.5491
vt 0.8503 0.5471
vt 0.8481 0.5288
vt 0.8570 0.5311
vt 0.6989 0.3871
vt 0.6677 0.3794
vt 0.2001 0.5756
vt 0.2190 0.5756
vt 0.8786 0.5326
vt 0.6371 0.3764
vt 0.2360 0.5761
vt 0.6255 0.3771
vt 0.6193 0.3839
vt 0.7154 0.4009
vt 0.8471 0.5081
vt 0.8599 0.5112
vt 0.6919 0.3965
vt 0.6611 0.3884
vt 0.1916 0.5545
vt 0.2114 0.5544
vt 0.8819 0.5132
vt 0.6306 0.3823
vt 0.2309 0.5548
vt 0.9099 0.5148
vt 0.6141 0.3913
vt 0.7077 0.4120
vt 0.9340 0.5121
vt 0.3055 0.0416
vt 0.3084 0.0448
vt 0.2273 0.6750
vt 0.9122 0.6195
vt 0.8951 0.6222
vt 0.2303 0.6778
vt 0.6552 0.3986
vt 0.6263 0.3922
vt 0.2031 0.5317
vt 0.2247 0.5311
vt 0.8867 0.4932
vt 0.9116 0.4955
vt 0.6117 0.4028
vt 0.6978 0.4243
vt 0.6832 0.4072
vt 0.9339 0.4928
vt 0.8503 0.4851
vt 0.8652 0.4898
vt 0.1824 0.5327
vt 0.8895 0.4749
vt 0.9129 0.4799
vt 0.6189 0.4052
vt 0.6069 0.4170
vt 0.2247 0.5311
vt 0.2205 0.5012
vt 0.2366 0.4946
vt 0.2363 0.5310
vt 0.9340 0.4760
vt 0.8527 0.4559
vt 0.8685 0.4663
vt 0.6739 0.4184
vt 0.6473 0.4093
vt 0.1723 0.5134
vt 0.1957 0.5079
vt 0.6116 0.4222
vt 0.6033 0.4346
vt 0.2173 0.4616
vt 0.2433 0.4395
vt 0.7198 0.0361
vt 0.7280 0.0481
vt 0.7062 0.0527
vt 0.6971 0.0394
vt 0.8580 0.4171
vt 0.8711 0.4386
vt 0.6649 0.4308
vt 0.6382 0.4239
vt 0.1613 0.4968
vt 0.1875 0.4819
vt 0.8909 0.4569
vt 0.7341 0.0144
vt 0.7447 0.0273
vt 0.7343 0.0601
vt 0.7121 0.0663
vt 0.8657 0.3877
vt 0.8729 0.4180
vt 0.6602 0.4563
vt 0.6309 0.4548
vt 0.1494 0.4872
vt 0.1754 0.4619
vt 0.7553 0.0029
vt 0.7680 0.0190
vt 0.7559 0.0410
vt 0.7447 0.0273
vt 0.6067 0.4528
vt 0.2039 0.4349
vt 0.5997 0.4594
vt 0.2282 0.4103
vt 0.8787 0.3839
vt 0.8829 0.4133
vt 0.6511 0.4815
vt 0.6295 0.4786
vt 0.1355 0.4840
vt 0.1575 0.4546
vt 0.7730 0.0426
vt 0.7612 0.0592
vt 0.6093 0.4794
vt 0.1832 0.4272
vt 0.7379 0.0732
vt 0.8705 0.3592
vt 0.8833 0.3631
vt 0.2012 0.4073
vt 0.7168 0.0805
vt 0.8966 0.3702
vt 0.8942 0.3892
vt 0.1544 0.4259
vt 0.1707 0.4050
vt 0.7420 0.0924
vt 0.7227 0.0992
vt 0.8972 0.4157
vt 0.6456 0.5113
vt 0.6276 0.5083
vt 0.1164 0.4826
vt 0.1350 0.4501
vt 0.7753 0.0716
vt 0.7646 0.0839
vt 0.6116 0.5079
vt 0.1192 0.4281
vt 0.1304 0.3986
vt 0.7442 0.1134
vt 0.7239 0.1196
vt 0.9048 0.3966
vt 0.9080 0.4234
vt 0.6435 0.5539
vt 0.6231 0.5527
vt 0.0984 0.4809
vt 0.1115 0.4516
vt 0.7826 0.1032
vt 0.7684 0.1088
vt 0.6073 0.5499
vt 0.9091 0.3747
vt 0.2148 0.6905
vt 0.2080 0.6887
vt 0.3330 0.0525
vt 0.3203 0.0487
vt 0.3280 0.0313
vt 0.3394 0.0349
vt 0.2197 0.6938
vt 0.2185 0.6921
vt 0.8842 0.6231
vt 0.8951 0.6222
vt 0.9002 0.6406
vt 0.8916 0.6415
vt 0.7754 0.2603
vt 0.7830 0.2564
vt 0.7818 0.2655
vt 0.7766 0.2696
vt 0.2023 0.6673
vt 0.1964 0.6849
vt 0.7878 0.2590
vt 0.7855 0.2673
vt 0.7203 0.2858
vt 0.7152 0.2847
vt 0.9782 0.9302
vt 0.9629 0.9337
vt 0.7023 0.2880
vt 0.7002 0.2941
vt 0.2737 0.6121
vt 0.2656 0.6150
vt 0.3143 0.0477
vt 0.9537 0.9352
vt 0.6962 0.3592
vt 0.7094 0.3629
vt 0.7921 0.3592
vt 0.8069 0.3598
vt 0.7678 0.2888
vt 0.7708 0.2783
vt 0.7744 0.2847
vt 0.7717 0.2928
vt 0.2148 0.6905
vt 0.2185 0.6921
vt 0.2093 0.7069
vt 0.2066 0.7054
vt 0.3221 0.0299
vt 0.3177 0.0277
vt 0.3273 0.0130
vt 0.3306 0.0151
vt 0.7090 0.2910
vt 0.7152 0.2847
vt 0.7156 0.2941
vt 0.7114 0.2989
vt 0.9678 0.9518
vt 0.9804 0.9487
vt 0.9825 0.9642
vt 0.9721 0.9671
vt 0.7033 0.3003
vt 0.7073 0.3064
vt 0.9601 0.9533
vt 0.9656 0.9691
vt 0.7008 0.3105
vt 0.7049 0.3146
vt 0.2756 0.6315
vt 0.2699 0.6333
vt 0.7708 0.2783
vt 0.9142 0.6381
vt 0.6965 0.3074
vt 0.7002 0.2941
vt 0.7634 0.2863
vt 0.3165 0.0257
vt 0.9052 0.6559
vt 0.9160 0.6536
vt 0.9192 0.6639
vt 0.9121 0.6667
vt 0.7744 0.2847
vt 0.7788 0.2774
vt 0.7926 0.2917
vt 0.7897 0.2973
vt 0.3362 0.0171
vt 0.3306 0.0151
vt 0.3491 0.0061
vt 0.3518 0.0096
vt 0.2003 0.7029
vt 0.2066 0.7054
vt 0.1874 0.7150
vt 0.1846 0.7109
vt 0.3456 0.0205
vt 0.3565 0.0127
vt 0.7046 0.3198
vt 0.7049 0.3146
vt 0.7213 0.3236
vt 0.7204 0.3269
vt 0.8982 0.6574
vt 0.9074 0.6701
vt 0.7826 0.2735
vt 0.7946 0.2883
vt 0.7674 0.2974
vt 0.7711 0.2989
vt 0.7195 0.2950
vt 0.7854 0.2748
vt 0.7826 0.2735
vt 0.2003 0.7029
vt 0.1905 0.6995
vt 0.2096 0.7082
vt 0.6382 0.3073
vt 0.6310 0.3104
vt 0.6354 0.2951
vt 0.6399 0.2951
vt 0.9752 0.9843
vt 0.9753 0.9818
vt 0.9842 0.9857
vt 0.9846 0.9881
vt 0.6143 0.3198
vt 0.6171 0.3202
vt 0.6110 0.3282
vt 0.6083 0.3282
vt 0.7862 0.3065
vt 0.7873 0.3029
vt 0.8054 0.3114
vt 0.8040 0.3134
vt 0.7897 0.2973
vt 0.8072 0.3078
vt 0.1874 0.7150
vt 0.1878 0.7176
vt 0.1673 0.7178
vt 0.1684 0.7155
vt 0.3491 0.0061
vt 0.3486 0.0029
vt 0.3688 0.0030
vt 0.3675 0.0056
vt 0.7260 0.3121
vt 0.7281 0.3082
vt 0.7437 0.3203
vt 0.7430 0.3233
vt 0.7234 0.3178
vt 0.9794 0.9777
vt 0.9753 0.9818
vt 0.7260 0.3121
vt 0.9862 0.9743
vt 0.7299 0.3078
vt 0.9648 0.9701
vt 0.1798 0.7075
vt 0.6234 0.2963
vt 0.6198 0.2950
vt 0.6208 0.2817
vt 0.6230 0.2816
vt 0.7416 0.3271
vt 0.7430 0.3233
vt 0.7578 0.3299
vt 0.7570 0.3319
vt 0.6254 0.2981
vt 0.6246 0.2824
vt 0.7399 0.3309
vt 0.7561 0.3344
vt 0.6433 0.2971
vt 0.6399 0.2951
vt 0.6430 0.2822
vt 0.6450 0.2824
vt 0.8072 0.3078
vt 0.8089 0.3041
vt 0.8233 0.3117
vt 0.8223 0.3137
vt 0.6153 0.2958
vt 0.6120 0.2971
vt 0.6163 0.2819
vt 0.6183 0.2812
vt 0.6354 0.2951
vt 0.6322 0.2961
vt 0.6382 0.2815
vt 0.6403 0.2812
vt 0.8098 0.3015
vt 0.8089 0.3041
vt 0.6464 0.3169
vt 0.6432 0.3130
vt 0.6433 0.2971
vt 0.6454 0.2992
vt 0.7399 0.3309
vt 0.7388 0.3328
vt 0.6199 0.3073
vt 0.6131 0.3112
vt 0.6153 0.2958
vt 0.6198 0.2950
vt 0.1674 0.7124
vt 0.6083 0.3139
vt 0.9867 0.9824
vt 0.6254 0.3124
vt 0.9920 0.9781
vt 0.9941 0.9760
vt 0.9949 0.9798
vt 0.9927 0.9810
vt 0.9903 0.9798
vt 0.9909 0.9816
vt 0.9972 0.9804
vt 0.9965 0.9775
vt 0.3825 0.0124
vt 0.3837 0.0128
vt 0.3814 0.0153
vt 0.3807 0.0140
vt 0.6149 0.3428
vt 0.6120 0.3429
vt 0.6132 0.3406
vt 0.6171 0.3404
vt 0.1552 0.7072
vt 0.1535 0.7086
vt 0.1524 0.7081
vt 0.1547 0.7056
vt 0.6128 0.3383
vt 0.6157 0.3381
vt 0.6128 0.3363
vt 0.6148 0.3360
vt 0.7575 0.3280
vt 0.8212 0.3160
vt 0.8196 0.3171
vt 0.8233 0.3099
vt 0.6464 0.2835
vt 0.7546 0.3358
vt 0.0901 0.4299
vt 0.0978 0.3940
vt 0.8173 0.5882
vt 0.7932 0.5937
vt 0.4412 0.2766
vt 0.4345 0.3014
vt 0.0872 0.4530
vt 0.4473 0.2509
vt 0.4239 0.3247
vt 0.0800 0.4814
vt 0.6229 0.5895
vt 0.6054 0.5839
vt 0.4939 0.7911
vt 0.4780 0.7894
vt 0.7459 0.1319
vt 0.7254 0.1395
vt 0.6507 0.5914
vt 0.4093 0.7784
vt 0.4254 0.7734
vt 0.4250 0.7880
vt 0.4073 0.7968
vt 0.4522 0.7876
vt 0.7683 0.5938
vt 0.7483 0.5961
vt 0.9207 0.3839
vt 0.9143 0.4104
vt 0.7826 0.1032
vt 0.7877 0.0977
vt 0.7976 0.1324
vt 0.7894 0.1386
vt 0.7711 0.1332
vt 0.0755 0.4301
vt 0.0654 0.3900
vt 0.7741 0.1479
vt 0.7481 0.1424
vt 0.7286 0.1533
vt 0.6217 0.6265
vt 0.6037 0.6186
vt 0.4271 0.8028
vt 0.4094 0.8180
vt 0.8022 0.1532
vt 0.7940 0.1583
vt 0.0665 0.4802
vt 0.0693 0.4540
vt 0.9327 0.3891
vt 0.9217 0.4139
vt 0.4685 0.2791
vt 0.4661 0.3035
vt 0.4559 0.8025
vt 0.5045 0.8170
vt 0.4849 0.8098
vt 0.8215 0.6279
vt 0.7969 0.6344
vt 0.4638 0.3282
vt 0.7682 0.6346
vt 0.7422 0.6233
vt 0.4682 0.2529
vt 0.6567 0.6279
vt 0.5124 0.8392
vt 0.4950 0.8336
vt 0.8244 0.6637
vt 0.7994 0.6708
vt 0.4966 0.3073
vt 0.4997 0.3316
vt 0.7672 0.6669
vt 0.7391 0.6468
vt 0.4605 0.8236
vt 0.8042 0.1766
vt 0.7874 0.1643
vt 0.4886 0.2557
vt 0.4963 0.2828
vt 0.6668 0.6665
vt 0.6200 0.6623
vt 0.0522 0.4381
vt 0.0317 0.3883
vt 0.7570 0.1601
vt 0.7328 0.1724
vt 0.5907 0.6524
vt 0.4299 0.8236
vt 0.4065 0.8406
vt 0.8105 0.1777
vt 0.0450 0.4873
vt 0.0484 0.4670
vt 0.5955 0.6123
vt 0.5919 0.6375
vt 0.4886 0.2557
vt 0.4862 0.2369
vt 0.5120 0.2051
vt 0.5178 0.2394
vt 0.8381 0.2263
vt 0.8253 0.2064
vt 0.0243 0.5206
vt 0.0189 0.4863
vt 0.0168 0.4315
vt 0.5806 0.7075
vt 0.5744 0.6905
vt 0.5290 0.2867
vt 0.5479 0.3193
vt 0.4666 0.8423
vt 0.4215 0.8404
vt 0.7515 0.6357
vt 0.7391 0.6468
vt 0.7304 0.7090
vt 0.7247 0.6727
vt 0.8415 0.7206
vt 0.8052 0.7331
vt 0.5485 0.3534
vt 0.7564 0.7338
vt 0.5258 0.8667
vt 0.8003 0.1840
vt 0.6884 0.7107
vt 0.6133 0.7228
vt 0.6989 0.6372
vt 0.7191 0.6832
vt 0.7576 0.1737
vt 0.7189 0.1917
vt 0.1463 0.7439
vt 0.1617 0.7317
vt 0.1659 0.7389
vt 0.1471 0.7526
vt 0.8683 0.7470
vt 0.8808 0.7460
vt 0.8774 0.7623
vt 0.8629 0.7633
vt 0.2738 0.3006
vt 0.2663 0.3004
vt 0.2663 0.2853
vt 0.2755 0.2850
vt 0.1286 0.7333
vt 0.1255 0.7425
vt 0.8655 0.7459
vt 0.8593 0.7622
vt 0.8990 0.7438
vt 0.9147 0.7415
vt 0.9180 0.7570
vt 0.8984 0.7599
vt 0.1178 0.7292
vt 0.1122 0.7364
vt 0.1726 0.7261
vt 0.1787 0.7309
vt 0.2615 0.3005
vt 0.2593 0.2852
vt 0.8719 0.7879
vt 0.8542 0.7891
vt 0.2649 0.2611
vt 0.2766 0.2606
vt 0.1480 0.7659
vt 0.1220 0.7568
vt 0.8506 0.7878
vt 0.9219 0.7811
vt 0.8976 0.7849
vt 0.1059 0.7485
vt 0.1872 0.7385
vt 0.1716 0.7500
vt 0.2553 0.2609
vt 0.2637 0.2423
vt 0.2764 0.2417
vt 0.1481 0.7767
vt 0.1201 0.7692
vt 0.8488 0.8084
vt 0.8475 0.8064
vt 0.9230 0.7995
vt 0.8953 0.8039
vt 0.1032 0.7584
vt 0.1898 0.7456
vt 0.1731 0.7590
vt 0.8671 0.8074
vt 0.2519 0.2420
vt 0.1488 0.7888
vt 0.1201 0.7837
vt 0.1898 0.7456
vt 0.1903 0.7357
vt 0.1914 0.7432
vt 0.1884 0.7557
vt 0.9246 0.8178
vt 0.8953 0.8225
vt 0.1019 0.7708
vt 0.1725 0.7703
vt 0.8657 0.8263
vt 0.2460 0.2231
vt 0.2610 0.2235
vt 0.8471 0.8270
vt 0.2754 0.2229
vt 0.2584 0.6355
vt 0.2562 0.6484
vt 0.2562 0.6410
vt 0.2585 0.6229
vt 0.9222 0.8385
vt 0.8935 0.8433
vt 0.2460 0.2231
vt 0.2349 0.2220
vt 0.2271 0.2009
vt 0.2394 0.2019
vt 0.1859 0.7685
vt 0.1705 0.7851
vt 0.8648 0.8476
vt 0.2569 0.2023
vt 0.1492 0.8026
vt 0.8471 0.8477
vt 0.2730 0.2015
vt 0.1221 0.7990
vt 0.8960 0.7204
vt 0.9083 0.7191
vt 0.5688 0.6072
vt 0.5676 0.6271
vt 0.5622 0.6255
vt 0.5622 0.6080
vt 0.0155 0.9670
vt 0.0156 0.9696
vt 0.0077 0.9743
vt 0.0056 0.9716
vt 0.8949 0.0566
vt 0.8865 0.0348
vt 0.8940 0.0352
vt 0.9034 0.0545
vt 0.8932 0.8677
vt 0.8659 0.8713
vt 0.2326 0.1791
vt 0.2526 0.1782
vt 0.1671 0.8009
vt 0.1491 0.8178
vt 0.8495 0.8700
vt 0.2706 0.1764
vt 0.1245 0.8153
vt 0.2550 0.6273
vt 0.2568 0.6082
vt 0.9189 0.8630
vt 0.2187 0.1791
vt 0.1811 0.7827
vt 0.1665 0.8172
vt 0.1506 0.8337
vt 0.8679 0.9056
vt 0.8521 0.8991
vt 0.2496 0.1480
vt 0.2713 0.1396
vt 0.1273 0.8316
vt 0.2532 0.6125
vt 0.2569 0.5932
vt 0.9187 0.8993
vt 0.8953 0.9053
vt 0.2094 0.1597
vt 0.2262 0.1551
vt 0.1780 0.7980
vt 0.8734 0.9548
vt 0.8575 0.9372
vt 0.2464 0.1083
vt 0.2766 0.0846
vt 0.1521 0.8488
vt 0.1287 0.8484
vt 0.2490 0.5930
vt 0.2585 0.5759
vt 0.9246 0.9542
vt 0.9015 0.9622
vt 0.1984 0.1430
vt 0.2177 0.1291
vt 0.1761 0.8161
vt 0.1679 0.8345
vt 0.1542 0.8628
vt 0.1296 0.8640
vt 0.8575 0.9372
vt 0.8581 0.9662
vt 0.8487 0.9370
vt 0.8534 0.9159
vt 0.9232 0.9789
vt 0.8996 0.9971
vt 0.1859 0.1336
vt 0.2044 0.1096
vt 0.1782 0.8369
vt 0.1716 0.8520
vt 0.8732 0.9894
vt 0.2339 0.0819
vt 0.2604 0.0565
vt 0.3255 0.6889
vt 0.3294 0.7142
vt 0.3185 0.7292
vt 0.3165 0.7049
vt 0.3911 0.6812
vt 0.3814 0.7066
vt 0.3649 0.7046
vt 0.3686 0.6810
vt 0.1717 0.1306
vt 0.1862 0.1028
vt 0.1769 0.8612
vt 0.1724 0.8711
vt 0.3434 0.7069
vt 0.3416 0.6832
vt 0.2141 0.0747
vt 0.1553 0.8766
vt 0.2367 0.0538
vt 0.1315 0.8789
vt 0.3431 0.7357
vt 0.3306 0.7466
vt 0.1858 0.0742
vt 0.2072 0.0521
vt 0.1568 0.8956
vt 0.1347 0.8981
vt 0.3209 0.7576
vt 0.3744 0.7371
vt 0.3603 0.7348
vt 0.1527 0.1296
vt 0.1639 0.0987
vt 0.6496 0.9663
vt 0.6468 0.9639
vt 0.6428 0.9354
vt 0.6470 0.9374
vt 0.1721 0.8954
vt 0.1498 0.0770
vt 0.1671 0.0471
vt 0.1598 0.9150
vt 0.1364 0.9172
vt 0.6601 0.9871
vt 0.6453 0.9838
vt 0.6362 0.9592
vt 0.6468 0.9639
vt 0.3712 0.7786
vt 0.3551 0.7790
vt 0.1335 0.1282
vt 0.1390 0.1010
vt 0.6320 0.9290
vt 0.3369 0.7775
vt 0.1779 0.9175
vt 0.3226 0.7851
vt 0.0314 0.9554
vt 0.0356 0.9469
vt 0.0561 0.9597
vt 0.0484 0.9669
vt 0.9120 0.0687
vt 0.9017 0.0714
vt 0.8615 0.0622
vt 0.8622 0.0780
vt 0.8496 0.0788
vt 0.8520 0.0629
vt 0.0155 0.9670
vt 0.0158 0.9581
vt 0.5589 0.5931
vt 0.5666 0.5922
vt 0.8780 0.0597
vt 0.8825 0.0750
vt 0.0036 0.9649
vt 0.0701 0.9672
vt 0.0602 0.9720
vt 0.8477 0.0777
vt 0.8508 0.0620
vt 0.9254 0.0912
vt 0.9123 0.0946
vt 0.8632 0.1026
vt 0.8472 0.1035
vt 0.0175 0.9443
vt 0.0419 0.9339
vt 0.5539 0.5693
vt 0.5626 0.5684
vt 0.8887 0.0989
vt 0.0028 0.9535
vt 0.0674 0.9488
vt 0.0847 0.9596
vt 0.8448 0.1019
vt 0.8651 0.1209
vt 0.8468 0.1221
vt 0.0194 0.9323
vt 0.0459 0.9234
vt 0.5501 0.5512
vt 0.5595 0.5503
vt 0.8943 0.1168
vt 0.0042 0.9440
vt 0.0732 0.9399
vt 0.0917 0.9526
vt 0.9209 0.1120
vt 0.8442 0.1201
vt 0.9340 0.1084
vt 0.0229 0.9181
vt 0.0505 0.9116
vt 0.5448 0.5328
vt 0.5558 0.5319
vt 0.8971 0.1350
vt 0.8661 0.1394
vt 0.0067 0.9319
vt 0.0766 0.9290
vt 0.0944 0.9429
vt 0.9255 0.1301
vt 0.8465 0.1403
vt 0.8438 0.1377
vt 0.9380 0.1262
vt 0.5377 0.5122
vt 0.5527 0.5110
vt 0.9007 0.1550
vt 0.8700 0.1592
vt 0.0133 0.9178
vt 0.0288 0.9030
vt 0.0786 0.9146
vt 0.0963 0.9305
vt 0.9303 0.1506
vt 0.2595 0.4495
vt 0.2578 0.4363
vt 0.2657 0.4197
vt 0.2660 0.4351
vt 0.0551 0.8981
vt 0.5665 0.5089
vt 0.5688 0.5299
vt 0.8502 0.1597
vt 0.8716 0.7258
vt 0.8817 0.7228
vt 0.8525 0.0425
vt 0.8533 0.0415
vt 0.0417 0.9700
vt 0.0283 0.9586
vt 0.8602 0.0390
vt 0.9317 0.1746
vt 0.9035 0.1790
vt 0.2548 0.4206
vt 0.2647 0.4028
vt 0.0591 0.8831
vt 0.0795 0.8993
vt 0.5473 0.4875
vt 0.5621 0.4844
vt 0.8752 0.1824
vt 0.8557 0.1812
vt 0.0352 0.8869
vt 0.5303 0.4900
vt 0.0213 0.9027
vt 0.5268 0.5125
vt 0.5172 0.4914
vt 0.0635 0.8674
vt 0.0825 0.8832
vt 0.5401 0.4575
vt 0.5565 0.4498
vt 0.8815 0.2178
vt 0.8613 0.2094
vt 0.0412 0.8707
vt 0.5220 0.4657
vt 0.9086 0.2162
vt 0.0288 0.8878
vt 0.5059 0.4720
vt 0.9351 0.2086
vt 0.2513 0.4046
vt 0.2637 0.3863
vt 0.5326 0.4178
vt 0.5521 0.3968
vt 0.8881 0.2727
vt 0.8659 0.2472
vt 0.0450 0.8541
vt 0.0670 0.8524
vt 0.5113 0.4369
vt 0.9146 0.2761
vt 0.0337 0.8705
vt 0.4932 0.4528
vt 0.9380 0.2610
vt 0.2490 0.3864
vt 0.2660 0.3692
vt 0.0874 0.8662
vt 0.0464 0.8385
vt 0.0693 0.8384
vt 0.4954 0.4151
vt 0.5163 0.3870
vt 0.9112 0.3085
vt 0.8840 0.2979
vt 0.0355 0.8511
vt 0.4783 0.4388
vt 0.9326 0.2963
vt 0.8548 0.2221
vt 0.8659 0.2472
vt 0.8669 0.2703
vt 0.8513 0.2392
vt 0.0931 0.8487
vt 0.5317 0.3602
vt 0.4742 0.4084
vt 0.4945 0.3811
vt 0.6394 0.0029
vt 0.6687 0.0034
vt 0.6673 0.0273
vt 0.6456 0.0289
vt 0.0364 0.8307
vt 0.0469 0.8234
vt 0.4609 0.4346
vt 0.6909 0.0045
vt 0.6856 0.0307
vt 0.6148 0.0442
vt 0.6260 0.0221
vt 0.6292 0.0445
vt 0.6159 0.0645
vt 0.0691 0.8245
vt 0.0928 0.8295
vt 0.5076 0.3618
vt 0.4645 0.3835
vt 0.4803 0.3663
vt 0.6478 0.0598
vt 0.6285 0.0743
vt 0.0475 0.8040
vt 0.0679 0.8054
vt 0.4486 0.4082
vt 0.6656 0.0579
vt 0.0381 0.8069
vt 0.4381 0.4350
vt 0.6799 0.0597
vt 0.6173 0.0886
vt 0.0894 0.8052
vt 0.6456 0.1032
vt 0.6171 0.1122
vt 0.0431 0.7844
vt 0.0644 0.7848
vt 0.4168 0.4129
vt 0.4243 0.3873
vt 0.6655 0.1034
vt 0.6237 0.7495
vt 0.6584 0.7479
vt 0.6565 0.7635
vt 0.6245 0.7604
vt 0.4140 0.4393
vt 0.6798 0.1028
vt 0.6804 0.7286
vt 0.6775 0.7525
vt 0.0867 0.7808
vt 0.4388 0.3669
vt 0.5663 0.3318
vt 0.5685 0.3297
vt 0.5745 0.3353
vt 0.5739 0.3369
vt 0.5815 0.3193
vt 0.5857 0.3189
vt 0.5959 0.3294
vt 0.5948 0.3308
vt 0.8533 0.0229
vt 0.8587 0.0212
vt 0.5622 0.6255
vt 0.5596 0.6436
vt 0.5572 0.6426
vt 0.5608 0.6245
vt 0.2681 0.3226
vt 0.2594 0.3385
vt 0.2561 0.3375
vt 0.2626 0.3205
vt 0.5541 0.3204
vt 0.5589 0.3196
vt 0.2534 0.3365
vt 0.2589 0.3189
vt 0.5635 0.6446
vt 0.2583 0.3007
vt 0.2558 0.3172
vt 0.2482 0.3124
vt 0.2493 0.2999
vt 0.8732 0.0365
vt 0.1592 0.7284
vt 0.1684 0.7237
vt 0.1464 0.7404
vt 0.0512 0.9743
vt 0.8694 0.7272
vt 0.8815 0.7049
vt 0.8797 0.6890
vt 0.8878 0.6876
vt 0.8919 0.7031
vt 0.8526 0.0234
vt 0.8514 0.0070
vt 0.8518 0.0067
vt 0.8533 0.0229
vt 0.8719 0.7078
vt 0.8733 0.6911
vt 0.8743 0.6904
vt 0.8737 0.7069
vt 0.8781 0.0181
vt 0.8718 0.0030
vt 0.8764 0.0029
vt 0.8844 0.0181
vt 0.2496 0.3346
vt 0.2428 0.3492
vt 0.2368 0.3455
vt 0.2426 0.3304
vt 0.8686 0.0193
vt 0.8642 0.0039
vt 0.2534 0.3365
vt 0.2467 0.3514
vt 0.8587 0.0212
vt 0.8562 0.0054
vt 0.1585 0.7286
vt 0.1651 0.7236
vt 0.8919 0.7031
vt 0.9011 0.7021
vt 0.5506 0.6393
vt 0.5542 0.6207
vt 0.5523 0.6577
vt 0.5388 0.6676
vt 0.5364 0.6647
vt 0.5464 0.6549
vt 0.2612 0.5688
vt 0.2630 0.5507
vt 0.2688 0.5520
vt 0.2694 0.5701
vt 0.5969 0.3263
vt 0.5982 0.3134
vt 0.6024 0.3164
vt 0.6020 0.3312
vt 0.5707 0.3264
vt 0.5712 0.3132
vt 0.5754 0.3161
vt 0.5756 0.3319
vt 0.5894 0.3174
vt 0.5927 0.3088
vt 0.2490 0.5030
vt 0.2543 0.4877
vt 0.2570 0.4887
vt 0.2528 0.5055
vt 0.5553 0.6591
vt 0.5401 0.6706
vt 0.2719 0.5526
vt 0.2740 0.5699
vt 0.5581 0.6599
vt 0.5553 0.6591
vt 0.2486 0.3521
vt 0.5629 0.3178
vt 0.5707 0.3264
vt 0.9011 0.7021
vt 0.8954 0.6868
vt 0.8993 0.6868
vt 0.9054 0.7023
vt 0.6026 0.3342
vt 0.5655 0.3089
vt 0.5669 0.2955
vt 0.5706 0.2964
vt 0.5712 0.3132
vt 0.2293 0.3629
vt 0.2108 0.3634
vt 0.2117 0.3623
vt 0.2293 0.3614
vt 0.5406 0.6725
vt 0.5225 0.6752
vt 0.5233 0.6736
vt 0.5401 0.6706
vt 0.2543 0.5478
vt 0.2610 0.5303
vt 0.2629 0.5304
vt 0.2574 0.5489
vt 0.2667 0.5313
vt 0.2630 0.5507
vt 0.5754 0.3161
vt 0.5733 0.2978
vt 0.5739 0.2972
vt 0.5759 0.3167
vt 0.6024 0.3164
vt 0.6016 0.2986
vt 0.6021 0.2980
vt 0.6026 0.3172
vt 0.2684 0.4918
vt 0.2704 0.4723
vt 0.2724 0.4732
vt 0.2720 0.4924
vt 0.2626 0.4904
vt 0.2605 0.5085
vt 0.2293 0.3614
vt 0.2280 0.3576
vt 0.2684 0.4918
vt 0.2686 0.5097
vt 0.2258 0.3543
vt 0.2742 0.5094
vt 0.8711 0.6778
vt 0.8711 0.6759
vt 0.5759 0.3341
vt 0.2536 0.5657
vt 0.2490 0.5626
vt 0.5925 0.2963
vt 0.5944 0.2823
vt 0.5958 0.2827
vt 0.5953 0.2956
vt 0.2667 0.4711
vt 0.2714 0.4561
vt 0.2732 0.4565
vt 0.2704 0.4723
vt 0.2117 0.3623
vt 0.1994 0.3543
vt 0.1997 0.3530
vt 0.2115 0.3595
vt 0.2629 0.4701
vt 0.2694 0.4554
vt 0.5641 0.2966
vt 0.5648 0.2824
vt 0.5661 0.2826
vt 0.5669 0.2955
vt 0.2667 0.5313
vt 0.2710 0.5161
vt 0.2730 0.5165
vt 0.2705 0.5324
vt 0.5990 0.2969
vt 0.5978 0.2826
vt 0.5993 0.2832
vt 0.6016 0.2986
vt 0.5706 0.2964
vt 0.5683 0.2823
vt 0.5700 0.2827
vt 0.5733 0.2978
vt 0.2705 0.5324
vt 0.2721 0.5331
vt 0.5227 0.6714
vt 0.2613 0.4700
vt 0.2629 0.4701
vt 0.5953 0.2956
vt 0.5990 0.2969
vt 0.5606 0.3132
vt 0.5877 0.3128
vt 0.5945 0.2812
vt 0.5963 0.2815
vt 0.1983 0.3550
vt 0.1982 0.3544
vt 0.5984 0.2816
vt 0.5978 0.2826
vt 0.5996 0.2823
vt 0.5683 0.2823
vt 0.5661 0.2826
vt 0.5669 0.2814
vt 0.5691 0.2812
vt 0.5703 0.2817
vt 0.5651 0.2814
vt 0.5093 0.6681
vt 0.5090 0.6677
vt 0.5103 0.6662
vt 0.5103 0.6673
vt 0.2742 0.4575
vt 0.2691 0.5155
vt 0.2678 0.5159
vt 0.2740 0.5173
vt 0.5622 0.2981
vt 0.5637 0.2829
vt 0.2680 0.4555
vt 0.6346 0.1405
vt 0.5990 0.1457
vt 0.3538 0.8116
vt 0.3300 0.8069
vt 0.6288 0.9762
vt 0.6215 0.9521
vt 0.6777 0.7811
vt 0.6548 0.7806
vt 0.6235 0.9252
vt 0.3112 0.8114
vt 0.6231 0.7711
vt 0.6776 0.1379
vt 0.6617 0.1407
vt 0.1145 0.1025
vt 0.1163 0.0771
vt 0.0393 0.7654
vt 0.0612 0.7670
vt 0.1828 0.9345
vt 0.1628 0.9289
vt 0.1368 0.9342
vt 0.1337 0.0437
vt 0.3874 0.3978
vt 0.4045 0.3731
vt 0.3813 0.4226
vt 0.0834 0.7576
vt 0.3769 0.8120
vt 0.3904 0.4464
vt 0.1157 0.1290
vt 0.6250 0.1769
vt 0.5927 0.1620
vt 0.0607 0.7566
vt 0.0827 0.7430
vt 0.0387 0.7514
vt 0.6756 0.1735
vt 0.6590 0.1785
vt 0.1845 0.9553
vt 0.1633 0.9436
vt 0.3618 0.4235
vt 0.3671 0.3993
vt 0.0237 0.7570
vt 0.0225 0.7392
vt 0.6776 0.7926
vt 0.6524 0.7886
vt 0.3704 0.3752
vt 0.6194 0.9727
vt 0.6138 0.9496
vt 0.1354 0.9492
vt 0.0928 0.1017
vt 0.0888 0.0737
vt 0.3497 0.8532
vt 0.3253 0.8474
vt 0.3075 0.8432
vt 0.0930 0.0396
vt 0.0993 0.1310
vt 0.3752 0.4510
vt 0.6180 0.9234
vt 0.3770 0.8534
vt 0.0670 0.0993
vt 0.0679 0.0639
vt 0.3469 0.8905
vt 0.3219 0.8841
vt 0.3001 0.8753
vt 0.0635 0.0286
vt 0.0762 0.1333
vt 0.3537 0.4527
vt 0.3407 0.4240
vt 0.6011 0.9492
vt 0.6074 0.9232
vt 0.6569 0.2153
vt 0.6109 0.2154
vt 0.3787 0.8858
vt 0.5785 0.1866
vt 0.0648 0.7374
vt 0.0912 0.7236
vt 0.0383 0.7326
vt 0.6846 0.2094
vt 0.1914 0.9767
vt 0.1637 0.9643
vt 0.3417 0.3998
vt 0.6524 0.7886
vt 0.6417 0.8127
vt 0.6137 0.7861
vt 0.6229 0.7766
vt 0.6712 0.8155
vt 0.3332 0.3772
vt 0.6064 0.9719
vt 0.1343 0.9706
vt 0.6074 0.9232
vt 0.5876 0.9041
vt 0.6165 0.8656
vt 0.6329 0.9002
vt 0.3033 0.4284
vt 0.2871 0.3935
vt 0.6257 0.8461
vt 0.5842 0.8143
vt 0.6804 0.8523
vt 0.2822 0.3592
vt 0.5793 0.9771
vt 0.5753 0.9505
vt 0.6567 0.8582
vt 0.6601 0.8936
vt 0.0211 0.1119
vt 0.0068 0.0530
vt 0.3428 0.9526
vt 0.3061 0.9414
vt 0.2822 0.9315
vt 0.0028 0.0029
vt 0.0462 0.1636
vt 0.3273 0.4663
vt 0.6598 0.2754
vt 0.5866 0.2570
vt 0.3911 0.9524
vt 0.5541 0.2311
vt 0.3702 0.4671
vt 0.3520 0.4963
vt 0.5744 0.7730
vt 0.6018 0.7610
vt 0.6909 0.2649
vt 0.4663 0.8434
vt 0.4220 0.8415
vt 0.7685 0.7457
vt 0.8050 0.7396
vt 0.8052 0.7407
vt 0.7693 0.7466
vt 0.2597 0.8872
vt 0.2322 0.8646
vt 0.2331 0.8637
vt 0.2603 0.8861
vt 0.7247 0.8183
vt 0.7463 0.7739
vt 0.7474 0.7745
vt 0.7259 0.8183
vt 0.7578 0.1748
vt 0.7197 0.1926
vt 0.2121 0.8374
vt 0.2131 0.8367
vt 0.0180 0.4858
vt 0.0158 0.4316
vt 0.5296 0.2866
vt 0.5485 0.3188
vt 0.5249 0.8675
vt 0.2072 0.7623
vt 0.2598 0.7236
vt 0.2603 0.7245
vt 0.2082 0.7628
vt 0.7995 0.1850
vt 0.3967 0.8669
vt 0.3978 0.8675
vt 0.6965 0.2258
vt 0.6976 0.2263
vt 0.1971 0.8041
vt 0.1983 0.8040
vt 0.8050 0.8965
vt 0.7586 0.8649
vt 0.7595 0.8640
vt 0.8052 0.8954
vt 0.5744 0.9509
vt 0.5868 0.9040
vt 0.0037 0.3692
vt 0.0028 0.3701
f 1/1 2/2 3/3 4/4
f 5/5 6/6 7/7 8/8
f 9/9 10/10 11/11 12/12
f 13/13 14/14 2/15 1/16
f 15/17 16/18 6/6 5/5
f 17/19 18/20 10/21 9/22
f 19/23 20/24 14/14 13/13
f 4/25 3/26 16/27 15/28
f 8/29 7/30 18/20 17/19
f 12/12 11/11 20/31 19/32
f 6/6 21/33 22/34 7/7
f 10/35 23/36 24/37 11/38
f 14/14 25/39 26/40 2/15
f 16/18 27/41 21/33 6/6
f 18/20 28/42 23/36 10/21
f 20/24 29/43 25/39 14/14
f 3/44 30/45 27/41 16/18
f 7/30 22/46 28/42 18/20
f 11/11 24/47 29/48 20/31
f 2/2 26/49 30/45 3/3
f 23/36 31/50 32/51 24/37
f 25/39 33/52 34/53 26/40
f 27/41 35/54 36/55 21/33
f 28/42 37/56 31/50 23/36
f 29/43 38/57 33/52 25/39
f 30/45 39/58 35/54 27/41
f 22/46 40/59 37/56 28/42
f 24/47 32/60 38/61 29/48
f 26/49 34/62 39/58 30/45
f 21/33 36/55 40/63 22/34
f 33/52 41/64 42/65 34/53
f 35/54 43/66 44/67 36/55
f 37/56 45/68 46/69 31/50
f 38/57 47/70 41/64 33/52
f 39/58 48/71 43/66 35/54
f 40/59 49/72 45/68 37/56
f 32/73 50/74 47/70 38/57
f 34/62 42/75 48/71 39/58
f 36/76 44/77 49/72 40/59
f 31/50 46/69 50/78 32/51
f 43/66 51/79 52/80 44/67
f 45/68 53/81 54/82 46/69
f 47/70 55/83 56/84 41/64
f 48/71 57/85 51/79 43/66
f 49/72 58/86 53/81 45/68
f 50/74 59/87 55/83 47/70
f 42/75 60/88 57/85 48/71
f 44/67 52/80 58/89 49/90
f 46/69 54/82 59/91 50/78
f 41/64 56/84 60/92 42/65
f 17/93 9/94 265/95 269/96
f 135/97 145/98 278/99 273/100
f 143/101 149/102 280/103 277/104
f 136/105 135/97 273/100 274/106
f 53/81 58/86 61/107 62/108
f 55/83 59/87 63/109 64/110
f 57/85 60/88 65/111 66/112
f 58/86 52/113 67/114 61/107
f 59/91 54/82 68/115 63/116
f 60/92 56/84 69/117 65/118
f 52/80 51/79 70/119 67/120
f 54/82 53/81 62/108 68/115
f 56/84 55/83 64/110 69/117
f 51/79 57/85 66/112 70/119
f 66/112 65/111 71/121 72/122
f 61/123 67/124 73/125 74/126
f 63/116 68/115 75/127 76/128
f 65/118 69/117 77/129 71/130
f 67/124 70/119 78/131 73/125
f 68/115 62/108 79/132 75/127
f 69/117 64/110 80/133 77/129
f 70/119 66/112 72/122 78/131
f 62/108 61/107 74/134 79/132
f 64/110 63/109 76/135 80/133
f 74/126 73/125 81/136 82/137
f 76/138 75/139 83/140 84/141
f 71/142 77/143 85/144 86/145
f 73/125 78/131 87/146 81/136
f 75/127 79/132 88/147 83/148
f 77/129 80/133 89/149 85/150
f 78/131 72/122 90/151 87/146
f 79/132 74/134 82/152 88/147
f 80/133 76/135 84/153 89/149
f 72/122 71/121 86/154 90/151
f 86/145 85/144 91/155 92/156
f 81/136 87/146 93/157 94/158
f 83/148 88/147 95/159 96/160
f 85/144 89/161 97/162 91/155
f 87/146 90/151 98/163 93/157
f 88/147 82/152 99/164 95/159
f 89/149 84/153 100/165 97/166
f 90/151 86/154 92/167 98/163
f 82/137 81/136 94/158 99/168
f 84/153 83/169 96/170 100/165
f 94/158 93/157 101/171 102/172
f 96/160 95/159 103/173 104/174
f 91/155 97/162 105/175 106/176
f 93/157 98/163 107/177 101/171
f 95/159 99/164 108/178 103/173
f 97/166 100/165 109/179 105/180
f 98/163 92/167 110/181 107/177
f 99/168 94/158 102/172 108/182
f 100/165 96/170 104/183 109/179
f 92/156 91/155 106/176 110/184
f 108/182 102/172 111/185 112/186
f 109/187 104/188 113/189 114/190
f 110/184 106/176 115/191 116/192
f 102/172 101/171 117/193 111/185
f 104/174 103/173 118/194 113/189
f 106/176 105/175 119/195 115/191
f 101/171 107/177 120/196 117/193
f 103/173 108/178 112/197 118/194
f 105/180 109/179 114/198 119/199
f 107/177 110/181 116/200 120/196
f 114/190 113/189 121/201 122/202
f 116/192 115/191 123/203 124/204
f 111/185 117/193 125/205 126/206
f 113/189 118/194 127/207 121/201
f 115/191 119/195 128/208 123/203
f 117/193 120/196 129/209 125/205
f 118/194 112/197 130/210 127/207
f 119/195 114/211 122/212 128/208
f 120/196 116/200 124/213 129/209
f 112/186 111/185 126/206 130/214
f 131/215 132/216 133/217 134/218
f 135/97 136/105 137/219 138/220
f 139/221 140/222 141/223 142/224
f 143/225 131/226 134/227 144/228
f 145/98 135/97 138/220 146/229
f 147/230 139/231 142/232 148/233
f 149/102 143/101 144/228 150/234
f 132/216 145/235 146/236 133/217
f 136/237 147/230 148/233 137/238
f 140/222 149/102 150/234 141/223
f 138/220 137/219 151/239 152/240
f 142/224 141/223 153/241 154/242
f 144/228 134/227 155/243 156/244
f 146/229 138/220 152/240 157/245
f 148/233 142/232 154/246 158/247
f 150/234 144/228 156/244 159/248
f 133/217 146/236 157/249 160/250
f 137/238 148/233 158/247 151/251
f 141/223 150/234 159/248 153/241
f 134/218 133/217 160/250 155/252
f 154/253 153/254 161/255 162/256
f 156/257 155/258 163/259 164/260
f 157/245 152/240 165/261 166/262
f 158/247 154/246 162/256 167/263
f 159/248 156/244 164/264 168/265
f 160/250 157/249 166/266 169/267
f 151/251 158/247 167/263 170/268
f 153/241 159/248 168/265 161/269
f 155/252 160/250 169/267 163/259
f 152/240 151/239 170/270 165/261
f 164/260 163/259 171/271 172/272
f 166/273 165/274 173/275 174/276
f 167/263 162/256 175/277 176/278
f 168/265 164/264 172/279 177/280
f 169/267 166/266 174/276 178/281
f 170/268 167/263 176/278 179/282
f 161/269 168/265 177/280 180/283
f 163/259 169/267 178/281 171/271
f 165/284 170/268 179/282 173/285
f 162/256 161/255 180/286 175/277
f 174/276 173/275 181/287 182/288
f 176/278 175/277 183/289 184/290
f 177/280 172/279 185/291 186/292
f 178/281 174/276 182/288 187/293
f 179/282 176/278 184/290 188/294
f 180/283 177/280 186/292 189/295
f 171/271 178/281 187/293 190/296
f 173/285 179/282 188/294 181/297
f 175/277 180/286 189/298 183/289
f 172/272 171/271 190/296 185/299
f 5/5 8/8 264/300 263/301
f 149/102 140/222 276/302 280/103
f 132/216 131/215 271/303 272/304
f 140/222 139/221 275/305 276/302
f 184/290 191/306 192/307 188/294
f 186/292 193/308 194/309 189/295
f 187/293 195/310 196/311 190/296
f 188/294 192/307 197/312 181/297
f 189/298 194/313 198/314 183/289
f 190/296 196/311 199/315 185/299
f 181/287 197/316 200/317 182/288
f 183/289 198/314 191/306 184/290
f 185/291 199/318 193/308 186/292
f 182/288 200/317 195/310 187/293
f 195/310 201/319 202/320 196/311
f 192/307 203/321 204/322 197/312
f 194/323 205/324 206/325 198/326
f 196/311 202/320 207/327 199/315
f 197/316 204/328 208/329 200/317
f 198/314 206/330 209/331 191/306
f 199/318 207/332 210/333 193/308
f 200/317 208/329 201/319 195/310
f 191/306 209/331 203/321 192/307
f 193/308 210/333 205/324 194/309
f 203/321 211/334 212/335 204/322
f 205/324 213/336 214/337 206/325
f 202/338 215/339 216/340 207/341
f 204/328 212/342 217/343 208/329
f 206/330 214/344 218/345 209/331
f 207/332 216/346 219/347 210/333
f 208/329 217/343 220/348 201/319
f 209/331 218/345 211/334 203/321
f 210/333 219/347 213/336 205/324
f 201/349 220/350 215/339 202/338
f 215/339 221/351 222/352 216/340
f 212/342 223/353 224/354 217/343
f 214/344 225/355 226/356 218/345
f 216/346 222/357 227/358 219/347
f 217/359 224/360 228/361 220/362
f 218/345 226/356 229/363 211/334
f 219/347 227/358 230/364 213/336
f 220/350 228/361 221/351 215/339
f 211/334 229/363 223/365 212/335
f 213/336 230/364 225/366 214/337
f 223/353 231/367 232/368 224/354
f 225/355 233/369 234/370 226/356
f 222/357 235/371 236/372 227/358
f 224/360 232/373 237/374 228/361
f 226/356 234/370 238/375 229/363
f 227/358 236/372 239/376 230/364
f 228/361 237/374 240/377 221/351
f 229/378 238/379 231/367 223/353
f 230/364 239/376 233/380 225/366
f 221/351 240/377 235/381 222/352
f 238/379 241/382 242/383 231/367
f 239/376 243/384 244/385 233/380
f 240/377 245/386 246/387 235/381
f 231/367 242/383 247/388 232/368
f 233/369 244/389 248/390 234/370
f 235/371 246/391 249/392 236/372
f 232/373 247/393 250/394 237/374
f 234/370 248/390 241/395 238/375
f 236/372 249/392 243/384 239/376
f 237/374 250/394 245/386 240/377
f 243/384 251/396 252/397 244/385
f 245/386 253/398 254/399 246/387
f 242/383 255/400 256/401 247/388
f 244/389 252/402 257/403 248/390
f 246/391 254/404 258/405 249/392
f 247/393 256/406 259/407 250/394
f 248/390 257/403 260/408 241/395
f 249/392 258/405 251/396 243/384
f 250/394 259/407 253/398 245/386
f 241/382 260/409 255/400 242/383
f 277/104 280/103 300/410 297/411
f 261/412 262/413 282/414 281/415
f 276/302 275/305 295/416 296/417
f 278/418 272/419 292/420 298/421
f 265/422 266/423 286/424 285/425
f 271/426 277/104 297/411 291/427
f 266/423 270/428 290/429 286/424
f 273/100 278/99 298/430 293/431
f 13/13 1/16 261/432 267/433
f 147/434 136/105 274/106 279/435
f 4/25 15/28 268/436 262/437
f 12/12 19/32 270/428 266/423
f 1/1 4/4 262/413 261/412
f 145/235 132/216 272/304 278/418
f 15/17 5/5 263/301 268/438
f 9/9 12/12 266/423 265/95
f 131/226 143/225 277/104 271/426
f 19/23 13/13 267/433 270/439
f 139/231 147/230 279/440 275/441
f 8/29 17/19 269/442 264/443
f 284/444 289/445 309/446 304/447
f 300/448 296/449 316/450 320/451
f 288/452 283/453 303/454 308/455
f 294/456 293/457 313/458 314/459
f 287/460 281/461 301/462 307/463
f 299/464 294/456 314/459 319/465
f 290/466 287/460 307/463 310/467
f 295/468 299/464 319/465 315/469
f 262/437 268/436 288/470 282/471
f 269/96 265/95 285/425 289/472
f 272/304 271/303 291/473 292/420
f 275/474 279/475 299/464 295/468
f 270/439 267/433 287/460 290/466
f 279/435 274/106 294/456 299/464
f 267/433 261/432 281/461 287/460
f 274/106 273/100 293/431 294/456
f 268/438 263/301 283/453 288/452
f 280/103 276/302 296/417 300/410
f 264/476 269/96 289/472 284/444
f 263/301 264/300 284/477 283/453
f 312/478 311/479 331/480 332/481
f 309/482 305/483 325/484 329/485
f 302/486 308/487 328/488 322/489
f 317/490 320/491 340/492 337/493
f 301/494 302/486 322/489 321/495
f 316/496 315/497 335/498 336/499
f 318/500 312/478 332/481 338/501
f 305/483 306/502 326/503 325/484
f 283/504 284/444 304/447 303/505
f 293/431 298/430 318/506 313/458
f 286/424 290/429 310/507 306/508
f 291/427 297/411 317/509 311/510
f 285/425 286/424 306/508 305/483
f 298/421 292/420 312/478 318/500
f 296/417 295/416 315/511 316/450
f 281/415 282/414 302/486 301/494
f 297/411 300/410 320/451 317/509
f 282/414 288/452 308/455 302/486
f 289/472 285/425 305/483 309/446
f 292/420 291/473 311/479 312/478
f 331/512 337/513 357/514 351/515
f 326/516 330/517 350/518 346/519
f 333/520 338/521 358/522 353/523
f 323/524 324/525 344/526 343/527
f 324/525 329/528 349/529 344/526
f 340/530 336/531 356/532 360/533
f 328/534 323/535 343/536 348/537
f 334/538 333/539 353/540 354/541
f 315/497 319/465 339/542 335/498
f 310/467 307/463 327/543 330/544
f 319/465 314/459 334/545 339/542
f 307/463 301/462 321/546 327/543
f 314/459 313/458 333/539 334/545
f 308/455 303/454 323/535 328/488
f 320/451 316/450 336/531 340/492
f 304/447 309/446 329/485 324/525
f 303/505 304/447 324/525 323/524
f 313/458 318/506 338/547 333/539
f 306/548 310/467 330/544 326/516
f 311/510 317/509 337/493 331/549
f 347/550 341/551 361/552 367/553
f 359/554 354/555 374/556 379/557
f 350/558 347/550 367/553 370/559
f 355/560 359/554 379/557 375/561
f 352/562 351/563 371/564 372/565
f 349/566 345/567 365/568 369/569
f 342/570 348/571 368/572 362/573
f 357/574 360/575 380/576 377/577
f 325/484 326/503 346/578 345/579
f 338/580 332/581 352/582 358/583
f 336/499 335/498 355/584 356/585
f 321/586 322/587 342/588 341/589
f 337/493 340/492 360/533 357/590
f 322/587 328/591 348/571 342/588
f 329/485 325/484 345/579 349/529
f 332/581 331/512 351/515 352/582
f 335/498 339/542 359/554 355/584
f 330/544 327/543 347/592 350/518
f 339/542 334/545 354/541 359/554
f 327/593 321/586 341/589 347/550
f 367/594 361/595 369/596 365/597
f 370/598 367/594 365/597 366/599
f 364/600 369/596 361/595 362/601
f 363/602 364/603 362/604 368/605
f 377/606 375/607 379/608 371/609
f 380/610 376/611 375/612 377/613
f 374/614 372/615 371/609 379/608
f 373/616 378/617 372/615 374/614
f 354/541 353/540 373/618 374/556
f 348/537 343/536 363/602 368/605
f 360/533 356/532 376/611 380/610
f 344/526 349/529 369/569 364/619
f 343/527 344/526 364/619 363/620
f 353/523 358/522 378/617 373/616
f 346/519 350/518 370/598 366/599
f 351/515 357/514 377/577 371/564
f 345/567 346/578 366/621 365/568
f 358/583 352/582 372/565 378/622
f 356/585 355/584 375/561 376/623
f 341/589 342/588 362/573 361/552
f 252/397 251/396 391/624 392/625
f 127/207 130/210 390/626 387/627
f 126/206 125/205 385/628 386/629
f 251/396 258/405 398/630 391/624
f 125/205 129/209 389/631 385/628
f 130/214 126/206 386/629 390/632
f 258/405 254/404 394/633 398/630
f 260/408 257/403 397/634 400/635
f 128/208 122/212 382/636 388/637
f 254/399 253/398 393/638 394/639
f 257/403 252/402 392/640 397/634
f 129/641 124/642 384/643 389/644
f 124/204 123/203 383/645 384/643
f 122/202 121/201 381/646 382/647
f 255/400 260/409 400/648 395/649
f 256/650 255/651 395/652 396/653
f 253/398 259/407 399/654 393/638
f 121/201 127/207 387/627 381/646
f 259/407 256/406 396/653 399/654
f 123/203 128/208 388/637 383/645
f 392/625 391/624 411/655 412/656
f 393/638 399/654 419/657 413/658
f 394/639 393/638 413/658 414/659
f 400/635 397/634 417/660 420/661
f 389/644 384/643 404/662 409/663
f 396/653 395/652 415/664 416/665
f 398/630 394/633 414/666 418/667
f 391/624 398/630 418/667 411/655
f 395/649 400/648 420/668 415/669
f 386/629 385/628 405/670 406/671
f 384/643 383/645 403/672 404/662
f 388/637 382/636 402/673 408/674
f 387/627 390/626 410/675 407/676
f 390/632 386/629 406/671 410/677
f 382/647 381/646 401/678 402/679
f 383/645 388/637 408/674 403/672
f 399/654 396/653 416/665 419/657
f 385/628 389/631 409/680 405/670
f 397/634 392/640 412/681 417/660
f 381/646 387/627 407/676 401/678
f 408/674 402/673 422/682 428/683
f 407/676 410/675 430/684 427/685
f 410/677 406/671 426/686 430/687
f 402/679 401/678 421/688 422/689
f 403/672 408/674 428/683 423/690
f 419/657 416/665 436/691 439/692
f 405/670 409/680 429/693 425/694
f 417/660 412/681 432/695 437/696
f 401/678 407/676 427/685 421/688
f 412/656 411/655 431/697 432/698
f 413/658 419/657 439/692 433/699
f 414/659 413/658 433/699 434/700
f 420/661 417/660 437/696 440/701
f 409/663 404/662 424/702 429/703
f 416/665 415/664 435/704 436/691
f 418/667 414/666 434/705 438/706
f 411/655 418/667 438/706 431/697
f 415/707 420/661 440/701 435/708
f 406/671 405/670 425/694 426/686
f 404/662 403/672 423/690 424/702
f 429/709 424/710 444/711 449/712
f 436/691 435/704 455/713 456/714
f 438/706 434/705 454/715 458/716
f 431/697 438/706 458/716 451/717
f 435/708 440/701 460/718 455/719
f 426/686 425/694 445/720 446/721
f 424/702 423/690 443/722 444/723
f 428/724 422/725 442/726 448/727
f 427/685 430/684 450/728 447/729
f 430/687 426/686 446/721 450/730
f 422/689 421/688 441/731 442/726
f 423/690 428/683 448/732 443/722
f 439/692 436/691 456/714 459/733
f 425/694 429/693 449/712 445/720
f 437/696 432/695 452/734 457/735
f 421/688 427/685 447/729 441/731
f 432/695 431/736 451/737 452/734
f 433/699 439/692 459/733 453/738
f 434/700 433/699 453/738 454/739
f 440/701 437/696 457/735 460/718
f 461/740 464/741 463/742 462/743
f 465/744 468/745 467/746 466/747
f 469/748 472/749 471/750 470/751
f 473/752 461/740 462/743 474/753
f 475/754 465/744 466/747 476/755
f 477/756 469/757 470/758 478/759
f 479/760 473/752 474/753 480/761
f 464/741 475/762 476/763 463/742
f 468/745 477/756 478/759 467/746
f 472/749 479/764 480/765 471/750
f 466/747 467/746 482/766 481/767
f 470/751 471/750 484/768 483/769
f 474/753 462/743 486/770 485/771
f 476/755 466/747 481/767 487/772
f 478/759 470/758 483/773 488/774
f 480/761 474/753 485/771 489/775
f 463/742 476/763 487/776 490/777
f 467/746 478/759 488/774 482/766
f 471/750 480/765 489/778 484/768
f 462/743 463/742 490/777 486/770
f 483/769 484/768 492/779 491/780
f 485/771 486/770 494/781 493/782
f 487/772 481/767 496/783 495/784
f 488/774 483/773 491/785 497/786
f 489/775 485/771 493/782 498/787
f 490/777 487/776 495/788 499/789
f 482/766 488/774 497/786 500/790
f 484/768 489/778 498/791 492/779
f 486/770 490/777 499/789 494/781
f 481/767 482/766 500/790 496/783
f 493/782 494/781 502/792 501/793
f 495/794 496/795 504/796 503/797
f 497/786 491/785 506/798 505/799
f 498/787 493/782 501/793 507/800
f 499/789 495/788 503/797 508/801
f 500/790 497/786 505/799 509/802
f 492/779 498/791 507/803 510/804
f 494/781 499/789 508/801 502/792
f 496/783 500/790 509/802 504/805
f 491/780 492/779 510/804 506/806
f 503/807 504/808 512/809 511/810
f 505/799 506/798 514/811 513/812
f 507/813 501/814 516/815 515/816
f 508/801 503/797 511/817 517/818
f 509/802 505/799 513/812 518/819
f 510/804 507/803 515/816 519/820
f 502/792 508/801 517/818 520/821
f 504/805 509/802 518/819 512/822
f 506/806 510/804 519/820 514/823
f 501/793 502/792 520/821 516/824
f 477/756 729/825 725/826 469/757
f 595/827 733/828 738/829 605/830
f 603/831 737/832 740/833 609/834
f 596/835 734/836 733/837 595/838
f 513/812 522/839 521/840 518/819
f 515/816 524/841 523/842 519/820
f 517/818 526/843 525/844 520/821
f 518/819 521/840 527/845 512/822
f 519/820 523/842 528/846 514/823
f 520/821 525/844 529/847 516/824
f 512/809 527/848 530/849 511/810
f 514/811 528/850 522/839 513/812
f 516/815 529/851 524/841 515/816
f 511/817 530/852 526/843 517/818
f 526/843 532/853 531/854 525/844
f 521/840 534/855 533/856 527/845
f 523/842 536/857 535/858 528/846
f 525/844 531/854 537/859 529/847
f 527/848 533/860 538/861 530/849
f 528/850 535/862 539/863 522/839
f 529/851 537/864 540/865 524/841
f 530/852 538/866 532/853 526/843
f 522/839 539/863 534/855 521/840
f 524/841 540/865 536/857 523/842
f 534/855 542/867 541/868 533/856
f 536/857 544/869 543/870 535/858
f 531/854 546/871 545/872 537/859
f 533/860 541/873 547/874 538/861
f 535/862 543/875 548/876 539/863
f 537/864 545/877 549/878 540/865
f 538/866 547/879 550/880 532/853
f 539/863 548/876 542/867 534/855
f 540/865 549/878 544/869 536/857
f 532/853 550/880 546/871 531/854
f 546/871 552/881 551/882 545/872
f 541/883 554/884 553/885 547/886
f 543/875 556/887 555/888 548/876
f 545/877 551/889 557/890 549/878
f 547/879 553/891 558/892 550/880
f 548/876 555/888 559/893 542/867
f 549/878 557/890 560/894 544/869
f 550/880 558/892 552/881 546/871
f 542/867 559/893 554/884 541/868
f 544/869 560/894 556/895 543/870
f 554/896 562/897 561/898 553/899
f 556/900 564/901 563/902 555/903
f 551/889 566/904 565/905 557/890
f 553/891 561/906 567/907 558/892
f 555/903 563/902 568/908 559/909
f 557/890 565/905 569/910 560/894
f 558/892 567/907 570/911 552/881
f 559/909 568/908 562/897 554/896
f 560/894 569/910 564/912 556/895
f 552/881 570/911 566/913 551/882
f 568/908 572/914 571/915 562/897
f 569/910 574/916 573/917 564/912
f 570/911 576/918 575/919 566/913
f 562/897 571/915 577/920 561/898
f 564/901 573/921 578/922 563/902
f 566/904 575/923 579/924 565/905
f 561/925 577/926 580/927 567/928
f 563/902 578/922 572/914 568/908
f 565/905 579/924 574/916 569/910
f 567/907 580/929 576/918 570/911
f 574/916 582/930 581/931 573/917
f 576/918 584/932 583/933 575/919
f 571/934 586/935 585/936 577/937
f 573/921 581/938 587/939 578/922
f 575/923 583/940 588/941 579/924
f 577/926 585/936 589/942 580/927
f 578/922 587/939 590/943 572/914
f 579/924 588/941 582/930 574/916
f 580/929 589/944 584/932 576/918
f 572/914 590/943 586/945 571/915
f 591/946 594/947 593/948 592/949
f 595/838 598/950 597/951 596/835
f 599/952 602/953 601/954 600/955
f 603/956 604/957 594/947 591/946
f 605/830 606/958 598/959 595/827
f 607/960 608/961 602/953 599/952
f 609/834 610/962 604/957 603/831
f 592/949 593/948 606/963 605/964
f 596/835 597/951 608/961 607/960
f 600/955 601/954 610/965 609/966
f 598/950 612/967 611/968 597/951
f 602/953 614/969 613/970 601/954
f 604/957 616/971 615/972 594/947
f 606/958 617/973 612/974 598/959
f 608/961 618/975 614/969 602/953
f 610/962 619/976 616/971 604/957
f 593/948 620/977 617/978 606/963
f 597/951 611/968 618/975 608/961
f 601/954 613/970 619/979 610/965
f 594/947 615/972 620/977 593/948
f 614/969 622/980 621/981 613/970
f 616/971 624/982 623/983 615/972
f 617/973 626/984 625/985 612/974
f 618/975 627/986 622/980 614/969
f 619/976 628/987 624/982 616/971
f 620/977 629/988 626/989 617/978
f 611/968 630/990 627/986 618/975
f 613/970 621/981 628/991 619/979
f 615/972 623/983 629/988 620/977
f 612/967 625/992 630/990 611/968
f 624/982 632/993 631/994 623/983
f 626/984 634/995 633/996 625/985
f 627/986 636/997 635/998 622/980
f 628/987 637/999 632/993 624/982
f 629/988 638/1000 634/1001 626/989
f 630/990 639/1002 636/997 627/986
f 621/981 640/1003 637/1004 628/991
f 623/983 631/994 638/1000 629/988
f 625/992 633/1005 639/1002 630/990
f 622/980 635/998 640/1003 621/981
f 634/995 642/1006 641/1007 633/996
f 636/997 644/1008 643/1009 635/998
f 637/999 646/1010 645/1011 632/993
f 638/1000 647/1012 642/1013 634/1001
f 639/1002 648/1014 644/1008 636/997
f 640/1015 649/1016 646/1017 637/1018
f 631/994 650/1019 647/1012 638/1000
f 633/996 641/1007 648/1020 639/1021
f 635/998 643/1009 649/1022 640/1003
f 632/993 645/1011 650/1019 631/994
f 465/744 723/1023 724/1024 468/745
f 609/966 740/1025 736/1026 600/955
f 592/949 732/1027 731/1028 591/946
f 600/955 736/1026 735/1029 599/952
f 644/1008 648/1014 652/1030 651/1031
f 646/1017 649/1016 654/1032 653/1033
f 647/1012 650/1019 656/1034 655/1035
f 648/1020 641/1007 657/1036 652/1037
f 649/1022 643/1009 658/1038 654/1039
f 650/1019 645/1011 659/1040 656/1034
f 641/1007 642/1006 660/1041 657/1036
f 643/1009 644/1008 651/1031 658/1038
f 645/1011 646/1010 653/1042 659/1040
f 642/1006 647/1043 655/1044 660/1041
f 655/1035 656/1034 662/1045 661/1046
f 652/1037 657/1036 664/1047 663/1048
f 654/1039 658/1038 666/1049 665/1050
f 656/1034 659/1040 667/1051 662/1045
f 657/1036 660/1041 668/1052 664/1047
f 658/1038 651/1031 669/1053 666/1049
f 659/1040 653/1042 670/1054 667/1051
f 660/1041 655/1044 661/1055 668/1052
f 651/1031 652/1030 663/1056 669/1053
f 653/1033 654/1032 665/1057 670/1058
f 663/1048 664/1047 672/1059 671/1060
f 665/1050 666/1049 674/1061 673/1062
f 662/1045 667/1051 676/1063 675/1064
f 664/1047 668/1052 677/1065 672/1059
f 666/1049 669/1053 678/1066 674/1061
f 667/1051 670/1054 679/1067 676/1063
f 668/1052 661/1055 680/1068 677/1065
f 669/1053 663/1056 671/1069 678/1066
f 670/1058 665/1057 673/1070 679/1071
f 661/1046 662/1045 675/1064 680/1072
f 675/1064 676/1063 682/1073 681/1074
f 672/1059 677/1065 684/1075 683/1076
f 674/1061 678/1066 686/1077 685/1078
f 676/1063 679/1067 687/1079 682/1073
f 677/1065 680/1068 688/1080 684/1075
f 678/1066 671/1069 689/1081 686/1077
f 679/1082 673/1083 690/1084 687/1085
f 680/1072 675/1064 681/1074 688/1086
f 671/1060 672/1059 683/1076 689/1087
f 673/1083 674/1061 685/1078 690/1084
f 683/1076 684/1075 692/1088 691/1089
f 685/1090 686/1091 694/1092 693/1093
f 682/1073 687/1079 696/1094 695/1095
f 684/1075 688/1080 697/1096 692/1088
f 686/1091 689/1097 698/1098 694/1092
f 687/1099 690/1100 699/1101 696/1102
f 688/1086 681/1074 700/1103 697/1104
f 689/1087 683/1076 691/1089 698/1105
f 690/1100 685/1090 693/1093 699/1101
f 681/1074 682/1073 695/1095 700/1103
f 698/1105 691/1089 702/1106 701/1107
f 699/1101 693/1093 704/1108 703/1109
f 700/1103 695/1095 706/1110 705/1111
f 691/1089 692/1088 707/1112 702/1106
f 693/1093 694/1092 708/1113 704/1108
f 695/1095 696/1094 709/1114 706/1110
f 692/1088 697/1096 710/1115 707/1112
f 694/1092 698/1098 701/1116 708/1113
f 696/1102 699/1101 703/1109 709/1117
f 697/1104 700/1103 705/1111 710/1118
f 703/1109 704/1108 712/1119 711/1120
f 705/1111 706/1110 714/1121 713/1122
f 702/1106 707/1112 716/1123 715/1124
f 704/1108 708/1113 717/1125 712/1119
f 706/1126 709/1127 718/1128 714/1129
f 707/1112 710/1115 719/1130 716/1123
f 708/1113 701/1116 720/1131 717/1125
f 709/1127 703/1132 711/1133 718/1128
f 710/1118 705/1111 713/1122 719/1134
f 701/1107 702/1106 715/1124 720/1135
f 737/1136 757/1137 760/1138 740/1139
f 721/1140 741/1141 742/1142 722/1143
f 736/1026 756/1144 755/1145 735/1029
f 738/1146 758/1147 752/1148 732/1149
f 725/1150 745/1151 746/1152 726/1153
f 731/1154 751/1155 757/1137 737/1136
f 726/1153 746/1152 750/1156 730/1157
f 733/828 753/1158 758/1147 738/829
f 473/1159 727/1160 721/1161 461/1162
f 607/960 739/1163 734/836 596/835
f 464/741 722/1164 728/1165 475/762
f 472/749 726/1153 730/1157 479/764
f 461/740 721/1166 722/1164 464/741
f 605/964 738/1167 732/1027 592/949
f 475/754 728/1168 723/1023 465/744
f 469/748 725/1150 726/1153 472/749
f 591/946 731/1028 737/832 603/956
f 479/764 730/1157 727/1160 473/1159
f 599/952 735/1029 739/1163 607/960
f 468/745 724/1024 729/825 477/756
f 744/1169 764/1170 769/1171 749/1172
f 760/1173 780/1174 776/1175 756/1176
f 748/1177 768/1178 763/1179 743/1180
f 754/1181 774/1182 773/1183 753/1184
f 747/1185 767/1186 761/1187 741/1188
f 759/1189 779/1190 774/1182 754/1181
f 750/1191 770/1192 767/1186 747/1185
f 755/1193 775/1194 779/1190 759/1189
f 722/1164 742/1195 748/1196 728/1165
f 729/825 749/1197 745/1198 725/826
f 732/1149 752/1148 751/1199 731/1200
f 735/1029 755/1145 759/1189 739/1163
f 730/1157 750/1156 747/1185 727/1160
f 739/1163 759/1189 754/1181 734/836
f 727/1160 747/1185 741/1188 721/1161
f 734/836 754/1181 753/1184 733/837
f 728/1168 748/1177 743/1180 723/1023
f 740/1025 760/1173 756/1176 736/1026
f 724/1024 744/1169 749/1172 729/825
f 723/1023 743/1180 744/1169 724/1024
f 772/1201 792/1202 791/1203 771/1204
f 769/1205 789/1206 785/1207 765/1208
f 762/1209 782/1210 788/1211 768/1212
f 777/1213 797/1214 800/1215 780/1216
f 761/1217 781/1218 782/1210 762/1209
f 776/1219 796/1220 795/1221 775/1222
f 778/1223 798/1224 792/1202 772/1201
f 765/1208 785/1207 786/1225 766/1226
f 743/1180 763/1179 764/1170 744/1169
f 753/1158 773/1227 778/1228 758/1147
f 746/1152 766/1229 770/1192 750/1156
f 751/1155 771/1230 777/1231 757/1137
f 745/1232 765/1233 766/1234 746/1235
f 758/1147 778/1228 772/1201 752/1148
f 756/1144 776/1175 775/1194 755/1145
f 741/1141 761/1217 762/1209 742/1142
f 757/1137 777/1231 780/1216 760/1138
f 742/1142 762/1209 768/1212 748/1236
f 749/1197 769/1171 765/1233 745/1198
f 752/1148 772/1201 771/1204 751/1199
f 791/1237 811/1238 817/1239 797/1240
f 786/1241 806/1242 810/1243 790/1244
f 793/1245 813/1246 818/1247 798/1248
f 783/1249 803/1250 804/1251 784/1252
f 784/1252 804/1251 809/1253 789/1254
f 800/1255 820/1256 816/1257 796/1258
f 788/1259 808/1260 803/1261 783/1262
f 794/1263 814/1264 813/1265 793/1266
f 775/1222 795/1221 799/1267 779/1268
f 770/1192 790/1269 787/1270 767/1186
f 779/1268 799/1267 794/1271 774/1272
f 767/1186 787/1270 781/1273 761/1187
f 774/1272 794/1271 793/1266 773/1274
f 768/1178 788/1275 783/1276 763/1179
f 780/1216 800/1215 796/1258 776/1277
f 764/1278 784/1252 789/1254 769/1205
f 763/1279 783/1249 784/1252 764/1278
f 773/1227 793/1245 798/1248 778/1228
f 766/1229 786/1241 790/1244 770/1192
f 771/1230 791/1237 797/1240 777/1231
f 807/1280 827/1281 821/1282 801/1283
f 819/1284 839/1285 834/1286 814/1287
f 810/1288 830/1289 827/1290 807/1291
f 815/1292 835/1293 839/1285 819/1284
f 812/1294 832/1295 831/1296 811/1297
f 809/1298 829/1299 825/1300 805/1301
f 802/1302 822/1303 828/1304 808/1305
f 817/1306 837/1307 840/1308 820/1309
f 785/1207 805/1310 806/1311 786/1225
f 798/1224 818/1247 812/1312 792/1202
f 796/1220 816/1313 815/1314 795/1221
f 781/1218 801/1315 802/1316 782/1210
f 797/1214 817/1239 820/1309 800/1215
f 782/1210 802/1316 808/1305 788/1211
f 789/1206 809/1253 805/1301 785/1207
f 792/1317 812/1294 811/1297 791/1237
f 795/1221 815/1314 819/1284 799/1267
f 790/1269 810/1243 807/1291 787/1270
f 799/1267 819/1284 814/1287 794/1271
f 787/1318 807/1280 801/1283 781/1218
f 827/1281 825/1319 829/1320 821/1282
f 830/1289 826/1321 825/1322 827/1290
f 824/1323 822/1324 821/1282 829/1320
f 823/1325 828/1304 822/1303 824/1323
f 837/1326 831/1327 839/1328 835/1329
f 840/1308 837/1307 835/1329 836/1330
f 834/1331 839/1328 831/1327 832/1295
f 833/1332 834/1333 832/1334 838/1335
f 814/1264 834/1286 833/1336 813/1265
f 808/1305 828/1304 823/1325 803/1261
f 820/1256 840/1308 836/1330 816/1257
f 804/1251 824/1337 829/1299 809/1253
f 803/1250 823/1338 824/1337 804/1251
f 813/1246 833/1332 838/1335 818/1247
f 806/1242 826/1321 830/1289 810/1243
f 811/1238 831/1296 837/1326 817/1239
f 805/1301 825/1300 826/1339 806/1311
f 818/1340 838/1341 832/1295 812/1294
f 816/1313 836/1342 835/1293 815/1314
f 801/1315 821/1282 822/1324 802/1316
f 712/1119 852/1343 851/1344 711/1120
f 587/939 847/1345 850/1346 590/943
f 586/935 846/1347 845/1348 585/936
f 711/1133 851/1349 858/1350 718/1128
f 585/936 845/1348 849/1351 589/942
f 590/943 850/1346 846/1352 586/945
f 718/1128 858/1350 854/1353 714/1129
f 720/1131 860/1354 857/1355 717/1125
f 588/941 848/1356 842/1357 582/930
f 714/1121 854/1358 853/1359 713/1122
f 717/1125 857/1355 852/1343 712/1119
f 589/944 849/1360 844/1361 584/932
f 584/932 844/1361 843/1362 583/933
f 582/930 842/1357 841/1363 581/931
f 715/1124 855/1364 860/1365 720/1135
f 716/1123 856/1366 855/1364 715/1124
f 713/1122 853/1359 859/1367 719/1134
f 581/938 841/1368 847/1345 587/939
f 719/1130 859/1369 856/1366 716/1123
f 583/940 843/1370 848/1356 588/941
f 852/1343 872/1371 871/1372 851/1344
f 853/1359 873/1373 879/1374 859/1367
f 854/1358 874/1375 873/1373 853/1359
f 860/1354 880/1376 877/1377 857/1355
f 849/1360 869/1378 864/1379 844/1361
f 856/1366 876/1380 875/1381 855/1364
f 858/1382 878/1383 874/1375 854/1358
f 851/1349 871/1384 878/1385 858/1350
f 855/1364 875/1381 880/1386 860/1365
f 846/1347 866/1387 865/1388 845/1348
f 844/1361 864/1379 863/1389 843/1362
f 848/1356 868/1390 862/1391 842/1357
f 847/1345 867/1392 870/1393 850/1346
f 850/1346 870/1393 866/1394 846/1352
f 842/1357 862/1391 861/1395 841/1363
f 843/1370 863/1396 868/1390 848/1356
f 859/1369 879/1397 876/1380 856/1366
f 845/1348 865/1388 869/1398 849/1351
f 857/1355 877/1377 872/1371 852/1343
f 841/1368 861/1399 867/1392 847/1345
f 868/1390 888/1400 882/1401 862/1391
f 867/1392 887/1402 890/1403 870/1393
f 870/1393 890/1403 886/1404 866/1394
f 862/1391 882/1401 881/1405 861/1395
f 863/1396 883/1406 888/1400 868/1390
f 879/1397 899/1407 896/1408 876/1380
f 865/1388 885/1409 889/1410 869/1398
f 877/1377 897/1411 892/1412 872/1371
f 861/1399 881/1413 887/1402 867/1392
f 872/1371 892/1412 891/1414 871/1372
f 873/1373 893/1415 899/1416 879/1374
f 874/1375 894/1417 893/1415 873/1373
f 880/1376 900/1418 897/1411 877/1377
f 869/1378 889/1419 884/1420 864/1379
f 876/1380 896/1408 895/1421 875/1381
f 878/1422 898/1423 894/1424 874/1425
f 871/1384 891/1426 898/1423 878/1385
f 875/1381 895/1421 900/1427 880/1386
f 866/1387 886/1428 885/1409 865/1388
f 864/1379 884/1420 883/1429 863/1389
f 889/1430 909/1431 904/1432 884/1433
f 896/1408 916/1434 915/1435 895/1421
f 898/1423 918/1436 914/1437 894/1424
f 891/1426 911/1438 918/1436 898/1423
f 895/1421 915/1435 920/1439 900/1427
f 886/1428 906/1440 905/1441 885/1409
f 884/1433 904/1432 903/1442 883/1443
f 888/1400 908/1444 902/1445 882/1401
f 887/1402 907/1446 910/1447 890/1403
f 890/1403 910/1447 906/1448 886/1404
f 882/1401 902/1445 901/1449 881/1405
f 883/1406 903/1450 908/1444 888/1400
f 899/1407 919/1451 916/1434 896/1408
f 885/1409 905/1441 909/1431 889/1410
f 897/1411 917/1452 912/1453 892/1412
f 881/1413 901/1454 907/1446 887/1402
f 892/1412 912/1453 911/1455 891/1414
f 893/1456 913/1457 919/1451 899/1407
f 894/1424 914/1437 913/1458 893/1459
f 900/1418 920/1460 917/1452 897/1411
f 444/723 443/722 903/1461 904/1462
f 450/1463 446/1464 906/1465 910/1466
f 459/1467 456/1468 916/1469 919/1470
f 441/1471 447/1472 907/1473 901/1474
f 454/739 453/738 913/1475 914/1476
f 456/1468 455/1477 915/1478 916/1469
f 451/717 458/716 918/1479 911/1480
f 446/721 445/720 905/1481 906/1482
f 447/1472 450/1463 910/1466 907/1473
f 443/722 448/732 908/1483 903/1461
f 457/1484 452/1485 912/1486 917/1487
f 453/738 459/733 919/1488 913/1475
f 449/1489 444/723 904/1462 909/1490
f 458/1491 454/739 914/1476 918/1492
f 455/1477 460/1493 920/1494 915/1478
f 448/1495 442/1496 902/1497 908/1498
f 442/1496 441/1471 901/1474 902/1497
f 445/1499 449/1500 909/1431 905/1441
f 452/1501 451/717 911/1480 912/1502
f 460/1493 457/1484 917/1487 920/1494