<svg viewBox="0 0 400 300" fill="none" xmlns="http://www.w3.org/2000/svg"><g transform="translate(100,25)"><g><rect x="0" y="0" width="200" height="250" rx="8" fill="#F5F0E4" stroke="#F5F0E4" stroke-width="2"/><path d="M0 242C10 248,20 240,30 245,40 240,50 245,60 240,70 245,80 240,90 245,100 240,110 245,120 240,130 245,140 240,150 245,160 240,170 245,180 240,190 245,200 242V250H0Z" fill="#F5F0E4" stroke="#F5F0E4" stroke-width="2"/><g transform="translate(20,30)"><line x1="0" y1="0" x2="160" y2="0" stroke="#F5F0E4" stroke-width="2"/><line x1="0" y1="20" x2="160" y2="20" stroke="#F5F0E4" stroke-width="2" style="animation-delay:-.8s"/><line x1="0" y1="40" x2="160" y2="40" stroke="#F5F0E4" stroke-width="2"/><line x1="0" y1="60" x2="160" y2="60" stroke="#F5F0E4" stroke-width="2" style="animation-delay:-.6s"/><line x1="0" y1="80" x2="160" y2="80" stroke="#F5F0E4" stroke-width="2"/><line x1="0" y1="100" x2="160" y2="100" stroke="#F5F0E4" stroke-width="2" style="animation-delay:-.4s"/></g><g transform="translate(0,180)"><rect x="0" y="0" width="200" height="60" rx="8" fill="#1A1A17"/><line x1="20" y1="30" x2="180" y2="30" stroke="#FFF" stroke-width="4"/></g></g></g><g transform="translate(150,190)"><g><path d="M0 10L8 18L20 0" stroke="#F5F0E4" stroke-width="4" fill="none"/></g></g><g transform="translate(280,150)"><g><path d="M20 25L10 25L8 10L30 10L32 25L22 25Z" fill="#F5F0E4"/><circle cx="12" cy="30" r="3" fill="#F5F0E4"/><circle cx="28" cy="30" r="3" fill="#F5F0E4"/><path d="M10 10L15 5L25 5L30 10" stroke="#F5F0E4" stroke-width="2" fill="none"/></g></g></svg>