# Exported from MakeClothes (TM)
# author punkduck
# license CC BY 3.0
# homepage http://www.makehuman.org/
v 1.6864 -8.0026 -0.1235
v 1.6797 -7.8475 -0.1320
v 1.6640 -7.7390 -0.1225
v 1.3070 -8.1338 1.5770
v 1.2969 -8.0420 1.5624
v 1.5550 -7.8478 1.5253
v 1.6225 -7.8424 1.5257
v 1.7933 -7.8511 1.5141
v 1.8393 -7.8526 1.5040
v 1.3318 -7.9283 1.5399
v 1.4656 -7.8064 1.3481
v 1.3688 -7.8440 1.3462
v 1.7295 -7.7952 1.3510
v 1.6718 -7.7931 1.3534
v 1.9295 -7.8228 1.2954
v 1.8762 -7.8087 1.3159
v 2.1062 -7.8729 1.2220
v 2.0628 -7.8566 1.2331
v 2.0209 -7.8502 1.2574
v 2.1546 -7.9175 1.2160
v 2.1985 -7.9855 1.2389
v 1.9792 -7.8334 1.2717
v 1.8267 -7.7992 1.3305
v 1.7838 -7.8024 1.3399
v 1.6028 -7.7920 1.3566
v 1.5344 -7.7913 1.3549
v 1.4320 -7.7831 1.1882
v 1.3894 -7.8363 1.1951
v 1.6984 -7.7214 1.1851
v 1.6322 -7.7170 1.1852
v 1.9381 -7.7558 1.1107
v 1.8766 -7.7446 1.1423
v 2.1989 -7.9799 1.0840
v 2.0830 -7.8243 1.0237
v 1.5863 -7.6036 0.8531
v 1.6514 -7.5811 0.8522
v 1.3940 -7.8528 1.0481
v 1.3779 -8.0453 1.0371
v 1.8159 -7.7275 1.1621
v 1.7597 -7.7256 1.1762
v 1.5641 -7.7329 1.2037
v 1.4947 -7.7407 1.2059
v 1.6964 -8.1179 -0.1198
v 1.3820 -7.7624 0.9900
v 1.3556 -7.8465 1.0795
v 1.6661 -7.6322 1.0238
v 1.5955 -7.6193 0.9979
v 1.9294 -7.6570 0.9224
v 1.8619 -7.6476 0.9765
v 2.1360 -7.8394 0.7701
v 2.0756 -7.7772 0.7968
v 2.2065 -7.9492 0.7746
v 1.7637 -7.5650 0.8406
v 1.7962 -7.6390 0.9994
v 1.7316 -7.6339 1.0156
v 1.5066 -7.6232 0.9932
v 1.4423 -7.6843 0.9998
v 1.3872 -7.8135 0.7727
v 1.6422 -7.5296 0.8940
v 1.5727 -7.5428 0.9092
v 1.9039 -7.5785 0.8333
v 1.8203 -7.5336 0.8632
v 1.9954 -7.6622 0.2029
v 2.0422 -7.7314 0.7115
v 2.1734 -7.8948 0.7484
v 2.1576 -7.9455 0.5676
v 1.8211 -7.5742 0.8278
v 1.7602 -7.5235 0.8760
v 1.7040 -7.5238 0.8831
v 1.4919 -7.6077 0.9209
v 1.3939 -7.7461 0.7463
v 1.3083 -7.9138 1.3400
v 1.2797 -8.0502 1.3447
v 1.2929 -8.1535 1.3649
v 1.3224 -7.9235 1.1858
v 1.3025 -8.0464 1.1941
v 1.3203 -8.1591 1.1549
v 1.3183 -7.9259 1.0818
v 1.3586 -8.0453 0.9781
v 1.3815 -8.1637 0.9961
v 1.3925 -8.0413 0.8122
v 1.4070 -8.1645 0.8163
v 2.2187 -8.0623 1.2563
v 2.2009 -8.1521 1.2653
v 2.2075 -8.0542 0.9931
v 2.1981 -8.1568 0.8066
v 2.1936 -8.0485 0.7839
v 2.1741 -8.1604 0.7724
v 2.1826 -8.0346 0.5738
v 2.1586 -8.1631 0.5786
v 2.0476 -8.1324 0.0670
v 2.0352 -8.0071 0.0728
v 1.5107 -8.0025 0.1543
v 1.5052 -8.1498 0.1639
v 1.4850 -8.0107 0.2947
v 1.4718 -8.1633 0.3084
v 1.4454 -8.1693 0.4858
v 1.5806 -7.9898 -0.0192
v 1.8182 -8.1164 -0.1311
v 1.8091 -7.9984 -0.1415
v 1.5890 -8.1326 -0.0319
v 1.9624 -8.1240 -0.0762
v 1.9636 -8.0052 -0.0818
v 1.4531 -8.0112 0.4816
v 1.3958 -7.8618 0.7620
v 1.3832 -7.9339 0.8054
v 1.7874 -7.6669 -0.1071
v 1.7789 -7.5664 -0.0840
v 1.7921 -7.7568 -0.1199
v 1.7975 -7.8550 -0.1314
v 1.8916 -7.6902 -0.0486
v 1.8702 -7.5984 -0.0253
v 1.9191 -7.7901 -0.0689
v 1.9489 -7.8798 -0.0801
v 1.9711 -7.7306 0.0794
v 1.9962 -7.8054 0.0734
v 2.0203 -7.9038 0.0735
v 1.4592 -7.8984 0.4809
v 1.4649 -7.7864 0.4486
v 1.4541 -7.7051 0.4426
v 1.4447 -7.6414 0.4224
v 1.4583 -7.6277 0.2822
v 1.4846 -7.8765 0.2872
v 1.4736 -7.6920 0.2831
v 1.4826 -7.7693 0.2803
v 1.5138 -7.5937 0.1331
v 1.5186 -7.8686 0.1432
v 1.5105 -7.7608 0.1479
v 1.5122 -7.6732 0.1414
v 1.6614 -7.5548 -0.0875
v 1.5629 -7.6534 0.0075
v 1.5634 -7.7478 -0.0193
v 1.5753 -7.8502 -0.0322
v 1.5709 -7.5657 0.0033
v 2.0353 -7.8149 1.1022
v 2.2268 -8.0503 0.9640
v 1.6576 -7.6562 -0.1055
v 2.2022 -7.9577 1.0699
v 2.0073 -7.6820 0.3497
v 2.0351 -7.7584 0.3673
v 2.0013 -7.7772 1.0885
v 2.1585 -7.9070 1.0817
v 1.9810 -7.6376 0.8365
v 2.0397 -7.7045 0.8727
v 1.8989 -7.6061 0.8117
v 2.1084 -7.8639 1.0631
v 2.0474 -7.7049 0.5982
v 1.9586 -7.6327 0.0831
v 2.1188 -8.1555 0.3901
v 2.0800 -7.9348 0.3837
v 2.1084 -8.0308 0.3891
v 1.4356 -8.1654 0.6537
v 1.4236 -8.0210 0.6473
v 1.4197 -7.8968 0.6287
v 1.4238 -7.7993 0.6016
v 1.4351 -7.7339 0.5845
v 1.4361 -7.6711 0.5642
v 2.1891 -8.1568 0.8399
v 2.0864 -7.7570 0.5882
v 2.0107 -7.7430 0.2102
v 2.1221 -7.8564 0.5716
v 2.1105 -7.8081 0.7851
v 2.0280 -7.8200 0.2152
v 2.0508 -7.8430 0.3723
v 2.0527 -7.9187 0.2252
v 2.0781 -8.0213 0.2231
v 2.0945 -8.1484 0.2167
v 1.5324 -7.9091 1.8826
v 1.4617 -7.9211 1.9109
v 2.1570 -8.0556 1.6994
v 1.7730 -7.9083 1.8727
v 1.7189 -7.9036 1.8868
v 1.9529 -7.9221 1.7479
v 2.0410 -7.9444 1.7393
v 2.1424 -8.0809 1.7487
v 2.1021 -7.9849 1.7390
v 2.1459 -8.0224 1.7279
v 1.3855 -7.9615 1.8990
v 1.8815 -7.9153 1.8041
v 1.8248 -7.9129 1.8409
v 1.6609 -7.9026 1.8864
v 1.5966 -7.9051 1.8798
v 1.3407 -8.0194 1.8852
v 1.3510 -8.0601 1.8864
v 1.9843 -7.8750 1.4564
v 2.1938 -7.9936 1.4430
v 2.1542 -7.9382 1.4246
v 2.0238 -7.8812 1.4338
v 2.2099 -8.1276 1.4879
v 2.0596 -7.8869 1.3996
v 2.1006 -7.9038 1.4051
v 1.8916 -7.8638 1.4950
v 1.9413 -7.8713 1.4776
v 1.6906 -7.8487 1.5318
v 1.7478 -7.8487 1.5272
v 2.2193 -8.0623 1.4866
v 1.4175 -7.8741 1.5272
v 1.4898 -7.8554 1.5258
v 1.3278 -8.0974 1.7541
v 1.3376 -8.0328 1.7359
v 1.5690 -7.8732 1.6978
v 1.6308 -7.8682 1.6989
v 1.7988 -7.8803 1.6844
v 1.8481 -7.8804 1.6736
v 1.3792 -7.9488 1.7171
v 1.9824 -7.9023 1.6086
v 2.1817 -8.0211 1.6157
v 2.1392 -7.9737 1.5949
v 2.0319 -7.9135 1.5900
v 2.1827 -8.1045 1.6303
v 2.0643 -7.9161 1.5273
v 2.0929 -7.9380 1.5726
v 1.9065 -7.8879 1.6304
v 1.9421 -7.8874 1.5811
v 1.6942 -7.8686 1.6986
v 1.7507 -7.8754 1.6966
v 2.1930 -8.0593 1.6216
v 1.4452 -7.8972 1.7069
v 1.5124 -7.8827 1.6990
v 1.5638 -7.9356 2.0453
v 1.4970 -7.9397 2.0187
v 1.7115 -7.9823 2.0840
v 1.7797 -7.9891 2.0681
v 1.8323 -7.9874 2.0456
v 1.8954 -7.9970 2.0065
v 1.9418 -8.0074 1.9741
v 1.4936 -7.9973 2.0403
v 1.9894 -8.0154 1.9369
v 1.7925 -7.9408 1.9936
v 1.7402 -7.9355 2.0243
v 1.9439 -7.9587 1.8833
v 2.0034 -7.9649 1.8278
v 2.0821 -8.0371 1.8476
v 2.0324 -8.0279 1.8989
v 2.0591 -7.9708 1.7807
v 1.5807 -7.9789 2.0820
v 1.6617 -7.9790 2.0906
v 1.4295 -7.9778 1.9798
v 1.8891 -7.9447 1.9402
v 1.8415 -7.9461 1.9653
v 1.6878 -7.9331 2.0414
v 1.6233 -7.9377 2.0487
v 1.4419 -8.0105 2.0114
v 1.3965 -8.0018 1.9664
v 1.3999 -8.0252 1.9733
v 1.3815 -8.1609 0.8123
v 1.3443 -7.9756 1.0843
v 1.4155 -7.7840 0.9683
v 1.3483 -7.8900 0.9688
v 2.0675 -7.8296 1.0021
v 1.7098 -7.5714 0.8478
v 1.5057 -7.6631 0.8783
v 1.3857 -7.9219 1.0601
v 1.3929 -8.0304 0.9564
v 2.1795 -8.1317 0.7850
v 2.1886 -8.0349 0.9423
v 2.1559 -7.9630 1.0483
v 2.1221 -7.9139 1.0600
v 1.9704 -7.6598 0.8149
v 2.0252 -7.7207 0.8510
v 2.0916 -7.8655 1.0414
v 1.4065 -8.1354 0.7906
v 2.1416 -7.9743 1.0527
v 2.0331 -7.7716 0.7865
v 1.9588 -7.6566 0.2103
v 2.0045 -7.7258 0.7075
v 1.4394 -7.7405 0.7398
v 1.7671 -7.5607 -0.0328
v 1.8374 -7.5927 0.0203
v 1.4846 -7.6357 0.4395
v 1.5025 -7.6220 0.3095
v 1.5530 -7.5881 0.1714
v 1.6757 -7.5491 -0.0465
v 1.6057 -7.5601 0.0418
v 1.9786 -7.6764 0.3531
v 2.0001 -7.6992 0.6025
v 1.9050 -7.6270 0.1009
v 1.4863 -7.6654 0.5709
v 1.4081 -7.9700 1.0530
v 1.4104 -7.8843 0.9459
v 1.3267 -8.1220 1.5495
v 1.3133 -8.1417 1.3526
v 1.3389 -8.1473 1.1578
v 2.1823 -8.1403 1.2602
v 2.1726 -8.1473 0.8655
v 2.1306 -8.0691 1.7088
v 1.3737 -8.0483 1.8355
v 2.1924 -8.1158 1.4667
v 1.3537 -8.0856 1.7138
v 2.1679 -8.0927 1.5988
v 1.7136 -7.9705 2.0267
v 1.7787 -7.9773 2.0117
v 1.8307 -7.9756 1.9888
v 1.8929 -7.9852 1.9496
v 1.9383 -7.9956 1.9184
v 1.5005 -7.9855 1.9777
v 1.9845 -8.0036 1.8832
v 2.0728 -8.0253 1.8004
v 2.0258 -8.0161 1.8477
v 1.5868 -7.9671 2.0219
v 1.6656 -7.9672 2.0328
v 1.4488 -7.9987 1.9496
v 1.4097 -8.0134 1.9150
v 1.3925 -8.1516 0.9440
v 1.6990 -8.1084 -0.0250
v 1.2824 -8.1266 1.5895
v 1.4209 -8.1550 0.8435
v 2.1574 -8.1509 0.8028
v 2.1440 -8.1536 0.6230
v 2.0347 -8.1230 0.1482
v 1.5163 -8.1404 0.2382
v 1.4843 -8.1539 0.3723
v 1.4591 -8.1598 0.5369
v 1.8155 -8.1070 -0.0356
v 1.5963 -8.1231 0.0565
v 1.9533 -8.1146 0.0154
v 2.1156 -8.1461 0.4481
v 1.4483 -8.1559 0.6927
v 1.2675 -8.1485 1.3705
v 2.0796 -8.1390 0.2872
v 1.2968 -8.1548 1.1536
v 2.2328 -8.1470 1.2676
v 2.2189 -8.1548 0.8284
v 2.1683 -8.0678 1.7668
v 1.3316 -8.0446 1.9094
v 2.2408 -8.1198 1.4974
v 1.3023 -8.0862 1.7724
v 2.2112 -8.0940 1.6445
v 1.7128 -7.9662 2.1127
v 1.7853 -7.9697 2.0928
v 1.8410 -7.9746 2.0696
v 1.9072 -7.9839 2.0303
v 1.9560 -7.9914 1.9977
v 1.4983 -7.9835 2.0797
v 2.0061 -8.0071 1.9596
v 2.1037 -8.0343 1.8686
v 2.0515 -8.0183 1.9209
v 1.5798 -7.9691 2.1088
v 1.6611 -7.9652 2.1186
v 1.4326 -7.9976 2.0367
v 1.3893 -8.0058 1.9989
v 1.3574 -8.1596 0.9157
v 1.6967 -8.1115 -0.1626
v 1.3895 -8.1634 0.8040
v 2.2034 -8.1588 0.7586
v 2.1848 -8.1619 0.5585
v 2.0703 -8.1277 0.0302
v 1.4934 -8.1471 0.1303
v 1.4578 -8.1621 0.2795
v 1.4297 -8.1687 0.4627
v 1.8263 -8.1099 -0.1743
v 1.5824 -8.1279 -0.0719
v 1.9797 -8.1184 -0.1176
v 2.1426 -8.1534 0.3638
v 1.4197 -8.1644 0.6361
v 2.1202 -8.1455 0.1848
v 1.2824 -8.2813 1.5895
v 1.2675 -8.3032 1.3705
v 1.2979 -8.3095 1.1536
v 2.2231 -8.3017 1.2676
v 2.2113 -8.3095 0.8284
v 2.1480 -8.2401 1.7668
v 1.3658 -8.1952 1.9068
v 2.2203 -8.2921 1.4974
v 1.3211 -8.2409 1.7724
v 2.1859 -8.2683 1.6445
v 1.7128 -8.1222 2.0867
v 1.7853 -8.1271 2.0713
v 1.8409 -8.1345 2.0496
v 1.9052 -8.1454 2.0150
v 1.9518 -8.1580 1.9866
v 1.5026 -8.1389 2.0425
v 1.9991 -8.1726 1.9520
v 2.0893 -8.2073 1.8686
v 2.0413 -8.1880 1.9173
v 1.5854 -8.1308 2.0695
v 1.6598 -8.1214 2.0866
v 1.4410 -8.1481 2.0097
v 1.4045 -8.1605 1.9791
v 1.3636 -8.3143 0.9157
v 1.6967 -8.2798 -0.1626
v 1.3944 -8.3148 0.8040
v 2.1954 -8.3135 0.7586
v 2.1559 -8.3166 0.5585
v 2.0703 -8.2965 0.0302
v 1.4934 -8.3059 0.1303
v 1.4578 -8.3140 0.2795
v 1.4297 -8.3185 0.4627
v 1.8263 -8.2809 -0.1743
v 1.5824 -8.2880 -0.0719
v 1.9797 -8.2853 -0.1176
v 2.1415 -8.3147 0.3638
v 1.4203 -8.3177 0.6361
v 2.1202 -8.3103 0.1848
v 1.4030 -8.2881 1.5156
v 1.3919 -8.3059 1.3628
v 1.4145 -8.3163 1.1857
v 2.1045 -8.3085 1.2248
v 2.0961 -8.3163 1.0012
v 2.0485 -8.2608 1.6598
v 1.4767 -8.2373 1.7933
v 2.1032 -8.2989 1.4204
v 1.4335 -8.2626 1.6643
v 2.0780 -8.2756 1.5603
v 1.6622 -8.1911 1.9220
v 1.7911 -8.1997 1.9087
v 1.9130 -8.2239 1.8388
v 1.5325 -8.2130 1.8592
v 2.0056 -8.2450 1.7425
v 1.4636 -8.3198 1.0254
v 1.7121 -8.2947 0.0313
v 1.4866 -8.3216 0.8558
v 2.0842 -8.3203 0.8146
v 2.0547 -8.3233 0.6774
v 1.9909 -8.3128 0.2479
v 1.5604 -8.3167 0.3005
v 1.5339 -8.3206 0.4506
v 1.5129 -8.3253 0.5995
v 1.8088 -8.2959 0.0217
v 1.6269 -8.3043 0.1649
v 1.9233 -8.3016 0.1277
v 2.0440 -8.3214 0.5191
v 1.5059 -8.3245 0.7369
v 2.0281 -8.3198 0.3736
v 1.3720 -8.0066 1.0235
v 1.3517 -7.9938 1.0312
v 1.3759 -7.8896 1.1417
v 1.4006 -7.8911 1.1459
v 1.3870 -7.9149 0.9287
v 1.3666 -7.9021 0.9364
v 1.3845 -7.7979 1.0469
v 1.4092 -7.7994 1.0511
v 1.4077 -7.8391 0.8399
v 1.3870 -7.8264 0.8476
v 1.4110 -7.7306 0.9742
v 1.4360 -7.7321 0.9784
v 1.4256 -7.7698 0.7317
v 1.4049 -7.7571 0.7394
v 1.4481 -7.6630 0.9238
v 1.4740 -7.6564 0.9213
v 2.0266 -7.7570 0.7091
v 2.0471 -7.7418 0.7110
v 1.9579 -7.6609 0.8349
v 1.9330 -7.6643 0.8447
v 2.0518 -7.8658 0.8181
v 2.0739 -7.8506 0.8200
v 2.0106 -7.7403 0.9290
v 1.9849 -7.7437 0.9387
v 2.1095 -7.9384 0.9121
v 2.1310 -7.9232 0.9141
v 2.0695 -7.8197 1.0230
v 2.0444 -7.8230 1.0322
v 2.1385 -8.0302 1.0278
v 2.1593 -8.0149 1.0298
v 2.1238 -7.8990 1.0948
v 2.0998 -7.9024 1.1045
v 1.3537 -7.9417 1.0865
v 1.3552 -7.8500 0.9917
v 1.3751 -7.7785 0.9109
v 1.4033 -7.7052 0.8430
v 1.4281 -7.7000 0.8260
v 2.0417 -7.7091 0.7793
v 2.1014 -7.7925 0.8733
v 2.1451 -7.8719 0.9673
v 2.1835 -7.9611 1.0725
v 2.0199 -7.7184 0.7832
v -1.6864 -8.0026 -0.1235
v -1.6797 -7.8475 -0.1320
v -1.6640 -7.7390 -0.1225
v -1.3070 -8.1338 1.5770
v -1.2969 -8.0420 1.5624
v -1.5550 -7.8478 1.5253
v -1.6225 -7.8424 1.5257
v -1.7933 -7.8511 1.5141
v -1.8388 -7.8526 1.5040
v -1.3318 -7.9283 1.5399
v -1.4656 -7.8064 1.3481
v -1.3688 -7.8440 1.3462
v -1.7295 -7.7952 1.3510
v -1.6718 -7.7931 1.3534
v -1.9276 -7.8228 1.2954
v -1.8760 -7.8087 1.3159
v -2.0998 -7.8729 1.2220
v -2.0571 -7.8566 1.2331
v -2.0156 -7.8502 1.2574
v -2.1477 -7.9175 1.2160
v -2.1922 -7.9855 1.2389
v -1.9755 -7.8334 1.2717
v -1.8267 -7.7992 1.3305
v -1.7838 -7.8024 1.3399
v -1.6028 -7.7920 1.3566
v -1.5344 -7.7913 1.3549
v -1.4320 -7.7831 1.1882
v -1.3894 -7.8363 1.1951
v -1.6984 -7.7214 1.1851
v -1.6322 -7.7170 1.1852
v -1.9381 -7.7558 1.1107
v -1.8766 -7.7446 1.1423
v -2.1986 -7.9799 1.0840
v -2.0830 -7.8243 1.0237
v -1.5863 -7.6036 0.8531
v -1.6514 -7.5811 0.8522
v -1.3940 -7.8528 1.0481
v -1.3779 -8.0453 1.0371
v -1.8159 -7.7275 1.1621
v -1.7597 -7.7256 1.1762
v -1.5641 -7.7329 1.2037
v -1.4947 -7.7407 1.2059
v -1.6964 -8.1179 -0.1198
v -1.3820 -7.7624 0.9900
v -1.3556 -7.8465 1.0795
v -1.6661 -7.6322 1.0238
v -1.5955 -7.6193 0.9979
v -1.9294 -7.6570 0.9224
v -1.8619 -7.6476 0.9765
v -2.1360 -7.8394 0.7701
v -2.0756 -7.7772 0.7968
v -2.2065 -7.9492 0.7746
v -1.7637 -7.5650 0.8406
v -1.7962 -7.6390 0.9994
v -1.7316 -7.6339 1.0156
v -1.5066 -7.6232 0.9932
v -1.4423 -7.6843 0.9998
v -1.3872 -7.8135 0.7727
v -1.6422 -7.5296 0.8940
v -1.5727 -7.5428 0.9092
v -1.9039 -7.5785 0.8333
v -1.8203 -7.5336 0.8632
v -1.9954 -7.6622 0.2029
v -2.0422 -7.7314 0.7115
v -2.1734 -7.8948 0.7484
v -2.1576 -7.9455 0.5676
v -1.8211 -7.5742 0.8278
v -1.7602 -7.5235 0.8760
v -1.7040 -7.5238 0.8831
v -1.4919 -7.6077 0.9209
v -1.3939 -7.7461 0.7463
v -1.3083 -7.9138 1.3400
v -1.2797 -8.0502 1.3447
v -1.2929 -8.1535 1.3649
v -1.3224 -7.9235 1.1858
v -1.3025 -8.0464 1.1941
v -1.3203 -8.1591 1.1549
v -1.3183 -7.9259 1.0818
v -1.3586 -8.0453 0.9781
v -1.3815 -8.1637 0.9961
v -1.3925 -8.0413 0.8122
v -1.4070 -8.1645 0.8163
v -2.2152 -8.0623 1.2563
v -2.2010 -8.1521 1.2653
v -2.2075 -8.0542 0.9931
v -2.1981 -8.1568 0.8066
v -2.1936 -8.0485 0.7839
v -2.1741 -8.1604 0.7724
v -2.1826 -8.0346 0.5738
v -2.1586 -8.1631 0.5786
v -2.0476 -8.1324 0.0670
v -2.0352 -8.0071 0.0728
v -1.5107 -8.0025 0.1543
v -1.5052 -8.1498 0.1639
v -1.4850 -8.0107 0.2947
v -1.4718 -8.1633 0.3084
v -1.4454 -8.1693 0.4858
v -1.5806 -7.9898 -0.0192
v -1.8182 -8.1164 -0.1311
v -1.8091 -7.9984 -0.1415
v -1.5890 -8.1326 -0.0319
v -1.9624 -8.1240 -0.0762
v -1.9636 -8.0052 -0.0818
v -1.4531 -8.0112 0.4816
v -1.3958 -7.8618 0.7620
v -1.3832 -7.9339 0.8054
v -1.7874 -7.6669 -0.1071
v -1.7789 -7.5664 -0.0840
v -1.7921 -7.7568 -0.1199
v -1.7975 -7.8550 -0.1314
v -1.8916 -7.6902 -0.0486
v -1.8702 -7.5984 -0.0253
v -1.9191 -7.7901 -0.0689
v -1.9489 -7.8798 -0.0801
v -1.9711 -7.7306 0.0794
v -1.9962 -7.8054 0.0734
v -2.0203 -7.9038 0.0735
v -1.4592 -7.8984 0.4809
v -1.4649 -7.7864 0.4486
v -1.4541 -7.7051 0.4426
v -1.4447 -7.6414 0.4224
v -1.4583 -7.6277 0.2822
v -1.4846 -7.8765 0.2872
v -1.4736 -7.6920 0.2831
v -1.4826 -7.7693 0.2803
v -1.5138 -7.5937 0.1331
v -1.5186 -7.8686 0.1432
v -1.5105 -7.7608 0.1479
v -1.5122 -7.6732 0.1414
v -1.6614 -7.5548 -0.0875
v -1.5629 -7.6534 0.0075
v -1.5634 -7.7478 -0.0193
v -1.5753 -7.8502 -0.0322
v -1.5709 -7.5657 0.0033
v -2.0353 -7.8149 1.1022
v -2.2268 -8.0503 0.9640
v -1.6576 -7.6562 -0.1055
v -2.2022 -7.9577 1.0699
v -2.0073 -7.6820 0.3497
v -2.0351 -7.7584 0.3673
v -2.0013 -7.7772 1.0885
v -2.1583 -7.9070 1.0817
v -1.9810 -7.6376 0.8365
v -2.0397 -7.7045 0.8727
v -1.8989 -7.6061 0.8117
v -2.1084 -7.8639 1.0631
v -2.0474 -7.7049 0.5982
v -1.9586 -7.6327 0.0831
v -2.1188 -8.1555 0.3901
v -2.0800 -7.9348 0.3837
v -2.1084 -8.0308 0.3891
v -1.4356 -8.1654 0.6537
v -1.4236 -8.0210 0.6473
v -1.4197 -7.8968 0.6287
v -1.4238 -7.7993 0.6016
v -1.4351 -7.7339 0.5845
v -1.4361 -7.6711 0.5642
v -2.1891 -8.1568 0.8399
v -2.0864 -7.7570 0.5882
v -2.0107 -7.7430 0.2102
v -2.1221 -7.8564 0.5716
v -2.1105 -7.8081 0.7851
v -2.0280 -7.8200 0.2152
v -2.0508 -7.8430 0.3723
v -2.0527 -7.9187 0.2252
v -2.0781 -8.0213 0.2231
v -2.0945 -8.1484 0.2167
v -1.5324 -7.9091 1.8826
v -1.4617 -7.9211 1.9109
v -2.1615 -8.0556 1.6994
v -1.7729 -7.9083 1.8727
v -1.7189 -7.9036 1.8868
v -1.9527 -7.9221 1.7479
v -2.0412 -7.9444 1.7393
v -2.1463 -8.0809 1.7487
v -2.1037 -7.9849 1.7390
v -2.1491 -8.0224 1.7279
v -1.3855 -7.9615 1.8990
v -1.8813 -7.9153 1.8041
v -1.8247 -7.9129 1.8409
v -1.6609 -7.9026 1.8864
v -1.5966 -7.9051 1.8798
v -1.3407 -8.0194 1.8852
v -1.3510 -8.0601 1.8864
v -1.9777 -7.8750 1.4564
v -2.1896 -7.9936 1.4430
v -2.1460 -7.9382 1.4246
v -2.0159 -7.8812 1.4338
v -2.2168 -8.1276 1.4879
v -2.0505 -7.8869 1.3996
v -2.0911 -7.9038 1.4051
v -1.8888 -7.8638 1.4950
v -1.9364 -7.8713 1.4776
v -1.6906 -7.8487 1.5318
v -1.7478 -7.8487 1.5272
v -2.2228 -8.0623 1.4866
v -1.4175 -7.8741 1.5272
v -1.4898 -7.8554 1.5258
v -1.3278 -8.0974 1.7541
v -1.3376 -8.0328 1.7359
v -1.5690 -7.8732 1.6978
v -1.6308 -7.8682 1.6989
v -1.7987 -7.8803 1.6844
v -1.8479 -7.8804 1.6736
v -1.3792 -7.9488 1.7171
v -1.9797 -7.9023 1.6086
v -2.1852 -8.0211 1.6157
v -2.1390 -7.9737 1.5949
v -2.0285 -7.9135 1.5900
v -2.1898 -8.1045 1.6303
v -2.0588 -7.9161 1.5273
v -2.0898 -7.9380 1.5726
v -1.9054 -7.8879 1.6304
v -1.9392 -7.8874 1.5811
v -1.6942 -7.8686 1.6986
v -1.7506 -7.8754 1.6966
v -2.1986 -8.0593 1.6216
v -1.4452 -7.8972 1.7069
v -1.5124 -7.8827 1.6990
v -1.5638 -7.9356 2.0453
v -1.4970 -7.9397 2.0187
v -1.7115 -7.9823 2.0840
v -1.7797 -7.9891 2.0681
v -1.8323 -7.9874 2.0456
v -1.8953 -7.9970 2.0065
v -1.9417 -8.0074 1.9741
v -1.4936 -7.9973 2.0403
v -1.9893 -8.0154 1.9369
v -1.7924 -7.9408 1.9936
v -1.7402 -7.9355 2.0243
v -1.9438 -7.9587 1.8833
v -2.0033 -7.9649 1.8278
v -2.0821 -8.0371 1.8476
v -2.0324 -8.0279 1.8989
v -2.0596 -7.9708 1.7807
v -1.5807 -7.9789 2.0821
v -1.6617 -7.9790 2.0906
v -1.4295 -7.9778 1.9798
v -1.8889 -7.9447 1.9402
v -1.8414 -7.9461 1.9653
v -1.6878 -7.9331 2.0414
v -1.6233 -7.9377 2.0488
v -1.4419 -8.0105 2.0114
v -1.3965 -8.0018 1.9664
v -1.3999 -8.0252 1.9733
v -1.3815 -8.1609 0.8123
v -1.3443 -7.9756 1.0843
v -1.4155 -7.7840 0.9683
v -1.3483 -7.8900 0.9688
v -2.0675 -7.8296 1.0021
v -1.7098 -7.5714 0.8478
v -1.5057 -7.6631 0.8783
v -1.3857 -7.9219 1.0601
v -1.3929 -8.0304 0.9564
v -2.1795 -8.1317 0.7850
v -2.1886 -8.0349 0.9423
v -2.1559 -7.9630 1.0483
v -2.1221 -7.9139 1.0600
v -1.9704 -7.6598 0.8149
v -2.0252 -7.7207 0.8510
v -2.0916 -7.8655 1.0414
v -1.4065 -8.1354 0.7906
v -2.1416 -7.9743 1.0527
v -2.0331 -7.7716 0.7865
v -1.9588 -7.6566 0.2103
v -2.0045 -7.7258 0.7075
v -1.4394 -7.7405 0.7398
v -1.7671 -7.5607 -0.0328
v -1.8374 -7.5927 0.0203
v -1.4846 -7.6357 0.4395
v -1.5025 -7.6220 0.3095
v -1.5530 -7.5881 0.1714
v -1.6757 -7.5491 -0.0465
v -1.6057 -7.5601 0.0418
v -1.9786 -7.6764 0.3531
v -2.0001 -7.6992 0.6025
v -1.9050 -7.6270 0.1009
v -1.4863 -7.6654 0.5709
v -1.4081 -7.9700 1.0530
v -1.4104 -7.8843 0.9459
v -1.3267 -8.1220 1.5495
v -1.3133 -8.1417 1.3526
v -1.3389 -8.1473 1.1578
v -2.1816 -8.1403 1.2602
v -2.1726 -8.1473 0.8655
v -2.1349 -8.0691 1.7088
v -1.3737 -8.0483 1.8355
v -2.1976 -8.1158 1.4667
v -1.3537 -8.0856 1.7138
v -2.1741 -8.0927 1.5988
v -1.7136 -7.9705 2.0267
v -1.7786 -7.9773 2.0117
v -1.8306 -7.9756 1.9888
v -1.8928 -7.9852 1.9497
v -1.9382 -7.9956 1.9184
v -1.5005 -7.9855 1.9777
v -1.9844 -8.0036 1.8832
v -2.0735 -8.0253 1.8003
v -2.0257 -8.0161 1.8477
v -1.5868 -7.9671 2.0219
v -1.6656 -7.9672 2.0328
v -1.4488 -7.9987 1.9496
v -1.4097 -8.0134 1.9150
v -1.3925 -8.1516 0.9440
v -1.6990 -8.1084 -0.0250
v -1.2824 -8.1266 1.5895
v -1.4209 -8.1550 0.8435
v -2.1574 -8.1509 0.8028
v -2.1440 -8.1536 0.6230
v -2.0347 -8.1230 0.1482
v -1.5163 -8.1404 0.2382
v -1.4843 -8.1539 0.3723
v -1.4591 -8.1598 0.5369
v -1.8155 -8.1070 -0.0356
v -1.5963 -8.1231 0.0565
v -1.9533 -8.1146 0.0154
v -2.1156 -8.1461 0.4481
v -1.4483 -8.1559 0.6927
v -1.2675 -8.1485 1.3705
v -2.0796 -8.1390 0.2872
v -1.2968 -8.1548 1.1536
v -2.2331 -8.1470 1.2676
v -2.2189 -8.1548 0.8284
v -2.1719 -8.0678 1.7668
v -1.3316 -8.0446 1.9094
v -2.2484 -8.1198 1.4974
v -1.3023 -8.0862 1.7724
v -2.2184 -8.0940 1.6445
v -1.7128 -7.9662 2.1127
v -1.7853 -7.9697 2.0928
v -1.8410 -7.9746 2.0696
v -1.9071 -7.9839 2.0303
v -1.9559 -7.9914 1.9978
v -1.4983 -7.9835 2.0797
v -2.0060 -8.0071 1.9596
v -2.1037 -8.0343 1.8686
v -2.0514 -8.0183 1.9209
v -1.5798 -7.9691 2.1088
v -1.6611 -7.9652 2.1186
v -1.4326 -7.9976 2.0367
v -1.3893 -8.0058 1.9989
v -1.3574 -8.1596 0.9157
v -1.6967 -8.1115 -0.1626
v -1.3895 -8.1634 0.8040
v -2.2034 -8.1588 0.7586
v -2.1848 -8.1619 0.5585
v -2.0703 -8.1277 0.0302
v -1.4934 -8.1471 0.1303
v -1.4578 -8.1621 0.2795
v -1.4297 -8.1687 0.4627
v -1.8263 -8.1099 -0.1743
v -1.5824 -8.1279 -0.0719
v -1.9797 -8.1184 -0.1176
v -2.1426 -8.1534 0.3638
v -1.4197 -8.1644 0.6361
v -2.1202 -8.1455 0.1848
v -1.2824 -8.2813 1.5895
v -1.2675 -8.3032 1.3705
v -1.2979 -8.3095 1.1536
v -2.2247 -8.3017 1.2676
v -2.2113 -8.3095 0.8284
v -2.1494 -8.2401 1.7668
v -1.3658 -8.1952 1.9068
v -2.2281 -8.2921 1.4974
v -1.3211 -8.2409 1.7724
v -2.1924 -8.2683 1.6445
v -1.7128 -8.1222 2.0867
v -1.7853 -8.1271 2.0713
v -1.8409 -8.1345 2.0496
v -1.9051 -8.1454 2.0150
v -1.9518 -8.1580 1.9866
v -1.5026 -8.1389 2.0425
v -1.9991 -8.1726 1.9520
v -2.0893 -8.2073 1.8686
v -2.0413 -8.1880 1.9173
v -1.5854 -8.1308 2.0695
v -1.6598 -8.1214 2.0866
v -1.4410 -8.1481 2.0097
v -1.4045 -8.1605 1.9791
v -1.3636 -8.3143 0.9157
v -1.6967 -8.2798 -0.1626
v -1.3944 -8.3148 0.8040
v -2.1954 -8.3135 0.7586
v -2.1559 -8.3166 0.5585
v -2.0703 -8.2965 0.0302
v -1.4934 -8.3059 0.1303
v -1.4578 -8.3140 0.2795
v -1.4297 -8.3185 0.4627
v -1.8263 -8.2809 -0.1743
v -1.5824 -8.2880 -0.0719
v -1.9797 -8.2853 -0.1176
v -2.1415 -8.3147 0.3638
v -1.4203 -8.3177 0.6361
v -2.1202 -8.3103 0.1848
v -1.4030 -8.2881 1.5156
v -1.3919 -8.3059 1.3628
v -1.4145 -8.3163 1.1857
v -2.1047 -8.3085 1.2248
v -2.0961 -8.3163 1.0012
v -2.0519 -8.2608 1.6598
v -1.4767 -8.2373 1.7933
v -2.1077 -8.2989 1.4204
v -1.4335 -8.2626 1.6643
v -2.0836 -8.2756 1.5603
v -1.6622 -8.1911 1.9220
v -1.7911 -8.1997 1.9087
v -1.9130 -8.2239 1.8388
v -1.5325 -8.2130 1.8592
v -2.0057 -8.2450 1.7425
v -1.4636 -8.3198 1.0254
v -1.7121 -8.2947 0.0313
v -1.4866 -8.3216 0.8558
v -2.0842 -8.3203 0.8146
v -2.0547 -8.3233 0.6774
v -1.9909 -8.3128 0.2479
v -1.5604 -8.3167 0.3005
v -1.5339 -8.3206 0.4506
v -1.5129 -8.3253 0.5995
v -1.8088 -8.2959 0.0217
v -1.6269 -8.3043 0.1649
v -1.9233 -8.3016 0.1277
v -2.0440 -8.3214 0.5191
v -1.5059 -8.3245 0.7369
v -2.0281 -8.3198 0.3736
v -1.3720 -8.0066 1.0235
v -1.3517 -7.9938 1.0312
v -1.3759 -7.8896 1.1417
v -1.4006 -7.8911 1.1459
v -1.3870 -7.9149 0.9287
v -1.3666 -7.9021 0.9364
v -1.3845 -7.7979 1.0469
v -1.4092 -7.7994 1.0511
v -1.4077 -7.8391 0.8399
v -1.3870 -7.8264 0.8476
v -1.4110 -7.7306 0.9742
v -1.4360 -7.7321 0.9784
v -1.4256 -7.7698 0.7317
v -1.4049 -7.7571 0.7394
v -1.4481 -7.6630 0.9238
v -1.4740 -7.6564 0.9213
v -2.0266 -7.7570 0.7091
v -2.0471 -7.7418 0.7110
v -1.9579 -7.6609 0.8349
v -1.9330 -7.6643 0.8447
v -2.0518 -7.8658 0.8181
v -2.0739 -7.8506 0.8200
v -2.0106 -7.7403 0.9290
v -1.9849 -7.7437 0.9387
v -2.1095 -7.9384 0.9121
v -2.1310 -7.9232 0.9141
v -2.0695 -7.8197 1.0230
v -2.0444 -7.8230 1.0322
v -2.1385 -8.0302 1.0278
v -2.1593 -8.0149 1.0298
v -2.1235 -7.8990 1.0948
v -2.0993 -7.9024 1.1045
v -1.3537 -7.9417 1.0865
v -1.3552 -7.8500 0.9917
v -1.3751 -7.7785 0.9109
v -1.4033 -7.7052 0.8430
v -1.4281 -7.7000 0.8260
v -2.0417 -7.7091 0.7793
v -2.1014 -7.7925 0.8733
v -2.1451 -7.8719 0.9673
v -2.1834 -7.9611 1.0725
v -2.0199 -7.7184 0.7832
vt 0.2943 0.6434
vt 0.2723 0.6406
vt 0.2720 0.6247
vt 0.2943 0.6291
vt 0.3733 0.6578
vt 0.3765 0.6427
vt 0.4100 0.6482
vt 0.4046 0.6638
vt 0.1667 0.6496
vt 0.1759 0.6639
vt 0.1277 0.6754
vt 0.1248 0.6628
vt 0.1780 0.5054
vt 0.1756 0.5250
vt 0.1608 0.5202
vt 0.1628 0.5068
vt 0.3912 0.5959
vt 0.4021 0.5656
vt 0.4390 0.5743
vt 0.4291 0.6058
vt 0.1319 0.2970
vt 0.1339 0.3056
vt 0.1274 0.3052
vt 0.1244 0.3012
vt 0.1406 0.2943
vt 0.1454 0.3053
vt 0.3189 0.6323
vt 0.2943 0.6291
vt 0.2933 0.6097
vt 0.3192 0.6132
vt 0.3243 0.5864
vt 0.2950 0.5805
vt 0.3254 0.5563
vt 0.2952 0.5565
vt 0.2710 0.5798
vt 0.2690 0.5559
vt 0.4411 0.6544
vt 0.4761 0.6515
vt 0.4755 0.6617
vt 0.4338 0.6662
vt 0.3184 0.6499
vt 0.2720 0.6068
vt 0.4225 0.6281
vt 0.3831 0.6221
vt 0.3327 0.4102
vt 0.3161 0.4183
vt 0.2997 0.3756
vt 0.3116 0.3701
vt 0.2481 0.4348
vt 0.2379 0.4316
vt 0.2356 0.3934
vt 0.2440 0.3965
vt 0.2749 0.4392
vt 0.2657 0.4393
vt 0.2600 0.4054
vt 0.2675 0.4027
vt 0.3622 0.5908
vt 0.3540 0.6167
vt 0.2395 0.5797
vt 0.2431 0.6027
vt 0.2330 0.5144
vt 0.2538 0.5202
vt 0.2414 0.5308
vt 0.2269 0.5350
vt 0.2511 0.4748
vt 0.2607 0.4692
vt 0.2721 0.4850
vt 0.2538 0.5202
vt 0.1891 0.4995
vt 0.1995 0.5003
vt 0.1947 0.5309
vt 0.1855 0.5286
vt 0.2076 0.5849
vt 0.2125 0.6045
vt 0.2099 0.5025
vt 0.2208 0.5058
vt 0.2120 0.5330
vt 0.2031 0.5319
vt 0.2229 0.6372
vt 0.2512 0.6381
vt 0.2547 0.6553
vt 0.2288 0.6545
vt 0.4755 0.6617
vt 0.5478 0.6498
vt 0.5193 0.6593
vt 0.4663 0.6733
vt 0.5414 0.6061
vt 0.5422 0.6321
vt 0.4972 0.6192
vt 0.5053 0.5949
vt 0.2941 0.4635
vt 0.2879 0.4365
vt 0.3022 0.4270
vt 0.3085 0.4605
vt 0.2807 0.4732
vt 0.2749 0.4392
vt 0.0735 0.6370
vt 0.0657 0.6190
vt 0.1079 0.6087
vt 0.1152 0.6257
vt 0.2721 0.4850
vt 0.2570 0.4358
vt 0.2481 0.4348
vt 0.1554 0.3021
vt 0.1562 0.2907
vt 0.1716 0.2865
vt 0.1656 0.3003
vt 0.3503 0.6377
vt 0.3446 0.6537
vt 0.2381 0.4724
vt 0.0256 0.6319
vt 0.0478 0.6021
vt 0.0608 0.5969
vt 0.0657 0.6190
vt 0.0735 0.6370
vt 0.0834 0.6471
vt 0.0848 0.6619
vt 0.0137 0.6527
vt 0.2262 0.4676
vt 0.2267 0.4293
vt 0.2142 0.4656
vt 0.2163 0.4278
vt 0.2038 0.4636
vt 0.2074 0.4264
vt 0.1924 0.4628
vt 0.1960 0.4254
vt 0.1842 0.4257
vt 0.1799 0.4638
vt 0.1662 0.4599
vt 0.1702 0.4259
vt 0.1523 0.4595
vt 0.1565 0.4270
vt 0.2366 0.5563
vt 0.2026 0.5601
vt 0.2050 0.6570
vt 0.1979 0.6425
vt 0.2472 0.6195
vt 0.2720 0.6247
vt 0.3708 0.5611
vt 0.1367 0.4609
vt 0.1423 0.4278
vt 0.1220 0.4255
vt 0.1227 0.4568
vt 0.3334 0.4728
vt 0.3633 0.4953
vt 0.3596 0.5024
vt 0.3291 0.4819
vt 0.0989 0.4537
vt 0.1044 0.4231
vt 0.4726 0.5848
vt 0.4629 0.6133
vt 0.5478 0.6498
vt 0.4894 0.6401
vt 0.2512 0.6381
vt 0.4521 0.6368
vt 0.4894 0.6401
vt 0.2183 0.6230
vt 0.3386 0.6683
vt 0.3124 0.6643
vt 0.1516 0.6163
vt 0.1441 0.5979
vt 0.1768 0.5897
vt 0.1831 0.6098
vt 0.1359 0.5736
vt 0.1705 0.5646
vt 0.2736 0.6574
vt 0.2919 0.6599
vt 0.1601 0.6335
vt 0.1916 0.6282
vt 0.4629 0.6133
vt 0.4521 0.6368
vt 0.2450 0.5358
vt 0.2303 0.5409
vt 0.4262 0.6774
vt 0.3974 0.6750
vt 0.1205 0.6430
vt 0.1248 0.6628
vt 0.0737 0.4464
vt 0.0789 0.4164
vt 0.1831 0.6098
vt 0.3085 0.4605
vt 0.3051 0.4711
vt 0.0987 0.5841
vt 0.0861 0.6707
vt 0.1277 0.6754
vt 0.1057 0.6833
vt 0.0861 0.6801
vt 0.0496 0.4498
vt 0.0595 0.4081
vt 0.1296 0.5012
vt 0.1478 0.5025
vt 0.2208 0.5058
vt 0.3702 0.6704
vt 0.1780 0.5054
vt 0.1517 0.5314
vt 0.1253 0.5090
vt 0.1126 0.4815
vt 0.1817 0.2848
vt 0.1780 0.2993
vt 0.0936 0.4748
vt 0.0641 0.4935
vt 0.0308 0.5206
vt 0.2195 0.2909
vt 0.2292 0.2941
vt 0.2170 0.3076
vt 0.2084 0.3050
vt 0.1881 0.2994
vt 0.1957 0.2842
vt 0.2065 0.2870
vt 0.1988 0.3023
vt 0.2480 0.3037
vt 0.2394 0.3221
vt 0.2281 0.3143
vt 0.2388 0.2989
vt 0.2586 0.3116
vt 0.2500 0.3293
vt 0.2260 0.3912
vt 0.1310 0.3901
vt 0.1456 0.3907
vt 0.2777 0.3961
vt 0.1586 0.3906
vt 0.1722 0.3901
vt 0.2159 0.3908
vt 0.2520 0.3998
vt 0.1858 0.3878
vt 0.1972 0.3879
vt 0.2888 0.3886
vt 0.1041 0.3433
vt 0.0928 0.3358
vt 0.1101 0.3125
vt 0.1168 0.3169
vt 0.1718 0.3557
vt 0.1598 0.3564
vt 0.1634 0.3261
vt 0.1753 0.3247
vt 0.1950 0.3545
vt 0.1841 0.3551
vt 0.1864 0.3236
vt 0.1967 0.3245
vt 0.2041 0.3558
vt 0.2065 0.3278
vt 0.2133 0.3570
vt 0.2170 0.3322
vt 0.2249 0.3637
vt 0.2305 0.3399
vt 0.2878 0.3513
vt 0.2807 0.3551
vt 0.2705 0.3348
vt 0.2790 0.3369
vt 0.1487 0.3563
vt 0.1524 0.3252
vt 0.2696 0.3625
vt 0.2601 0.3694
vt 0.2463 0.3386
vt 0.2592 0.3356
vt 0.2479 0.3683
vt 0.2387 0.3661
vt 0.2305 0.3399
vt 0.2463 0.3386
vt 0.1205 0.3511
vt 0.1292 0.3185
vt 0.2949 0.3454
vt 0.2787 0.3256
vt 0.1357 0.3548
vt 0.1415 0.3197
vt 0.2325 0.3726
vt 0.2561 0.3796
vt 0.2066 0.3896
vt 0.1117 0.3860
vt 0.0744 0.3680
vt 0.0907 0.3763
vt 0.0677 0.5026
vt 0.0356 0.5281
vt 0.1835 0.5415
vt 0.1705 0.5402
vt 0.1108 0.4932
vt 0.0964 0.4900
vt 0.2925 0.4729
vt 0.2808 0.4797
vt 0.2153 0.5424
vt 0.1944 0.5424
vt 0.2741 0.4909
vt 0.2575 0.5250
vt 0.2044 0.5422
vt 0.2315 0.6650
vt 0.2065 0.6645
vt 0.1772 0.6698
vt 0.1290 0.6846
vt 0.3992 0.6836
vt 0.3723 0.6807
vt 0.5446 0.6655
vt 0.5167 0.6733
vt 0.4650 0.6826
vt 0.4267 0.6879
vt 0.3127 0.6741
vt 0.2908 0.6678
vt 0.2535 0.6655
vt 0.2720 0.6666
vt 0.0890 0.6878
vt 0.0200 0.6656
vt 0.1076 0.6901
vt 0.3413 0.6791
vt 0.6453 0.8167
vt 0.6139 0.8380
vt 0.6132 0.8244
vt 0.6486 0.8004
vt 0.8614 0.0912
vt 0.8235 0.0742
vt 0.8229 0.0626
vt 0.8647 0.0814
vt 0.6581 0.0557
vt 0.6421 0.0548
vt 0.6454 0.0375
vt 0.6594 0.0376
vt 0.6685 0.0559
vt 0.6685 0.0375
vt 0.7015 0.7747
vt 0.6745 0.7937
vt 0.6813 0.7757
vt 0.7105 0.7546
vt 0.5288 0.0631
vt 0.4914 0.0783
vt 0.4907 0.0683
vt 0.5317 0.0512
vt 0.6099 0.0494
vt 0.6164 0.0352
vt 0.6232 0.0349
vt 0.6183 0.0500
vt 0.7914 0.7488
vt 0.7903 0.7218
vt 0.8107 0.7221
vt 0.8174 0.7465
vt 0.9573 0.8196
vt 0.9331 0.7985
vt 0.9265 0.7837
vt 0.9534 0.8068
vt 0.7971 0.0668
vt 0.7944 0.0540
vt 0.6939 0.0561
vt 0.6827 0.0554
vt 0.6812 0.0384
vt 0.6915 0.0394
vt 0.7590 0.7502
vt 0.7285 0.7616
vt 0.7378 0.7392
vt 0.7648 0.7256
vt 0.9405 0.1354
vt 0.9301 0.1279
vt 0.9405 0.1220
vt 0.9523 0.1294
vt 0.4570 0.0983
vt 0.4531 0.0905
vt 0.7739 0.0612
vt 0.7507 0.0589
vt 0.7467 0.0442
vt 0.7695 0.0476
vt 0.8454 0.7493
vt 0.8338 0.7279
vt 0.7173 0.0572
vt 0.7136 0.0415
vt 0.7241 0.0419
vt 0.7277 0.0577
vt 0.5693 0.0411
vt 0.5632 0.0541
vt 0.6264 0.0528
vt 0.6328 0.0358
vt 0.9056 0.7794
vt 0.8962 0.7624
vt 0.5915 0.0511
vt 0.5997 0.0369
vt 0.7379 0.0581
vt 0.7340 0.0428
vt 0.4020 0.1354
vt 0.3921 0.1314
vt 0.4119 0.1183
vt 0.4198 0.1236
vt 0.9815 0.8274
vt 0.9823 0.8380
vt 0.7073 0.0569
vt 0.7042 0.0406
vt 0.8814 0.7653
vt 0.8705 0.7467
vt 0.7335 0.0116
vt 0.7445 0.0120
vt 0.7883 0.6883
vt 0.8173 0.6913
vt 0.3938 0.0925
vt 0.4357 0.0645
vt 0.6293 0.7741
vt 0.6612 0.7499
vt 0.7203 0.7113
vt 0.7531 0.6962
vt 0.7115 0.0109
vt 0.7222 0.0112
vt 0.9568 0.0969
vt 0.9690 0.1039
vt 0.8393 0.0328
vt 0.8803 0.0542
vt 0.6442 0.0072
vt 0.6595 0.0082
vt 0.6703 0.0085
vt 0.6910 0.7281
vt 0.8470 0.7003
vt 0.6068 0.0089
vt 0.6160 0.0088
vt 0.4744 0.0412
vt 0.5166 0.0228
vt 0.8098 0.0228
vt 0.9450 0.7599
vt 0.9727 0.7819
vt 0.6854 0.0093
vt 0.6973 0.0099
vt 0.9145 0.7377
vt 0.7588 0.0131
vt 0.7836 0.0165
vt 0.3743 0.1060
vt 0.5556 0.0123
vt 0.8880 0.7207
vt 0.6282 0.0078
vt 0.5882 0.0083
vt 0.5955 0.7984
vt 0.9997 0.8030
vt 0.5187 0.4057
vt 0.5591 0.3935
vt 0.5774 0.4187
vt 0.5448 0.4280
vt 0.9149 0.5398
vt 0.8817 0.5534
vt 0.8387 0.5364
vt 0.8657 0.5261
vt 0.8910 0.5092
vt 0.8778 0.4448
vt 0.9087 0.4613
vt 0.9124 0.4823
vt 0.8497 0.4097
vt 0.8831 0.4150
vt 0.8468 0.4326
vt 0.8135 0.4293
vt 0.4660 0.4395
vt 0.4722 0.4320
vt 0.5025 0.4541
vt 0.4605 0.4518
vt 0.7421 0.5844
vt 0.6459 0.5943
vt 0.6533 0.5676
vt 0.7023 0.5619
vt 0.9291 0.4311
vt 0.8778 0.4448
vt 0.4883 0.5563
vt 0.4798 0.5470
vt 0.5139 0.5354
vt 0.4971 0.5644
vt 0.8003 0.5676
vt 0.7571 0.5796
vt 0.7430 0.5561
vt 0.7725 0.5473
vt 0.4886 0.4217
vt 0.5168 0.4403
vt 0.4545 0.4850
vt 0.4569 0.4686
vt 0.4912 0.4827
vt 0.4553 0.4967
vt 0.5168 0.4403
vt 0.5369 0.5534
vt 0.5139 0.5354
vt 0.5025 0.4541
vt 0.7336 0.4047
vt 0.7708 0.4075
vt 0.7502 0.4280
vt 0.7238 0.4258
vt 0.9510 0.4546
vt 0.9558 0.4828
vt 0.4912 0.4827
vt 0.4965 0.5107
vt 0.6552 0.3895
vt 0.7085 0.3998
vt 0.6862 0.4237
vt 0.6502 0.4157
vt 0.8428 0.5611
vt 0.8071 0.5423
vt 0.4729 0.5376
vt 0.4648 0.5242
vt 0.4596 0.5123
vt 0.4965 0.5107
vt 0.9459 0.5175
vt 0.8910 0.5092
vt 0.5954 0.5970
vt 0.6103 0.5700
vt 0.5562 0.5617
vt 0.6071 0.3866
vt 0.6110 0.4137
vt 0.5621 0.5919
vt 0.5788 0.5667
vt 0.8090 0.4067
vt 0.7804 0.4273
vt 0.5339 0.5848
vt 0.5094 0.5736
vt 0.6757 0.1381
vt 0.6755 0.1329
vt 0.7041 0.1330
vt 0.7043 0.1382
vt 0.6749 0.1166
vt 0.6751 0.0998
vt 0.7029 0.1004
vt 0.7027 0.1170
vt 0.6753 0.0945
vt 0.7033 0.0953
vt 0.7292 0.1332
vt 0.7298 0.1384
vt 0.7245 0.0997
vt 0.7254 0.1173
vt 0.7253 0.0945
vt 0.7491 0.1313
vt 0.7524 0.1346
vt 0.7417 0.0983
vt 0.7445 0.1154
vt 0.7452 0.0946
vt 0.8547 0.1037
vt 0.8515 0.1070
vt 0.8269 0.0986
vt 0.8270 0.0936
vt 0.8497 0.1167
vt 0.8514 0.1349
vt 0.8279 0.1386
vt 0.8238 0.1155
vt 0.8540 0.1393
vt 0.8281 0.1436
vt 0.7993 0.1000
vt 0.7994 0.0949
vt 0.7997 0.1363
vt 0.7962 0.1150
vt 0.7997 0.1413
vt 0.7674 0.0987
vt 0.7674 0.0936
vt 0.7742 0.1304
vt 0.7651 0.1135
vt 0.7740 0.1356
vt 0.7502 0.1155
vt 0.8542 0.1184
vt 0.2538 0.9264
vt 0.2537 0.9120
vt 0.2760 0.9075
vt 0.2758 0.9233
vt 0.1749 0.9413
vt 0.1437 0.9474
vt 0.1381 0.9319
vt 0.1716 0.9262
vt 0.3814 0.9316
vt 0.4234 0.9445
vt 0.4206 0.9572
vt 0.3723 0.9460
vt 0.1571 0.0565
vt 0.1419 0.0566
vt 0.1385 0.0435
vt 0.1528 0.0373
vt 0.1566 0.8795
vt 0.1187 0.8896
vt 0.1087 0.8582
vt 0.1454 0.8493
vt 0.1321 0.2685
vt 0.1242 0.2651
vt 0.1268 0.2609
vt 0.1333 0.2598
vt 0.1447 0.2589
vt 0.1411 0.2704
vt 0.2291 0.9154
vt 0.2287 0.8963
vt 0.2546 0.8926
vt 0.2537 0.9120
vt 0.2234 0.8695
vt 0.2527 0.8634
vt 0.2221 0.8394
vt 0.2523 0.8394
vt 0.2785 0.8386
vt 0.2767 0.8625
vt 0.1071 0.9384
vt 0.1145 0.9501
vt 0.0727 0.9459
vt 0.0721 0.9357
vt 0.2297 0.9330
vt 0.2759 0.8896
vt 0.1648 0.9057
vt 0.1255 0.9119
vt 0.3206 0.1356
vt 0.3036 0.1776
vt 0.2912 0.1734
vt 0.3032 0.1292
vt 0.2339 0.1197
vt 0.2337 0.1582
vt 0.2257 0.1622
vt 0.2241 0.1239
vt 0.2602 0.1126
vt 0.2565 0.1497
vt 0.2487 0.1477
vt 0.2510 0.1135
vt 0.1940 0.9000
vt 0.1855 0.8742
vt 0.3081 0.8622
vt 0.3047 0.8853
vt 0.2108 0.0421
vt 0.2027 0.0222
vt 0.2176 0.0250
vt 0.2309 0.0343
vt 0.2328 0.0796
vt 0.2309 0.0343
vt 0.2527 0.0674
vt 0.2429 0.0842
vt 0.1687 0.0613
vt 0.1623 0.0328
vt 0.1712 0.0296
vt 0.1790 0.0594
vt 0.3401 0.8672
vt 0.3354 0.8869
vt 0.1891 0.0562
vt 0.1794 0.0277
vt 0.1882 0.0257
vt 0.1996 0.0519
vt 0.3251 0.9196
vt 0.3193 0.9370
vt 0.2935 0.9380
vt 0.2969 0.9207
vt 0.0727 0.9459
vt 0.0820 0.9574
vt 0.0289 0.9438
vt 0.0003 0.9345
vt 0.0064 0.8908
vt 0.0424 0.8793
vt 0.0507 0.9036
vt 0.0058 0.9168
vt 0.2767 0.0865
vt 0.2913 0.0880
vt 0.2885 0.1220
vt 0.2733 0.1140
vt 0.2624 0.0783
vt 0.2602 0.1126
vt 0.4745 0.9184
vt 0.4328 0.9074
vt 0.4399 0.8903
vt 0.4822 0.9003
vt 0.2527 0.0674
vt 0.2427 0.1178
vt 0.2339 0.1197
vt 0.1550 0.2611
vt 0.1654 0.2619
vt 0.1728 0.2751
vt 0.1569 0.2724
vt 0.2035 0.9370
vt 0.1978 0.9210
vt 0.2202 0.0833
vt 0.5224 0.9130
vt 0.4822 0.9003
vt 0.4870 0.8783
vt 0.5000 0.8833
vt 0.4745 0.9184
vt 0.5344 0.9337
vt 0.4633 0.9434
vt 0.4647 0.9286
vt 0.2132 0.1273
vt 0.2088 0.0893
vt 0.1971 0.0925
vt 0.2030 0.1298
vt 0.1943 0.1322
vt 0.1870 0.0955
vt 0.1757 0.0975
vt 0.1830 0.1343
vt 0.1713 0.1352
vt 0.1632 0.0977
vt 0.1499 0.1030
vt 0.1573 0.1364
vt 0.1435 0.1367
vt 0.1361 0.1047
vt 0.3109 0.8388
vt 0.3450 0.8424
vt 0.3502 0.9247
vt 0.3432 0.9393
vt 0.3007 0.9020
vt 0.2760 0.9075
vt 0.1767 0.8446
vt 0.1205 0.1049
vt 0.1294 0.1373
vt 0.1094 0.1417
vt 0.1070 0.1104
vt 0.3149 0.0733
vt 0.3096 0.0646
vt 0.3378 0.0411
vt 0.3422 0.0479
vt 0.0922 0.1458
vt 0.0836 0.1159
vt 0.0751 0.8690
vt 0.0850 0.8974
vt 0.0587 0.9244
vt 0.0003 0.9345
vt 0.2969 0.9207
vt 0.0587 0.9244
vt 0.0960 0.9208
vt 0.3296 0.9054
vt 0.2097 0.9515
vt 0.2359 0.9474
vt 0.3963 0.8982
vt 0.3648 0.8920
vt 0.3709 0.8718
vt 0.4036 0.8798
vt 0.3770 0.8466
vt 0.4117 0.8554
vt 0.2746 0.9402
vt 0.2564 0.9428
vt 0.3879 0.9155
vt 0.3564 0.9104
vt 0.0960 0.9208
vt 0.0850 0.8974
vt 0.2055 0.0160
vt 0.2207 0.0196
vt 0.1221 0.9613
vt 0.1510 0.9586
vt 0.4234 0.9445
vt 0.4276 0.9247
vt 0.0674 0.1550
vt 0.0592 0.1256
vt 0.3648 0.8920
vt 0.2913 0.0880
vt 0.2869 0.0778
vt 0.4489 0.8657
vt 0.4621 0.9522
vt 0.4622 0.9616
vt 0.4426 0.9649
vt 0.4206 0.9572
vt 0.0349 0.1247
vt 0.0489 0.1652
vt 0.1273 0.0624
vt 0.1094 0.0656
vt 0.1996 0.0519
vt 0.1781 0.9539
vt 0.1571 0.0565
vt 0.1044 0.0582
vt 0.1284 0.0333
vt 0.0945 0.0868
vt 0.1778 0.2617
vt 0.1830 0.2757
vt 0.0762 0.0954
vt 0.0450 0.0797
vt 0.0092 0.0562
vt 0.2200 0.2658
vt 0.2075 0.2529
vt 0.2159 0.2494
vt 0.2294 0.2616
vt 0.1879 0.2605
vt 0.1982 0.2565
vt 0.2075 0.2710
vt 0.1970 0.2750
vt 0.2471 0.2502
vt 0.2384 0.2559
vt 0.2262 0.2416
vt 0.2367 0.2327
vt 0.2466 0.2245
vt 0.2568 0.2413
vt 0.2164 0.1653
vt 0.1364 0.1739
vt 0.1219 0.1760
vt 0.2672 0.1552
vt 0.1629 0.1719
vt 0.1494 0.1727
vt 0.2063 0.1667
vt 0.2413 0.1541
vt 0.1881 0.1715
vt 0.1766 0.1728
vt 0.2791 0.1615
vt 0.0998 0.2253
vt 0.1151 0.2502
vt 0.1089 0.2553
vt 0.0893 0.2338
vt 0.1659 0.2061
vt 0.1725 0.2366
vt 0.1606 0.2365
vt 0.1539 0.2067
vt 0.1892 0.2050
vt 0.1939 0.2347
vt 0.1837 0.2366
vt 0.1782 0.2055
vt 0.1982 0.2027
vt 0.2033 0.2304
vt 0.2071 0.2007
vt 0.2134 0.2250
vt 0.2180 0.1928
vt 0.2260 0.2159
vt 0.2819 0.1988
vt 0.2746 0.2139
vt 0.2663 0.2170
vt 0.2744 0.1957
vt 0.1497 0.2384
vt 0.1429 0.2079
vt 0.2626 0.1894
vt 0.2550 0.2173
vt 0.2418 0.2156
vt 0.2524 0.1836
vt 0.2405 0.1859
vt 0.2418 0.2156
vt 0.2260 0.2159
vt 0.2315 0.1890
vt 0.1154 0.2158
vt 0.1272 0.2474
vt 0.2896 0.2039
vt 0.2755 0.2252
vt 0.1301 0.2107
vt 0.1394 0.2450
vt 0.2246 0.1831
vt 0.2475 0.1739
vt 0.1972 0.1688
vt 0.1031 0.1820
vt 0.0832 0.1937
vt 0.0678 0.2037
vt 0.0131 0.0481
vt 0.0476 0.0704
vt 0.1462 0.0227
vt 0.1590 0.0201
vt 0.0915 0.0754
vt 0.0775 0.0801
vt 0.2619 0.0718
vt 0.2742 0.0774
vt 0.1905 0.0160
vt 0.1698 0.0181
vt 0.2342 0.0291
vt 0.2541 0.0613
vt 0.1797 0.0174
vt 0.3418 0.9468
vt 0.3167 0.9475
vt 0.4193 0.9664
vt 0.3711 0.9519
vt 0.1760 0.9642
vt 0.1492 0.9673
vt 0.0316 0.9578
vt 0.0036 0.9501
vt 0.1217 0.9717
vt 0.0834 0.9667
vt 0.2575 0.9507
vt 0.2357 0.9572
vt 0.2948 0.9482
vt 0.2762 0.9493
vt 0.5282 0.9466
vt 0.4594 0.9693
vt 0.4408 0.9717
vt 0.2070 0.9623
vt 0.8893 0.9672
vt 0.8859 0.9508
vt 0.9214 0.9749
vt 0.9206 0.9885
vt 0.1078 0.7938
vt 0.1045 0.7840
vt 0.1463 0.7652
vt 0.1457 0.7767
vt 0.3109 0.7583
vt 0.3096 0.7402
vt 0.3237 0.7401
vt 0.3269 0.7574
vt 0.3005 0.7585
vt 0.3005 0.7401
vt 0.8330 0.9251
vt 0.8241 0.9050
vt 0.8533 0.9261
vt 0.8601 0.9442
vt 0.4404 0.7658
vt 0.4374 0.7538
vt 0.4785 0.7709
vt 0.4778 0.7809
vt 0.3591 0.7520
vt 0.3507 0.7527
vt 0.3459 0.7375
vt 0.3527 0.7378
vt 0.7432 0.8991
vt 0.7172 0.8968
vt 0.7239 0.8725
vt 0.7443 0.8721
vt 0.5775 0.9701
vt 0.5813 0.9572
vt 0.6082 0.9341
vt 0.6017 0.9489
vt 0.1720 0.7693
vt 0.1747 0.7565
vt 0.2752 0.7586
vt 0.2775 0.7420
vt 0.2878 0.7409
vt 0.2863 0.7579
vt 0.7756 0.9005
vt 0.7698 0.8760
vt 0.7968 0.8896
vt 0.8061 0.9120
vt 0.0288 0.8380
vt 0.0170 0.8320
vt 0.0288 0.8247
vt 0.0392 0.8305
vt 0.5122 0.8009
vt 0.5161 0.7931
vt 0.1952 0.7637
vt 0.1996 0.7502
vt 0.2224 0.7467
vt 0.2184 0.7614
vt 0.6892 0.8996
vt 0.7009 0.8782
vt 0.2517 0.7597
vt 0.2413 0.7602
vt 0.2450 0.7445
vt 0.2554 0.7440
vt 0.4059 0.7568
vt 0.3998 0.7437
vt 0.3426 0.7554
vt 0.3363 0.7384
vt 0.6385 0.9127
vt 0.6291 0.9297
vt 0.3776 0.7537
vt 0.3694 0.7395
vt 0.2312 0.7606
vt 0.2350 0.7454
vt 0.5672 0.8380
vt 0.5494 0.8262
vt 0.5573 0.8209
vt 0.5771 0.8340
vt 0.5525 0.9885
vt 0.5533 0.9779
vt 0.2617 0.7595
vt 0.2648 0.7432
vt 0.6642 0.8971
vt 0.6532 0.9157
vt 0.2246 0.7145
vt 0.2355 0.7142
vt 0.7173 0.8417
vt 0.7463 0.8386
vt 0.5335 0.7671
vt 0.5754 0.7951
vt 0.8734 0.9004
vt 0.9052 0.9246
vt 0.7815 0.8466
vt 0.8144 0.8617
vt 0.2468 0.7137
vt 0.2575 0.7135
vt 0.0003 0.8066
vt 0.0125 0.7995
vt 0.0888 0.7569
vt 0.1298 0.7354
vt 0.3096 0.7108
vt 0.3249 0.7098
vt 0.2987 0.7111
vt 0.8436 0.8785
vt 0.6876 0.8506
vt 0.3531 0.7114
vt 0.3623 0.7115
vt 0.4525 0.7254
vt 0.4947 0.7439
vt 0.1593 0.7254
vt 0.5620 0.9324
vt 0.5896 0.9103
vt 0.2718 0.7124
vt 0.2836 0.7118
vt 0.6202 0.8881
vt 0.1855 0.7191
vt 0.2103 0.7156
vt 0.5949 0.8086
vt 0.4135 0.7149
vt 0.6466 0.8710
vt 0.3409 0.7104
vt 0.3809 0.7109
vt 0.9391 0.9489
vt 0.5350 0.9535
vt 0.5250 0.3407
vt 0.5510 0.3183
vt 0.5836 0.3274
vt 0.5654 0.3527
vt 0.9205 0.2047
vt 0.8713 0.2186
vt 0.8443 0.2085
vt 0.8872 0.1913
vt 0.8967 0.2354
vt 0.9182 0.2622
vt 0.9146 0.2833
vt 0.8839 0.2998
vt 0.8559 0.3351
vt 0.8196 0.3157
vt 0.8529 0.3122
vt 0.8893 0.3297
vt 0.4721 0.3072
vt 0.4666 0.2949
vt 0.5085 0.2924
vt 0.4783 0.3146
vt 0.7474 0.1610
vt 0.7077 0.1836
vt 0.6588 0.1782
vt 0.6512 0.1515
vt 0.8839 0.2998
vt 0.9352 0.3134
vt 0.4938 0.1903
vt 0.5026 0.1821
vt 0.5195 0.2110
vt 0.4854 0.1996
vt 0.8058 0.1775
vt 0.7781 0.1978
vt 0.7485 0.1892
vt 0.7625 0.1656
vt 0.4948 0.3249
vt 0.5229 0.3061
vt 0.4604 0.2618
vt 0.4611 0.2501
vt 0.4971 0.2639
vt 0.4629 0.2782
vt 0.5229 0.3061
vt 0.5085 0.2924
vt 0.5195 0.2110
vt 0.5424 0.1930
vt 0.7398 0.3407
vt 0.7299 0.3196
vt 0.7563 0.3172
vt 0.7771 0.3377
vt 0.9570 0.2897
vt 0.9616 0.2615
vt 0.4971 0.2639
vt 0.5023 0.2359
vt 0.6615 0.3563
vt 0.6564 0.3301
vt 0.6924 0.3219
vt 0.7148 0.3457
vt 0.8483 0.1837
vt 0.8126 0.2027
vt 0.4784 0.2091
vt 0.5023 0.2359
vt 0.4653 0.2344
vt 0.4704 0.2225
vt 0.9516 0.2269
vt 0.8967 0.2354
vt 0.6157 0.1760
vt 0.6007 0.1491
vt 0.5616 0.1846
vt 0.6172 0.3323
vt 0.6135 0.3594
vt 0.5842 0.1794
vt 0.5674 0.1544
vt 0.7866 0.3179
vt 0.8153 0.3383
vt 0.5393 0.1615
vt 0.5149 0.1729
vt 0.5845 0.0945
vt 0.6131 0.0945
vt 0.6129 0.0997
vt 0.5843 0.0998
vt 0.5837 0.1160
vt 0.6115 0.1157
vt 0.6116 0.1323
vt 0.5839 0.1329
vt 0.6120 0.1374
vt 0.5840 0.1382
vt 0.6386 0.0943
vt 0.6380 0.0996
vt 0.6341 0.1155
vt 0.6332 0.1330
vt 0.6340 0.1382
vt 0.6612 0.0982
vt 0.6578 0.1015
vt 0.6532 0.1174
vt 0.6505 0.1344
vt 0.6539 0.1382
vt 0.5651 0.1325
vt 0.5372 0.1420
vt 0.5372 0.1371
vt 0.5620 0.1290
vt 0.5603 0.1193
vt 0.5344 0.1201
vt 0.5390 0.0971
vt 0.5624 0.1012
vt 0.5393 0.0920
vt 0.5651 0.0968
vt 0.5096 0.1402
vt 0.5096 0.1352
vt 0.5069 0.1201
vt 0.5108 0.0989
vt 0.5108 0.0938
vt 0.4776 0.1409
vt 0.4777 0.1358
vt 0.4757 0.1210
vt 0.4851 0.1043
vt 0.4850 0.0991
vt 0.6590 0.1173
vt 0.5649 0.1177
f 137/1 107/2 109/3 3/4
f 124/5 125/6 119/7 120/8
f 140/9 139/10 147/11 159/12
f 47/13 60/14 70/15 56/16
f 95/17 96/18 97/19 104/20
f 243/21 238/22 244/23 245/24
f 243/21 227/25 221/26 238/22
f 132/27 3/28 2/29 133/30
f 98/31 133/30 2/29 1/32
f 101/33 98/31 1/32 43/34
f 43/34 1/32 100/35 99/36
f 155/37 105/38 58/39 156/40
f 131/41 137/1 3/4 132/27
f 1/32 2/29 110/42 100/35
f 104/20 118/43 123/44 95/17
f 84/45 83/46 196/47 189/48
f 22/49 15/50 193/51 185/52
f 17/53 18/54 190/55 191/56
f 118/43 119/7 125/6 123/44
f 98/31 93/57 127/58 133/30
f 103/59 100/35 110/42 114/60
f 48/61 144/62 143/63 61/64
f 141/65 135/66 34/67 144/68
f 46/69 55/70 69/71 59/72
f 92/73 103/59 114/60 117/74
f 54/75 49/76 62/77 68/78
f 68/78 69/71 55/70 54/75
f 115/79 111/80 112/81 148/82
f 58/83 247/84 249/85 71/86
f 80/87 38/88 81/89 82/90
f 142/91 20/92 21/93 138/94
f 146/95 17/96 20/92 142/91
f 52/97 87/98 89/99 66/100
f 17/53 146/95 34/101 18/54
f 18/54 34/101 135/66 19/102
f 19/102 135/66 141/65 22/103
f 220/104 236/105 237/106 242/107
f 132/27 128/108 129/109 131/41
f 31/110 15/50 22/49 141/65
f 85/111 158/112 88/113 87/114
f 52/115 65/116 50/117 33/118
f 31/110 32/119 16/120 15/50
f 39/121 23/122 16/120 32/119
f 23/122 39/121 40/123 24/124
f 29/125 13/126 24/124 40/123
f 14/127 13/126 29/125 30/128
f 41/129 25/130 14/127 30/128
f 25/130 41/129 42/131 26/132
f 102/133 103/59 92/73 91/134
f 115/79 148/82 63/135 160/136
f 113/137 114/60 110/42 109/138
f 94/139 93/57 98/31 101/33
f 27/140 11/141 26/132 42/131
f 12/142 11/141 27/140 28/143
f 136/144 86/145 255/146 256/147
f 12/142 28/143 75/148 72/149
f 99/36 100/35 103/59 102/133
f 152/150 82/90 81/89 153/151
f 81/89 38/88 247/152 106/153
f 111/154 113/137 109/138 107/2
f 155/37 154/155 106/156 105/38
f 115/79 116/157 113/137 111/80
f 116/157 117/74 114/60 113/137
f 132/27 133/30 127/58 128/108
f 126/158 134/159 131/41 129/109
f 150/160 151/161 166/162 165/163
f 151/161 149/164 167/165 166/162
f 108/166 112/81 111/80 107/2
f 140/9 160/136 63/135 139/10
f 108/166 107/2 137/1 130/167
f 164/168 163/169 160/136 140/9
f 104/20 153/170 154/171 118/43
f 118/43 154/171 155/37 119/7
f 119/7 155/37 156/40 120/8
f 52/115 33/118 85/111 87/98
f 61/64 143/63 259/172 145/173
f 157/174 121/175 120/8 156/40
f 58/39 71/86 157/174 156/40
f 116/157 115/79 160/136 163/169
f 50/117 65/116 161/176 159/177
f 134/159 130/167 137/1 131/41
f 75/148 76/178 73/179 72/149
f 117/74 116/157 163/169 165/180
f 91/134 92/73 166/162 167/165
f 66/100 89/99 151/161 150/160
f 138/181 136/144 256/147 257/182
f 151/161 89/99 90/183 149/164
f 65/116 52/115 66/100 161/176
f 162/184 147/185 64/186 51/187
f 150/160 165/163 163/169 164/168
f 77/188 74/189 73/179 76/178
f 106/156 154/155 153/170 81/89
f 105/38 106/156 247/152 58/39
f 162/184 51/187 33/118 50/117
f 166/162 92/73 117/74 165/163
f 56/16 70/15 44/190 57/191
f 48/61 31/110 141/65 144/62
f 90/183 89/99 87/98 88/113
f 48/61 49/192 32/119 31/110
f 159/177 147/11 162/184 50/117
f 3/28 109/3 110/42 2/29
f 120/8 121/175 122/193 124/5
f 159/12 161/176 164/168 140/9
f 161/176 66/100 150/160 164/168
f 54/75 39/121 32/119 49/76
f 39/121 54/75 55/70 40/123
f 46/69 29/125 40/123 55/70
f 30/128 29/125 46/69 47/194
f 56/16 41/129 30/128 47/13
f 41/129 56/16 57/191 42/131
f 153/170 104/20 97/19 152/150
f 44/190 70/15 252/195 248/196
f 44/190 27/140 42/131 57/191
f 44/190 45/197 28/143 27/140
f 242/107 237/106 222/198 241/199
f 236/105 220/104 221/26 227/25
f 28/143 45/197 78/200 75/148
f 79/201 76/178 75/148 78/200
f 59/72 60/14 47/13 46/69
f 61/64 62/77 49/76 48/61
f 246/202 77/188 76/178 79/201
f 84/45 86/145 136/144 83/46
f 138/94 21/93 83/46 136/144
f 225/203 226/204 239/205 240/206
f 230/207 223/208 224/209 229/210
f 234/211 232/212 231/213 228/214
f 226/204 228/214 231/213 239/205
f 222/198 223/208 230/207 241/199
f 240/206 229/210 224/209 225/203
f 234/211 233/215 235/216 232/212
f 15/50 16/120 192/217 193/51
f 11/141 12/142 197/218 198/219
f 20/92 17/96 191/56 187/220
f 25/130 26/132 6/221 7/222
f 16/120 23/122 9/223 192/217
f 18/54 19/102 188/224 190/55
f 13/126 14/127 194/225 195/226
f 21/93 20/92 187/220 186/227
f 200/228 199/229 184/230 183/231
f 202/232 201/233 182/234 181/235
f 216/236 215/237 172/238 171/239
f 203/240 216/236 171/239 180/241
f 204/242 203/240 180/241 179/243
f 213/244 204/242 179/243 173/245
f 217/246 207/247 177/248 170/249
f 201/233 219/250 168/251 182/234
f 208/252 212/253 174/254 176/255
f 209/256 206/257 173/258 174/259
f 205/260 200/228 183/231 178/261
f 210/262 217/246 170/249 175/263
f 218/264 205/260 178/261 169/265
f 207/247 208/252 176/255 177/248
f 219/250 218/264 169/265 168/251
f 173/245 206/257 214/266 213/244
f 215/237 202/232 181/235 172/238
f 174/254 212/253 211/267 209/256
f 26/132 11/141 198/219 6/221
f 23/122 24/124 8/268 9/223
f 12/142 72/149 10/269 197/218
f 73/179 74/189 4/270 5/271
f 24/124 13/126 195/226 8/268
f 72/149 73/179 5/271 10/269
f 14/127 25/130 7/222 194/225
f 83/46 21/93 186/227 196/47
f 19/102 22/103 185/52 188/224
f 94/139 96/18 95/17 93/57
f 93/57 95/17 123/44 127/58
f 127/58 123/44 125/6 128/108
f 128/108 125/6 124/5 129/109
f 122/193 126/158 129/109 124/5
f 194/225 7/222 202/232 215/237
f 6/221 198/219 219/250 201/233
f 195/226 194/225 215/237 216/236
f 198/219 197/218 218/264 219/250
f 8/268 195/226 216/236 203/240
f 190/55 188/224 209/256 211/267
f 192/217 9/223 204/242 213/244
f 193/51 192/217 213/244 214/266
f 196/47 186/227 207/247 217/246
f 185/52 193/51 214/266 206/257
f 189/48 196/47 217/246 210/262
f 187/220 191/56 212/253 208/252
f 5/271 4/270 199/229 200/228
f 191/56 190/55 211/267 212/253
f 10/269 5/271 200/228 205/260
f 186/227 187/220 208/252 207/247
f 188/224 185/52 206/257 209/256
f 197/218 10/269 205/260 218/264
f 9/223 8/268 203/240 204/242
f 7/222 6/221 201/233 202/232
f 178/261 183/231 244/23 238/22
f 177/248 176/255 235/216 233/215
f 175/263 170/249 177/248 233/215
f 173/245 179/243 239/205 231/213
f 174/259 173/258 231/213 232/212
f 183/231 184/230 245/24 244/23
f 180/241 171/239 229/210 240/206
f 169/265 178/261 238/22 221/26
f 168/251 169/265 221/26 220/104
f 181/235 182/234 242/107 241/199
f 176/255 174/254 232/212 235/216
f 179/243 180/241 240/206 239/205
f 172/238 181/235 241/199 230/207
f 182/234 168/251 220/104 242/107
f 171/239 172/238 230/207 229/210
f 246/202 79/201 254/272 262/273
f 60/14 59/72 36/274 35/275
f 45/197 44/190 248/196 37/276
f 70/15 60/14 35/275 252/195
f 78/200 45/197 37/276 253/277
f 146/95 142/91 258/278 261/279
f 62/77 61/64 145/173 67/280
f 59/72 69/71 251/281 36/274
f 79/201 78/200 253/277 254/272
f 142/91 138/94 257/182 258/278
f 144/68 34/67 250/282 260/283
f 143/63 144/62 260/283 259/172
f 34/101 146/95 261/279 250/282
f 68/78 62/77 67/280 53/284
f 69/71 68/78 53/284 251/281
f 63/135 148/82 277/285 265/286
f 147/11 139/10 275/287 276/288
f 122/193 121/175 270/289 271/290
f 249/85 247/84 279/291 280/292
f 157/174 71/86 267/293 278/294
f 130/167 134/159 274/295 273/296
f 148/82 112/81 269/297 277/285
f 121/175 157/174 278/294 270/289
f 108/166 130/167 273/296 268/298
f 33/118 51/187 264/299 263/300
f 112/81 108/166 268/298 269/297
f 51/187 64/186 266/301 264/299
f 134/159 126/158 272/302 274/295
f 64/186 147/185 276/288 266/301
f 126/158 122/193 271/290 272/302
f 71/86 249/85 280/292 267/293
f 139/10 63/135 265/286 275/287
f 309/303 308/304 345/305 346/306
f 284/307 288/308 326/309 322/310
f 301/311 300/312 338/313 339/314
f 291/315 301/311 339/314 329/316
f 320/317 317/318 354/319 356/320
f 281/321 282/322 319/323 306/324
f 303/325 341/326 340/327 302/328
f 314/329 351/330 343/331 305/332
f 318/333 313/334 350/335 355/336
f 290/337 328/338 326/309 288/308
f 293/339 292/340 330/341 331/342
f 316/343 310/344 347/345 353/346
f 308/347 285/348 323/349 345/350
f 283/351 321/352 319/323 282/322
f 286/353 298/354 336/355 324/356
f 292/340 291/315 329/316 330/341
f 315/357 305/332 343/331 352/358
f 286/353 324/356 328/338 290/337
f 295/359 333/360 335/361 297/362
f 281/321 306/324 327/363 289/364
f 320/317 356/320 347/345 310/344
f 296/365 302/328 340/327 334/366
f 313/334 312/367 349/368 350/335
f 287/369 325/370 341/326 303/325
f 285/348 284/307 322/310 323/349
f 299/371 337/372 336/355 298/354
f 316/343 353/346 351/330 314/329
f 307/373 344/374 342/375 304/376
f 287/369 289/364 327/363 325/370
f 296/365 334/366 338/313 300/312
f 318/333 355/336 344/377 307/378
f 294/379 293/339 331/342 332/380
f 312/367 311/381 348/382 349/368
f 299/371 297/362 335/361 337/372
f 304/376 342/375 321/352 283/351
f 317/318 309/303 346/306 354/319
f 295/359 294/379 332/380 333/360
f 315/357 352/358 348/382 311/381
f 337/372 335/361 373/383 375/384
f 351/330 389/385 381/386 343/331
f 342/375 380/387 359/388 321/352
f 354/319 346/306 384/389 392/390
f 353/346 347/345 385/391 391/392
f 333/360 332/380 370/393 371/394
f 345/350 323/349 361/395 383/396
f 322/310 326/309 364/397 360/398
f 339/314 338/313 376/399 377/400
f 329/316 339/314 377/400 367/401
f 356/320 354/319 392/390 394/402
f 352/358 343/331 381/386 390/403
f 341/326 379/404 378/405 340/327
f 306/324 319/323 358/406 357/407
f 328/338 366/408 364/397 326/309
f 355/336 350/335 388/409 393/410
f 331/342 330/341 368/411 369/412
f 350/335 349/368 387/413 388/409
f 324/356 336/355 374/414 362/415
f 321/352 359/388 358/406 319/323
f 353/346 391/392 389/385 351/330
f 330/341 329/316 367/401 368/411
f 344/374 382/416 380/387 342/375
f 324/356 362/415 366/408 328/338
f 333/360 371/394 373/383 335/361
f 306/324 357/407 365/417 327/363
f 356/320 394/402 385/391 347/345
f 349/368 348/382 386/418 387/413
f 334/366 340/327 378/405 372/419
f 323/349 322/310 360/398 361/395
f 325/370 363/420 379/404 341/326
f 337/372 375/384 374/414 336/355
f 352/358 390/403 386/418 348/382
f 346/306 345/305 383/421 384/389
f 334/366 372/419 376/399 338/313
f 325/370 327/363 365/417 363/420
f 332/380 331/342 369/412 370/393
f 355/336 393/410 382/422 344/377
f 365/423 357/424 395/425 403/426
f 385/427 394/428 424/429 415/430
f 421/431 420/432 411/433 419/434
f 387/435 386/436 416/437 417/438
f 378/439 379/440 408/441 372/442
f 361/443 360/444 398/445 399/446
f 386/436 390/447 420/448 416/437
f 373/449 371/450 407/451 375/452
f 384/453 383/454 413/455 414/456
f 363/457 365/423 403/426 401/458
f 377/459 376/460 405/461 367/462
f 401/463 409/464 407/465 408/466
f 382/467 393/468 423/469 412/470
f 381/471 389/472 419/434 411/433
f 405/473 408/466 407/465 406/474
f 359/475 380/476 410/477 397/478
f 392/479 384/453 414/456 422/480
f 370/481 369/482 368/483 406/484
f 391/485 385/427 415/430 421/486
f 383/454 361/443 399/446 413/455
f 376/460 372/442 408/441 405/461
f 360/444 364/487 402/488 398/445
f 403/426 400/489 409/464 401/458
f 394/428 392/479 422/480 424/429
f 390/447 381/471 411/433 420/448
f 357/424 358/490 396/491 395/425
f 379/440 363/457 401/458 408/441
f 364/487 366/492 404/493 402/488
f 393/468 388/494 418/495 423/469
f 388/494 387/435 417/438 418/495
f 371/450 370/481 406/484 407/451
f 358/490 359/475 397/478 396/491
f 362/496 374/497 409/464 400/489
f 368/483 367/462 405/461 406/484
f 389/472 391/485 421/486 419/434
f 380/476 382/467 412/470 410/477
f 374/497 375/452 407/451 409/464
f 366/492 362/496 400/489 404/493
f 416/437 420/448 421/431 415/430
f 424/429 417/438 416/437 415/430
f 417/438 424/429 422/480 418/495
f 414/456 423/469 418/495 422/480
f 423/469 414/456 413/455 412/470
f 412/470 413/455 399/446 410/477
f 399/446 398/445 397/478 410/477
f 398/445 402/488 396/491 397/478
f 404/493 400/489 403/426 395/425
f 395/425 396/491 402/488 404/493
f 425/498 426/499 430/500 429/501
f 457/502 427/503 431/504 458/505
f 427/503 428/506 432/507 431/504
f 429/501 430/500 434/508 433/509
f 458/505 431/504 435/510 459/511
f 431/504 432/507 436/512 435/510
f 433/509 434/508 438/513 437/514
f 459/511 435/510 439/515 460/516
f 435/510 436/512 440/517 439/515
f 441/518 442/519 446/520 445/521
f 462/522 443/523 447/524 463/525
f 443/523 444/526 448/527 447/524
f 445/521 446/520 450/528 449/529
f 463/525 447/524 451/530 464/531
f 447/524 448/527 452/532 451/530
f 449/529 450/528 454/533 453/534
f 464/531 451/530 455/535 465/536
f 451/530 452/532 456/537 455/535
f 426/499 457/502 458/505 430/500
f 430/500 458/505 459/511 434/508
f 434/508 459/511 460/516 438/513
f 440/517 461/538 460/516 439/515
f 437/514 438/513 460/516 461/538
f 466/539 444/526 443/523 462/522
f 442/519 462/522 463/525 446/520
f 446/520 463/525 464/531 450/528
f 450/528 464/531 465/536 454/533
f 441/518 466/539 462/522 442/519
f 603/540 469/541 575/542 573/543
f 590/544 586/545 585/546 591/547
f 606/548 625/549 613/550 605/551
f 513/552 522/553 536/554 526/555
f 561/556 570/557 563/558 562/559
f 709/560 711/561 710/562 704/563
f 709/560 704/563 687/564 693/565
f 598/566 599/567 468/568 469/569
f 564/570 467/571 468/568 599/567
f 567/572 509/573 467/571 564/570
f 509/573 565/574 566/575 467/571
f 621/576 622/577 524/578 571/579
f 597/580 598/566 469/569 603/540
f 467/571 566/575 576/581 468/568
f 570/557 561/556 589/582 584/583
f 550/584 655/585 662/586 549/587
f 488/588 651/589 659/590 481/591
f 483/592 657/593 656/594 484/595
f 584/583 589/582 591/547 585/546
f 564/570 599/567 593/596 559/597
f 569/598 580/599 576/581 566/575
f 514/600 527/601 609/602 610/603
f 607/604 610/605 500/606 601/607
f 512/608 525/609 535/610 521/611
f 558/612 583/613 580/599 569/598
f 520/614 534/615 528/616 515/617
f 534/615 520/614 521/611 535/610
f 581/618 614/619 578/620 577/621
f 524/622 537/623 715/624 713/625
f 546/626 548/627 547/628 504/629
f 608/630 604/631 487/632 486/633
f 612/634 608/630 486/633 483/635
f 518/636 532/637 555/638 553/639
f 483/592 484/595 500/640 612/634
f 484/595 485/641 601/607 500/640
f 485/641 488/642 607/604 601/607
f 686/643 708/644 703/645 702/646
f 598/566 597/580 595/647 594/648
f 497/649 607/604 488/642 481/591
f 551/650 553/651 554/652 624/653
f 518/654 499/655 516/656 531/657
f 497/649 481/591 482/658 498/659
f 505/660 498/659 482/658 489/661
f 489/661 490/662 506/663 505/660
f 495/664 506/663 490/662 479/665
f 480/666 496/667 495/664 479/665
f 507/668 496/667 480/666 491/669
f 491/669 492/670 508/671 507/668
f 568/672 557/673 558/612 569/598
f 581/618 626/674 529/675 614/619
f 579/676 575/677 576/581 580/599
f 560/678 567/572 564/570 559/597
f 493/679 508/671 492/670 477/680
f 478/681 494/682 493/679 477/680
f 602/683 722/684 721/685 552/686
f 478/681 538/687 541/688 494/682
f 565/574 568/672 569/598 566/575
f 618/689 619/690 547/628 548/627
f 547/628 572/691 713/692 504/629
f 577/693 573/543 575/542 579/676
f 621/576 571/579 572/694 620/695
f 581/618 577/621 579/676 582/696
f 582/696 579/676 580/599 583/613
f 598/566 594/648 593/596 599/567
f 592/697 595/647 597/580 600/698
f 616/699 631/700 632/701 617/702
f 617/702 632/701 633/703 615/704
f 574/705 573/543 577/693 578/620
f 606/548 605/551 529/675 626/674
f 574/705 596/706 603/540 573/543
f 630/707 606/548 626/674 629/708
f 570/557 584/583 620/709 619/710
f 584/583 585/546 621/576 620/709
f 585/546 586/545 622/577 621/576
f 518/654 553/639 551/650 499/655
f 527/601 611/711 725/712 609/602
f 623/713 622/577 586/545 587/714
f 524/578 622/577 623/713 537/623
f 582/696 629/708 626/674 581/618
f 516/656 625/715 627/716 531/657
f 600/698 597/580 603/540 596/706
f 541/688 538/687 539/717 542/718
f 583/613 631/719 629/708 582/696
f 557/673 633/703 632/701 558/612
f 532/637 616/699 617/702 555/638
f 604/720 723/721 722/684 602/683
f 617/702 615/704 556/722 555/638
f 531/657 627/716 532/637 518/654
f 628/723 517/724 530/725 613/726
f 616/699 630/707 629/708 631/700
f 543/727 542/718 539/717 540/728
f 572/694 547/628 619/690 620/695
f 571/579 524/578 713/625 572/694
f 628/723 516/656 499/655 517/724
f 632/701 631/700 583/613 558/612
f 522/553 523/729 510/730 536/554
f 514/600 610/603 607/604 497/649
f 556/722 554/652 553/651 555/638
f 514/600 497/649 498/659 515/731
f 625/715 516/656 628/723 613/550
f 469/569 468/568 576/581 575/542
f 586/545 590/544 588/732 587/714
f 625/549 606/548 630/707 627/716
f 627/716 630/707 616/699 532/637
f 520/614 515/617 498/659 505/660
f 505/660 506/663 521/611 520/614
f 512/608 521/611 506/663 495/664
f 496/667 513/733 512/608 495/664
f 522/553 513/552 496/667 507/668
f 507/668 508/671 523/729 522/553
f 619/710 618/689 563/558 570/557
f 510/730 714/734 718/735 536/554
f 510/730 523/729 508/671 493/679
f 510/730 493/679 494/682 511/736
f 708/644 707/737 688/738 703/645
f 702/646 693/565 687/564 686/643
f 494/682 541/688 544/739 511/736
f 545/740 544/739 541/688 542/718
f 525/609 512/608 513/733 526/555
f 527/601 514/600 515/731 528/616
f 712/741 545/740 542/718 543/727
f 550/584 549/587 602/683 552/686
f 604/631 602/683 549/587 487/632
f 691/742 706/743 705/744 692/745
f 696/746 695/747 690/748 689/749
f 700/750 694/751 697/752 698/753
f 692/745 705/744 697/752 694/751
f 688/738 707/737 696/746 689/749
f 706/743 691/742 690/748 695/747
f 700/750 698/753 701/754 699/755
f 481/591 659/590 658/756 482/658
f 477/680 664/757 663/758 478/681
f 486/633 653/759 657/593 483/635
f 491/669 473/760 472/761 492/670
f 482/658 658/756 475/762 489/661
f 484/595 656/594 654/763 485/641
f 479/665 661/764 660/765 480/666
f 487/632 652/766 653/759 486/633
f 666/767 649/768 650/769 665/770
f 668/771 647/772 648/773 667/774
f 682/775 637/776 638/777 681/778
f 669/779 646/780 637/776 682/775
f 670/781 645/782 646/780 669/779
f 679/783 639/784 645/782 670/781
f 683/785 636/786 643/787 673/788
f 667/774 648/773 634/789 685/790
f 674/791 642/792 640/793 678/794
f 675/795 640/796 639/797 672/798
f 671/799 644/800 649/768 666/767
f 676/801 641/802 636/786 683/785
f 684/803 635/804 644/800 671/799
f 673/788 643/787 642/792 674/791
f 685/790 634/789 635/804 684/803
f 639/784 679/783 680/805 672/798
f 681/778 638/777 647/772 668/771
f 640/793 675/795 677/806 678/794
f 492/670 472/761 664/757 477/680
f 489/661 475/762 474/807 490/662
f 478/681 663/758 476/808 538/687
f 539/717 471/809 470/810 540/728
f 490/662 474/807 661/764 479/665
f 538/687 476/808 471/809 539/717
f 480/666 660/765 473/760 491/669
f 549/587 662/586 652/766 487/632
f 485/641 654/763 651/589 488/642
f 560/678 559/597 561/556 562/559
f 559/597 593/596 589/582 561/556
f 593/596 594/648 591/547 589/582
f 594/648 595/647 590/544 591/547
f 588/732 590/544 595/647 592/697
f 660/765 681/778 668/771 473/760
f 472/761 667/774 685/790 664/757
f 661/764 682/775 681/778 660/765
f 664/757 685/790 684/803 663/758
f 474/807 669/779 682/775 661/764
f 656/594 677/806 675/795 654/763
f 658/756 679/783 670/781 475/762
f 659/590 680/805 679/783 658/756
f 662/586 683/785 673/788 652/766
f 651/589 672/798 680/805 659/590
f 655/585 676/801 683/785 662/586
f 653/759 674/791 678/794 657/593
f 471/809 666/767 665/770 470/810
f 657/593 678/794 677/806 656/594
f 476/808 671/799 666/767 471/809
f 652/766 673/788 674/791 653/759
f 654/763 675/795 672/798 651/589
f 663/758 684/803 671/799 476/808
f 475/762 670/781 669/779 474/807
f 473/760 668/771 667/774 472/761
f 644/800 704/563 710/562 649/768
f 643/787 699/755 701/754 642/792
f 641/802 699/755 643/787 636/786
f 639/784 697/752 705/744 645/782
f 640/796 698/753 697/752 639/797
f 649/768 710/562 711/561 650/769
f 646/780 706/743 695/747 637/776
f 635/804 687/564 704/563 644/800
f 634/789 686/643 687/564 635/804
f 647/772 707/737 708/644 648/773
f 642/792 701/754 698/753 640/793
f 645/782 705/744 706/743 646/780
f 638/777 696/746 707/737 647/772
f 648/773 708/644 686/643 634/789
f 637/776 695/747 696/746 638/777
f 712/741 728/811 720/812 545/740
f 526/555 501/813 502/814 525/609
f 511/736 503/815 714/734 510/730
f 536/554 718/735 501/813 526/555
f 544/739 719/816 503/815 511/736
f 612/634 727/817 724/818 608/630
f 528/616 533/819 611/711 527/601
f 525/609 502/814 717/820 535/610
f 545/740 720/812 719/816 544/739
f 608/630 724/818 723/721 604/631
f 610/605 726/821 716/822 500/606
f 609/602 725/712 726/821 610/603
f 500/640 716/822 727/817 612/634
f 534/615 519/823 533/819 528/616
f 535/610 717/820 519/823 534/615
f 529/675 731/824 743/825 614/619
f 613/550 742/826 741/827 605/551
f 588/732 737/828 736/829 587/714
f 715/624 746/830 745/831 713/625
f 623/713 744/832 733/833 537/623
f 596/706 739/834 740/835 600/698
f 614/619 743/825 735/836 578/620
f 587/714 736/829 744/832 623/713
f 574/705 734/837 739/834 596/706
f 499/655 729/838 730/839 517/724
f 578/620 735/836 734/837 574/705
f 517/724 730/839 732/840 530/725
f 600/698 740/835 738/841 592/697
f 530/725 732/840 742/826 613/726
f 592/697 738/841 737/828 588/732
f 537/623 733/833 746/830 715/624
f 605/551 741/827 731/824 529/675
f 775/842 812/843 811/844 774/845
f 750/846 788/847 792/848 754/849
f 767/850 805/851 804/852 766/853
f 757/854 795/855 805/851 767/850
f 786/856 822/857 820/858 783/859
f 747/860 772/861 785/862 748/863
f 769/864 768/865 806/866 807/867
f 780/868 771/869 809/870 817/871
f 784/872 821/873 816/874 779/875
f 756/876 754/849 792/848 794/877
f 759/878 797/879 796/880 758/881
f 782/882 819/883 813/884 776/885
f 774/886 811/887 789/888 751/889
f 749/890 748/863 785/862 787/891
f 752/892 790/893 802/894 764/895
f 758/881 796/880 795/855 757/854
f 781/896 818/897 809/870 771/869
f 752/892 756/876 794/877 790/893
f 761/898 763/899 801/900 799/901
f 747/860 755/902 793/903 772/861
f 786/856 776/885 813/884 822/857
f 762/904 800/905 806/866 768/865
f 779/875 816/874 815/906 778/907
f 753/908 769/864 807/867 791/909
f 751/889 789/888 788/847 750/846
f 765/910 764/895 802/894 803/911
f 782/882 780/868 817/871 819/883
f 773/912 770/913 808/914 810/915
f 753/908 791/909 793/903 755/902
f 762/904 766/853 804/852 800/905
f 784/872 773/916 810/917 821/873
f 760/918 798/919 797/879 759/878
f 778/907 815/906 814/920 777/921
f 765/910 803/911 801/900 763/899
f 770/913 749/890 787/891 808/914
f 783/859 820/858 812/843 775/842
f 761/898 799/901 798/919 760/918
f 781/896 777/921 814/920 818/897
f 803/911 841/922 839/923 801/900
f 817/871 809/870 847/924 855/925
f 808/914 787/891 825/926 846/927
f 820/858 858/928 850/929 812/843
f 819/883 857/930 851/931 813/884
f 799/901 837/932 836/933 798/919
f 811/887 849/934 827/935 789/888
f 788/847 826/936 830/937 792/848
f 805/851 843/938 842/939 804/852
f 795/855 833/940 843/938 805/851
f 822/857 860/941 858/928 820/858
f 818/897 856/942 847/924 809/870
f 807/867 806/866 844/943 845/944
f 772/861 823/945 824/946 785/862
f 794/877 792/848 830/937 832/947
f 821/873 859/948 854/949 816/874
f 797/879 835/950 834/951 796/880
f 816/874 854/949 853/952 815/906
f 790/893 828/953 840/954 802/894
f 787/891 785/862 824/946 825/926
f 819/883 817/871 855/925 857/930
f 796/880 834/951 833/940 795/855
f 810/915 808/914 846/927 848/955
f 790/893 794/877 832/947 828/953
f 799/901 801/900 839/923 837/932
f 772/861 793/903 831/956 823/945
f 822/857 813/884 851/931 860/941
f 815/906 853/952 852/957 814/920
f 800/905 838/958 844/943 806/866
f 789/888 827/935 826/936 788/847
f 791/909 807/867 845/944 829/959
f 803/911 802/894 840/954 841/922
f 818/897 814/920 852/957 856/942
f 812/843 850/929 849/960 811/844
f 800/905 804/852 842/939 838/958
f 791/909 829/959 831/956 793/903
f 798/919 836/933 835/950 797/879
f 821/873 810/917 848/961 859/948
f 831/962 869/963 861/964 823/965
f 851/966 881/967 890/968 860/969
f 887/970 885/971 877/972 886/973
f 853/974 883/975 882/976 852/977
f 844/978 838/979 874/980 845/981
f 827/982 865/983 864/984 826/985
f 852/977 882/976 886/986 856/987
f 839/988 841/989 873/990 837/991
f 850/992 880/993 879/994 849/995
f 829/996 867/997 869/963 831/962
f 843/998 833/999 871/1000 842/1001
f 867/1002 874/1003 873/1004 875/1005
f 848/1006 878/1007 889/1008 859/1009
f 847/1010 877/972 885/971 855/1011
f 871/1012 872/1013 873/1004 874/1003
f 825/1014 863/1015 876/1016 846/1017
f 858/1018 888/1019 880/993 850/992
f 836/1020 872/1021 834/1022 835/1023
f 857/1024 887/1025 881/967 851/966
f 849/995 879/994 865/983 827/982
f 842/1001 871/1000 874/1003 838/979
f 826/985 864/984 868/1026 830/1027
f 869/963 867/997 875/1005 866/1028
f 860/969 890/968 888/1019 858/1018
f 856/987 886/986 877/972 847/1010
f 823/965 861/964 862/1029 824/1030
f 845/981 874/980 867/1002 829/996
f 830/1027 868/1026 870/1031 832/1032
f 859/1009 889/1008 884/1033 854/1034
f 854/1034 884/1033 883/975 853/974
f 837/991 873/990 872/1013 836/1020
f 824/1030 862/1029 863/1015 825/1014
f 828/1035 866/1028 875/1005 840/1036
f 834/1022 872/1021 871/1012 833/999
f 855/1011 885/971 887/970 857/1024
f 846/1017 876/1016 878/1007 848/1006
f 840/1036 875/1005 873/1004 841/989
f 832/1032 870/1031 866/1028 828/1035
f 882/976 881/967 887/1025 886/986
f 890/968 881/967 882/976 883/975
f 883/975 884/1033 888/1019 890/968
f 880/993 888/1019 884/1033 889/1008
f 889/1008 878/1007 879/994 880/993
f 878/1007 876/1016 865/983 879/994
f 865/983 876/1016 863/1015 864/984
f 864/984 863/1015 862/1029 868/1026
f 870/1031 861/964 869/963 866/1028
f 861/964 870/1031 868/1026 862/1029
f 891/1037 895/1038 896/1039 892/1040
f 923/1041 924/1042 897/1043 893/1044
f 893/1044 897/1043 898/1045 894/1046
f 895/1038 899/1047 900/1048 896/1039
f 924/1042 925/1049 901/1050 897/1043
f 897/1043 901/1050 902/1051 898/1045
f 899/1047 903/1052 904/1053 900/1048
f 925/1049 926/1054 905/1055 901/1050
f 901/1050 905/1055 906/1056 902/1051
f 907/1057 911/1058 912/1059 908/1060
f 928/1061 929/1062 913/1063 909/1064
f 909/1064 913/1063 914/1065 910/1066
f 911/1058 915/1067 916/1068 912/1059
f 929/1062 930/1069 917/1070 913/1063
f 913/1063 917/1070 918/1071 914/1065
f 915/1067 919/1072 920/1073 916/1068
f 930/1069 931/1074 921/1075 917/1070
f 917/1070 921/1075 922/1076 918/1071
f 892/1040 896/1039 924/1042 923/1041
f 896/1039 900/1048 925/1049 924/1042
f 900/1048 904/1053 926/1054 925/1049
f 906/1056 905/1055 926/1054 927/1077
f 903/1052 927/1077 926/1054 904/1053
f 932/1078 928/1061 909/1064 910/1066
f 908/1060 912/1059 929/1062 928/1061
f 912/1059 916/1068 930/1069 929/1062
f 916/1068 920/1073 931/1074 930/1069
f 907/1057 908/1060 928/1061 932/1078